<?xml version="1.0" encoding="UTF-8"?>
<svg xmlns="http://www.w3.org/2000/svg" xmlns:xlink="http://www.w3.org/1999/xlink" viewBox="0 0 717.64 431.11">
  <defs>
    <style>
      .cls-1, .cls-2, .cls-3, .cls-4, .cls-5 {
        mix-blend-mode: screen;
      }

      .cls-1, .cls-6, .cls-7, .cls-8, .cls-9, .cls-10, .cls-11, .cls-12, .cls-5 {
        opacity: .35;
      }

      .cls-1, .cls-13 {
        fill: #cae8ff;
      }

      .cls-14 {
        opacity: .1;
      }

      .cls-14, .cls-15, .cls-16, .cls-17, .cls-18 {
        fill: #0d1c49;
      }

      .cls-2 {
        opacity: .16;
      }

      .cls-2, .cls-19, .cls-20, .cls-21, .cls-22 {
        fill: #fff;
      }

      .cls-23, .cls-7 {
        fill: #898989;
      }

      .cls-24 {
        fill: #606060;
      }

      .cls-3 {
        fill: url(#linear-gradient-6);
      }

      .cls-3, .cls-4 {
        opacity: .7;
      }

      .cls-20 {
        stroke-width: 6.77px;
      }

      .cls-20, .cls-21 {
        stroke-linejoin: round;
      }

      .cls-20, .cls-21, .cls-25, .cls-17 {
        stroke: #0d1c49;
      }

      .cls-26 {
        fill: #3bd1ff;
      }

      .cls-26, .cls-16, .cls-6, .cls-7, .cls-27, .cls-28, .cls-8, .cls-9, .cls-10, .cls-11, .cls-12, .cls-29, .cls-30, .cls-31, .cls-32 {
        mix-blend-mode: multiply;
      }

      .cls-26, .cls-27, .cls-28, .cls-29, .cls-30, .cls-31, .cls-32 {
        opacity: .3;
      }

      .cls-16 {
        opacity: .26;
      }

      .cls-6 {
        fill: #b7b7b7;
      }

      .cls-27 {
        fill: url(#linear-gradient-7);
      }

      .cls-28 {
        fill: url(#linear-gradient-9);
      }

      .cls-21, .cls-17 {
        stroke-width: 6px;
      }

      .cls-8 {
        fill: url(#linear-gradient-11);
      }

      .cls-9 {
        fill: url(#linear-gradient-13);
      }

      .cls-10 {
        fill: url(#linear-gradient-12);
      }

      .cls-11 {
        fill: url(#linear-gradient-15);
      }

      .cls-12 {
        fill: url(#linear-gradient-14);
      }

      .cls-29 {
        fill: url(#linear-gradient-10);
      }

      .cls-30 {
        fill: url(#linear-gradient-18);
      }

      .cls-31 {
        fill: url(#linear-gradient-19);
      }

      .cls-32 {
        fill: url(#linear-gradient-17);
      }

      .cls-4 {
        fill: url(#linear-gradient-16);
      }

      .cls-25 {
        fill: none;
        stroke-width: 2.01px;
      }

      .cls-25, .cls-17 {
        stroke-miterlimit: 10;
      }

      .cls-33 {
        fill: url(#linear-gradient-8);
      }

      .cls-34 {
        fill: url(#linear-gradient-3);
      }

      .cls-35 {
        fill: url(#linear-gradient-2);
      }

      .cls-36 {
        fill: url(#linear-gradient-5);
      }

      .cls-5 {
        fill: url(#linear-gradient);
      }

      .cls-37 {
        fill: url(#radial-gradient);
      }

      .cls-37, .cls-38, .cls-39 {
        opacity: .59;
      }

      .cls-40 {
        isolation: isolate;
      }

      .cls-38 {
        fill: url(#linear-gradient-4);
      }

      .cls-39 {
        fill: #6effd8;
      }

      .cls-22 {
        opacity: .5;
      }

      .cls-13 {
        opacity: .25;
      }

      .cls-18 {
        opacity: .37;
      }
    </style>
    <linearGradient id="linear-gradient" x1="-435.28" y1="172.56" x2="-334.58" y2="254.02" gradientTransform="translate(170.37) rotate(-180) scale(1 -1)" gradientUnits="userSpaceOnUse">
      <stop offset="0" stop-color="#fff"/>
      <stop offset=".13" stop-color="#fff" stop-opacity=".9"/>
      <stop offset=".4" stop-color="#fff" stop-opacity=".64"/>
      <stop offset=".79" stop-color="#fff" stop-opacity=".23"/>
      <stop offset="1" stop-color="#fff" stop-opacity="0"/>
    </linearGradient>
    <linearGradient id="linear-gradient-2" x1="163.58" y1="248.8" x2="164.29" y2="165" gradientTransform="translate(246.85 -78.09) rotate(7.8)" gradientUnits="userSpaceOnUse">
      <stop offset="0" stop-color="#540d8c"/>
      <stop offset=".18" stop-color="#51269c"/>
      <stop offset=".56" stop-color="#4b68c8"/>
      <stop offset="1" stop-color="#43bcff"/>
    </linearGradient>
    <linearGradient id="linear-gradient-3" x1="335.25" y1="155.2" x2="-22.83" y2="420.3" gradientTransform="translate(-1.62 -9.52) rotate(.18)" gradientUnits="userSpaceOnUse">
      <stop offset="0" stop-color="#caf0ff"/>
      <stop offset="1" stop-color="#17c8ff"/>
    </linearGradient>
    <linearGradient id="linear-gradient-4" x1="260.33" y1="276.45" x2="381.16" y2="-110.62" gradientTransform="translate(-1.62 -9.52) rotate(.18)" gradientUnits="userSpaceOnUse">
      <stop offset="0" stop-color="#6effd8" stop-opacity="0"/>
      <stop offset="1" stop-color="#6effd8"/>
    </linearGradient>
    <linearGradient id="linear-gradient-5" x1="-20.44" y1="423.08" x2="343.34" y2="232.91" gradientTransform="translate(-1.62 -9.52) rotate(.18)" gradientUnits="userSpaceOnUse">
      <stop offset="0" stop-color="#aaa"/>
      <stop offset=".61" stop-color="#c3c3c3"/>
      <stop offset="1" stop-color="#d6d6d6"/>
    </linearGradient>
    <linearGradient id="linear-gradient-6" x1="493.23" y1="104.49" x2="422.41" y2="155.56" gradientTransform="translate(.86 -5.85) rotate(-.15)" xlink:href="#linear-gradient"/>
    <linearGradient id="linear-gradient-7" x1="94.02" y1="365.25" x2="171.39" y2="326.4" gradientTransform="translate(.86 -5.85) rotate(-.15)" gradientUnits="userSpaceOnUse">
      <stop offset="0" stop-color="#686868"/>
      <stop offset=".33" stop-color="#818181"/>
      <stop offset="1" stop-color="#c1c1c1"/>
    </linearGradient>
    <linearGradient id="linear-gradient-8" x1="50.69" y1="659.74" x2="406.89" y2="126.38" gradientTransform="translate(.86 -5.85) rotate(-.15)" gradientUnits="userSpaceOnUse">
      <stop offset=".34" stop-color="#7a7a7a"/>
      <stop offset=".55" stop-color="#939393"/>
      <stop offset=".99" stop-color="#d5d5d5"/>
      <stop offset="1" stop-color="#d6d6d6"/>
    </linearGradient>
    <linearGradient id="linear-gradient-9" x1="182.19" y1="-.6" x2="163.92" y2="86.26" gradientTransform="translate(52.52 102.68) rotate(-5.44)" gradientUnits="userSpaceOnUse">
      <stop offset="0" stop-color="#17c8ff"/>
      <stop offset=".07" stop-color="#17c8ff" stop-opacity=".94"/>
      <stop offset=".41" stop-color="#17c8ff" stop-opacity=".62"/>
      <stop offset=".69" stop-color="#17c8ff" stop-opacity=".39"/>
      <stop offset=".89" stop-color="#17c8ff" stop-opacity=".25"/>
      <stop offset="1" stop-color="#17c8ff" stop-opacity=".2"/>
    </linearGradient>
    <linearGradient id="linear-gradient-10" x1="417.26" y1="63.66" x2="392.91" y2="179.43" gradientTransform="matrix(1, 0, 0, 1, 0, 0)" xlink:href="#linear-gradient-9"/>
    <linearGradient id="linear-gradient-11" x1="187.75" y1="404.24" x2="238.45" y2="331.21" xlink:href="#linear-gradient-7"/>
    <linearGradient id="linear-gradient-12" x1="226.86" y1="447.46" x2="307.72" y2="344.5" xlink:href="#linear-gradient-7"/>
    <linearGradient id="linear-gradient-13" x1="369.42" y1="426.41" x2="419.49" y2="348.81" xlink:href="#linear-gradient-7"/>
    <linearGradient id="linear-gradient-14" x1="330.47" y1="418.46" x2="391.1" y2="328.3" xlink:href="#linear-gradient-7"/>
    <linearGradient id="linear-gradient-15" x1="164.63" y1="386.69" x2="219.24" y2="285.03" xlink:href="#linear-gradient-7"/>
    <linearGradient id="linear-gradient-16" x1="528.08" y1="258.54" x2="435.09" y2="384.73" gradientTransform="translate(.86 -5.85) rotate(-.15)" xlink:href="#linear-gradient"/>
    <linearGradient id="linear-gradient-17" x1="138.02" y1="533.09" x2="437.47" y2="338.22" xlink:href="#linear-gradient-7"/>
    <linearGradient id="linear-gradient-18" x1="504.7" y1="386.31" x2="506.68" y2="260.18" gradientTransform="translate(-149.65 -376.86) rotate(18.52)" xlink:href="#linear-gradient-7"/>
    <linearGradient id="linear-gradient-19" x1="378.09" y1="128.11" x2="425.35" y2="69.56" gradientTransform="translate(-17.88 -67.98) rotate(2.86)" xlink:href="#linear-gradient-7"/>
    <radialGradient id="radial-gradient" cx="384.88" cy="240.63" fx="384.88" fy="240.63" r="170.49" gradientTransform="translate(.86 -5.85) rotate(-.15)" gradientUnits="userSpaceOnUse">
      <stop offset="0" stop-color="#6effd8"/>
      <stop offset="1" stop-color="#6effd8" stop-opacity="0"/>
    </radialGradient>
  </defs>
  <g class="cls-40">
    <g id="Calque_2" data-name="Calque 2">
      <g id="Layer_1" data-name="Layer 1">
        <g>
          <g>
            <path class="cls-21" d="M501.07,198.89c.47-.74,1.09-1.39,1.78-1.96,.36-.25,.74-.52,1.11-.75,.36-.18,.72-.37,1.09-.54,1.49-.66,3.13-1.06,4.82-1.07,1.68-.01,3.39,.37,4.89,1.16,1.5,.79,2.77,1.93,3.76,3.23,.5,.63,.92,1.38,1.29,2.01l1.06,1.87c.72,1.24,1.39,2.51,2.14,3.73l2.23,3.68c.75,1.22,1.55,2.41,2.32,3.62,3.13,4.8,6.45,9.49,10.02,13.98,1.74,2.28,3.63,4.44,5.46,6.64,1.92,2.13,3.79,4.3,5.82,6.33,3.95,4.15,8.16,8.05,12.54,11.72,2.44,2.07,4.96,4.04,7.54,5.92,1.65-.9,3.35-1.73,5.13-2.44,6.03-2.42,12.94-3.29,19.04-1.02,1.51,.56,2.96,1.31,4.21,2.32,4.5,3.62,5.81,10.31,3.99,15.8,9.72,1.9,18.52,6.4,27.78,9.74,3.77,1.36,7.58,2.58,11.44,3.68,2.75,.78,5.63,1.43,8.36,2.37,1.11,.08,2.22,.14,3.34,.11,2.5-.06,4.96-.3,7.41-.75,4.92-.9,9.75-2.34,14.56-3.7,4.58-1.3,9.59-3.21,14.42-2.89,3.64,.24,6.99,2.17,9.28,4.98,1.79,2.2,3.09,5.1,3.41,8,5.38,1.36,9.58,5.83,11.71,10.96,2.39,5.76,2.14,12.45-.83,17.95-3.17,5.87-9.77,10.64-16.63,10.65-1.07,2.42-2.61,4.65-4.59,6.49-7.59,7.11-18.49,8.28-28.39,7.17-6.03-.67-12.08-1.86-17.94-3.45-2.91-.79-5.77-1.73-8.56-2.88-1.28-.53-2.55-1.09-3.8-1.71-1.15-.57-2.97-1.7-4.38-1.65-1.44,.06-3.07,1.06-4.54,1.35-2.68,.53-5.42,.8-8.15,.77-2.86-.04-5.71-.43-8.52-.95-2.36-.44-4.43-1.17-6.84-.79-.87,.14-1.71,.36-2.57,.55-.56,.12-1.3,.2-1.95,.08-1.11,4.48-3.44,8.7-6.37,12.17-5.17,6.12-12.59,10-20.52,10.9-5.06,.57-10.44,.16-15.4-.99-4.09-.96-7.85-2.97-10.7-6.09-5.5-5.99-6.85-14.96-2.58-22.05,2.55-4.23,6.42-6.47,10.85-8.36,3.5-1.49,7.49-3.24,9.81-6.4-.34-.94-.37-2.06-.47-2.99-.21-1.84-.43-3.68-.58-5.52-.05-.6-.09-1.2-.11-1.8-3.7,.67-7.46-.53-10.34-2.93-3.24-2.71-4.78-6.97-4.96-11.1-.21-5.1,1.57-9.99,4.04-14.39-2.15-1.83-4.25-3.71-6.32-5.62-4.23-4.03-8.27-8.26-12.03-12.73-3.71-4.5-7.32-9.1-10.56-13.95-6.63-9.6-12.24-19.83-17.4-30.23-1.33-2.84-2.14-5.79-2.42-8.87-.13-1.54-.17-3.11,.09-4.7,.25-1.58,.73-3.21,1.69-4.68Z"/>
            <g>
              <g>
                <path class="cls-23" d="M504.67,197.55c-5.72,3.23-4.2,13.43-1.51,18.88,15.93,32.36,34.93,57.41,65.99,76.45,6.43,3.95,14.84,1.93,18.79-4.51,3.94-6.43,1.92-14.84-4.51-18.78-.17-.1-.39-.23-.55-.32-27.67-15.42-49.46-40.45-64.54-67.84-3.05-5.53-8.71-6.67-13.67-3.88Z"/>
                <path class="cls-5" d="M560.21,257.67c-1.79,.97-3.33,2.21-5.48,2.74-6.15,1.51-14.09-8.25-17.63-12.22-2.91-3.26-5.66-6.66-8.25-10.17-5.6-7.61-10.09-15.84-14.51-24.16-1.93-3.63-4.28-7.66-4.64-11.81-.61-6.9,6.55-4.02,9.18-.46,1.86,2.5,2.99,6.08,4.68,8.81,2.17,3.51,4.44,6.95,6.83,10.32,4.78,6.76,10,13.22,15.65,19.28,2.58,2.76,5.14,5.54,7.79,8.24,2.26,2.3,7.77,8.1,11.28,8.11-2.03,0-3.53,.58-4.9,1.33Z"/>
                <path class="cls-7" d="M569.14,292.88c-.6-.37-1.19-.75-1.79-1.12-.64-1.12-1.27-2.24-1.88-3.38-1-1.86-1.85-3.93-1.71-6.08,.13-1.89,.68-3.59,1.48-5.3,.8-1.7,1.68-3.42,2.62-5.05,.64-1.11,1.67-2.08,2.49-3.06,1-1.2,2-2.41,2.83-3.74,.28-.44,.53-.9,.73-1.38,2.92,1.94,5.91,3.78,8.98,5.49,.16,.09,.38,.22,.55,.32,6.43,3.94,8.44,12.35,4.51,18.78-3.95,6.44-12.36,8.46-18.79,4.51Z"/>
                <path class="cls-7" d="M505.01,198.11c.96-.58,2.01-1.15,3.09-1.88-1.71,1.16-2.47,3.37-2.41,5.45s.84,4.05,1.63,5.96c8.33,20.08,20.73,38.55,36.69,53.31,2.5,2.31,6.24,5.41,9.91,5.11,2.64-.22,5.13-2.29,7.69-3.22,2.09-.75,11.94-4.47,11,.89-.54,3.05-4.75,5.8-6.19,8.53-1.76,3.33-3.83,6.71-3.82,10.61,0,2.07,.83,4.07,1.78,5.87,.3,.56,.59,1.12,.89,1.68-28.78-18.72-46.85-43-62.11-73.99-1.86-3.77-2.88-8.47-2.23-12.65,.49-3.14,2.07-4.44,4.09-5.67Z"/>
                <path class="cls-15" d="M504.59,215.72c13.89,28.5,32.83,54.23,59.48,71.96,4.44,2.85,9,6.73,14.59,5.37,9.71-1.85,13.1-14.4,5.63-20.89-1.57-1.43-5.18-3.23-7.11-4.46,0,0-3.68-2.37-3.68-2.37-12.21-8.01-23.04-17.95-32.65-28.91-9.06-10.43-16.98-21.89-23.7-33.96-2-4.11-6.63-6.01-10.82-3.97-6.1,2.66-4.01,12.37-1.73,17.24h0Zm-2.88,1.42c-2.72-6.1-4.53-15.22,1.13-20.22,3.34-2.5,8.15-3.21,11.92-1.21,4.31,2.2,5.81,7.04,8.27,10.85,9.85,16.63,22.07,31.95,36.72,44.61,5.93,5.1,12.37,9.79,19.02,13.92,2.23,1.4,5.48,2.92,7.55,4.74,7.83,6.67,6.48,19.7-2.52,24.67-4.22,2.42-9.57,2.64-13.98,.57-2.81-1.46-4.99-3.07-7.58-4.69-7.27-4.89-14.15-10.35-20.54-16.35-17.05-16-29.77-36.02-39.99-56.9h0Z"/>
              </g>
              <g>
                <path class="cls-19" d="M546.54,328.98c1.34-.76,3-1.43,4.75-2.14,3.31-1.34,8.89-2.98,9.62-6.97,.24-1.3,0-14.27,.28-14.31-4.9,.69-10.27,.12-13.2-4.29-2.36-3.52-3-8.32-1.76-13.19,1.1-4.28,3.41-8.15,5.29-11.04,2.11-3.22,4.52-6.3,7.16-9.15,4.95-5.34,12.94-9.95,20.34-11.75,5.75-1.4,15.69-1.08,19.5,5.57,1.94,3.38,2.9,8.68,2,12.48,7.58,2.64,15.17,5.29,22.75,7.93,4.63,1.61,9.26,3.23,13.97,4.59,3,.87,6.03,1.63,9.13,2.04,7.77,1.04,15.61-.18,23.17-1.97,3.58-.85,7.17-1.76,10.71-2.72,3.47-.94,7.16-1.75,10.72-.74,2.65,.75,5.2,2.5,6.76,4.79,.72,1.05,1.24,2.33,1.79,3.48,.18,.39,.92,3.94,.92,3.94,5.14,2.01,9.64,5.87,11.9,10.91,2.26,5.04,2.07,11.23-.95,15.85-.88,1.34-1.97,2.54-3.09,3.68-2.95,3.02-6.55,5.93-10.77,6-.48,0-.98-.02-1.41,.19-.38,.18-.65,.53-.91,.86-4.8,5.99-10.2,10.74-17.85,12.38-6.41,1.37-13.04,.87-19.44-.21-5.34-.89-10.59-2.7-15.88-3.5-4.44-.67-7.73-4.59-12.22-4.94-2.29-.18-4.5,.76-6.73,1.34-3.38,.88-6.96,.93-10.36,.16-2.2-.5-4.31-1.34-6.51-1.8-2.94-.61-6.01-.53-8.91,.25-.69,.18-1.38,.41-1.92,.88-.72,.63-1.05,1.58-1.39,2.47-2.5,6.56-7.26,12.23-13.29,15.82-4.81,2.87-10.41,4.39-16.01,4.42-5.2,.02-10.55-.16-15.34-2.53-3.66-1.82-6.57-4.58-8.41-8-3.95-7.31-1.39-16.83,5.59-20.78Z"/>
                <path class="cls-6" d="M699.95,295.37c-2.79,.12-5.61,.44-8.4,.15,3-2.25,4.57-6.26,3.98-9.79,.85,.7,1.6,1.49,2.2,2.37,.72,1.05,1.24,2.33,1.79,3.48,.16,.34,.74,3.07,.89,3.77-.15,0-.3,0-.45,.01Z"/>
                <path class="cls-6" d="M547.98,301.27c-1.99-2.97-2.64-6.68-2.29-10.21,.4-3.96,2.12-7.86,4.74-10.84-2.3,2.61-2.42,6.89-.16,9.48,1.08,1.25,2.38,2.4,3.96,2.85,2.52,.73,5.16-.4,7.54-1.5,4.89-2.27,10.17-4.81,15.67-4.81-1.4-.03-4.49,2.69-5.67,3.47-2,1.33-3.93,2.78-5.68,4.43-1.66,1.57-3.4,3.41-4.43,5.48-.88,1.77-.8,4.06-1.06,6.01-4.74,.56-9.81-.13-12.63-4.36Z"/>
                <path class="cls-6" d="M543.13,339.42c1.1,3.66,3.58,6.91,7,8.94,5.69,3.38,12.97,3.27,19.15,.93,6.18-2.34,11.41-6.7,15.98-11.47,3.76-3.93,7.23-8.33,9.15-13.39,.14-.36,.64-.37,.78,0,.62,1.7,2.49,3.05,4.38,3.32,2.58,.38,5.15-.57,7.69-1.17,18.94-4.44,37.64,10.61,57.03,8.99,5.28-.44,10.45-2.15,14.95-4.95,3.33-2.07,6.39-4.85,7.84-8.49,1.45-3.64,.9-7.92-1.84-10.79,2.95,.8,5.39,1.73,7.45,4.13,1.67,1.95,2.81,4.3,3.83,6.65,.17,.38,.35,.79,.72,.99,.45,.25,1.02,.08,1.5-.11,4.47-1.78,8.09-5.61,9.61-10.17,1.53-4.57,.94-9.8-1.57-13.91,7.02,4.38,8.96,16.7,4.61,23.37-.88,1.34-1.97,2.54-3.09,3.68-2.95,3.02-6.55,5.93-10.77,6-.48,0-.98-.02-1.41,.19-.38,.18-.65,.53-.91,.86-4.8,5.99-10.2,10.74-17.85,12.38-6.41,1.37-13.04,.87-19.44-.21-5.34-.89-10.59-2.7-15.88-3.5-4.44-.67-7.73-4.59-12.22-4.94-2.29-.18-4.5,.76-6.73,1.34-3.38,.88-6.96,.93-10.36,.16-2.2-.5-4.31-1.34-6.51-1.8-2.94-.61-6.01-.53-8.91,.25-.69,.18-1.38,.41-1.92,.88-.72,.63-1.05,1.58-1.39,2.47-2.5,6.56-7.26,12.23-13.29,15.82-4.81,2.87-10.41,4.39-16.01,4.42-5.2,.02-10.55-.16-15.34-2.53-3.66-1.82-6.57-4.58-8.41-8-2.62-4.86-2.84-14.38,1.98-18.2-.67,2.65-.55,5.35,.2,7.86Z"/>
                <path class="cls-15" d="M539.79,333.15c2.55-4.23,6.42-6.47,10.85-8.36,3.5-1.49,7.49-3.24,9.81-6.4-.34-.94-.37-2.06-.47-2.99-.21-1.84-.43-3.68-.58-5.52-.05-.6-.09-1.2-.11-1.8-3.7,.67-7.46-.53-10.34-2.93-3.24-2.71-4.78-6.97-4.96-11.1-.24-5.66,1.98-11.09,4.88-15.84,6-9.85,14.44-17.86,25.21-22.19,6.03-2.42,12.94-3.29,19.04-1.02,1.51,.56,2.96,1.31,4.21,2.32,4.5,3.62,5.81,10.31,3.99,15.8,9.72,1.9,18.52,6.4,27.78,9.74,3.77,1.36,7.58,2.58,11.44,3.68,2.75,.78,5.63,1.43,8.36,2.37,1.11,.08,2.22,.14,3.34,.11,2.5-.06,4.96-.3,7.41-.75,4.92-.9,9.75-2.34,14.56-3.7,4.58-1.3,9.59-3.21,14.42-2.89,3.64,.24,6.99,2.17,9.28,4.98,1.79,2.2,3.09,5.1,3.41,8,5.38,1.36,9.58,5.83,11.71,10.96,2.39,5.76,2.14,12.45-.83,17.95-3.17,5.87-9.77,10.64-16.63,10.65-1.07,2.42-2.61,4.65-4.59,6.49-7.59,7.11-18.49,8.28-28.39,7.17-6.03-.67-12.08-1.86-17.94-3.45-2.91-.79-5.77-1.73-8.56-2.88-1.28-.53-2.55-1.09-3.8-1.71-1.15-.57-2.97-1.7-4.38-1.65-1.44,.06-3.07,1.06-4.54,1.35-2.68,.53-5.42,.8-8.15,.77-2.86-.04-5.71-.43-8.52-.95-2.36-.44-4.43-1.17-6.84-.79-.87,.14-1.71,.36-2.57,.55-.56,.12-1.3,.2-1.95,.08-1.11,4.48-3.44,8.7-6.37,12.17-5.17,6.12-12.59,10-20.52,10.9-5.06,.57-10.44,.16-15.4-.99-4.09-.96-7.85-2.97-10.7-6.09-5.5-5.99-6.85-14.96-2.58-22.05Zm2.16,16.06c1.76,3.28,4.59,5.87,7.91,7.52,4.04,2.01,9.02,2.46,13.46,2.59,7.98,.23,15.42-2.29,21.25-7.8,6.01-5.68,9.38-13.12,10.69-21.19,.04-.27,.5-.27,.55,0,.34,2.08,.33,4.18,.05,6.24,.2-.1,.39-.18,.58-.24,.8-.25,1.63-.39,2.47-.5,.06-.07,.13-.13,.24-.13,1.4-.02,2.85-.27,4.24-.14,1.22,.12,2.42,.46,3.62,.69,2.63,.5,5.28,.82,7.95,.89,2.55,.07,5.1-.1,7.6-.56,1.19-.22,2.38-.46,3.56-.74,1.91-.46,3.3-.69,5.21-.06,1.88,.63,3.52,1.8,5.34,2.58,2.24,.96,4.56,1.75,6.89,2.45,4.75,1.42,9.63,2.44,14.52,3.27,9.44,1.59,19.67,1.9,28.07-3.38,6.57-4.13,11.06-12.02,8.17-19.76-1.42-3.8-4.38-6.56-8.28-7.67-4.56-1.29-9.44-.77-14.11-.74-5.89,.04-11.81-.23-17.67-.88-3.4-.38-6.8-.8-10.15-1.49-1.68-.35-3.36-.75-4.97-1.35-.87-.32-3.59-1.15-3.92-2.04-.95-2.61-1.75-5.53-3.99-7.18,.83,.13,1.54,.66,2.17,1.21,1.24,1.08,2.36,2.3,3.32,3.63,2.05,2.84,4.39,2.66,7.68,3.13s6.56,1,9.86,1.35c5.69,.6,11.39,.94,17.11,.93,5.08,0,10.43-.62,15.35,.96,3.96,1.27,7.17,3.98,8.91,7.78,1.79,3.92,2.06,8.23,1.08,12.25,5.06-1.01,9.68-3.57,12.66-7.96,3.28-4.83,3.55-10.85,1.33-16.19-1.12-2.68-2.89-5.11-5.13-6.96-2.83-2.33-6.29-3-9.95-2.7-7.61,.63-15.16,1.3-22.81,1.37-4.37,.04-8.74-.01-13.1-.29-2.22-.14-4.45-.35-6.66-.63-1.7-.22-4.4,.03-5.84-.89-.68-.43-1.23-1.02-1.81-1.57-1.39-1.33-2.96-2.49-4.64-3.43,.76,.42,2.29,.32,3.18,.6,1.18,.38,2.33,.93,3.35,1.64,2.17,1.51,5.02,1.06,7.66,1.18,5.95,.26,11.9,.6,17.86,.58,4.3-.01,8.6-.15,12.89-.42,4.15-.26,8.38-1.02,12.54-.93,.2,0,.4,.03,.6,.04-.04-.73-.14-1.45-.36-2.16-1.09-3.58-4.25-6.68-7.84-7.7-4.62-1.31-9.85,.74-14.3,1.97-5.31,1.48-10.58,3.02-16.06,3.75-2.66,.35-5.38,.58-8.06,.42-.47-.03-.96-.07-1.46-.12-3.63,.06-7.39-.83-10.87-1.65-3.98-.93-7.93-2.01-11.84-3.21-3.82-1.18-7.58-2.54-11.3-4.02-4.82-1.92-9.69-3.83-14.81-4.74-5.9-1.05-10.2,1.53-15.5,3.46,1.74-1.48,3.69-2.99,5.72-4.04,1.51-.78,4.59-1.19,5.74-2.33,2.5-2.47,1.1-9.05-.38-11.65-3.36-5.87-12.43-6.45-18.25-5.04-7.08,1.73-14.84,6.09-19.78,11.42-2.6,2.8-4.95,5.81-7.04,9-2.16,3.31-4.16,6.83-5.15,10.69-1.04,4.07-.78,8.71,1.6,12.28,2.19,3.28,6.23,5.08,10.06,3.8,.13-.04,.25-.07,.36-.08,.15-1.6,.48-3.19,1.11-4.74,1.37-3.42,5.03-6.39,7.88-8.6,3.15-2.44,6.74-3.64,10.05-5.69-4.8,2.96-10.14,6.99-13.11,11.84-.77,1.26-1.53,2.53-2.05,3.92-1.14,3.05-.97,6.17-.72,9.35,.14,1.74,.22,3.49,.31,5.24,.02,.41,.05,.82,.06,1.24,.85,8.11-10.43,10.04-15.78,13.06-6.66,3.76-8.7,12.63-5.15,19.24Z"/>
              </g>
            </g>
          </g>
          <g>
            <path class="cls-20" d="M639.86,379.57c-.42-.53-.95-.98-1.55-1.28-.35-.17-.51-.23-.71-.31l-.58-.24c-3.11-1.26-6.21-2.56-9.33-3.79-12.47-4.97-25.04-9.67-37.68-14.17-12.63-4.52-25.28-8.94-37.95-13.31,0,0-18.97-6.61-18.97-6.61-4.29-1.51-17.58-5.96-17.58-5.96,4.81-98.16,1.04-220.96-12.6-319.62C375.99-2.98,207.19-.39,46.48,26.72l-17.72,23.22c15.72,53.84,58.42,208.89,78.65,318.9-.26,0,.33,.4,.5,.59l.48,.49,1.69,1.68c9,8.96,17.94,17.98,26.75,27.1,4.41,4.56,8.78,9.15,13.08,13.8,4.27,4.65,8.58,9.35,12.34,14.2v.02s.82,1.01,.82,1.01l1.23-.05c53.53-2.14,107.07-3.78,160.62-4.8,26.78-.54,53.55-.79,80.33-.95,26.78-.06,53.56-.04,80.33,.29,26.77,.37,53.55,.84,80.31,1.74,6.69,.18,13.38,.45,20.07,.69,6.69,.26,13.38,.46,20.06,.79l20.06,.9,1.25,.06h.31s.16,.02,.16,.02h.29c.39,0,.78-.05,1.16-.13,1.54-.34,2.89-1.38,3.61-2.78,.18-.35,.32-.72,.42-1.09l.07-.28,.03-.16,.06-.31,.25-1.23,.5-2.46c.65-3.29,1.29-6.57,1.88-9.87,1.23-6.59,2.39-13.19,3.69-19.76l1-4.94c.27-1.33-.08-2.77-.92-3.83ZM96.1,40.96c-.02-.07-.03-.15-.05-.23,0,0,0,0,0,0,0,0,0,0,0,0,.02,.07,.03,.15,.05,.22Z"/>
            <path class="cls-20" d="M534.32,74.66c-.82-10.4-1.41-9.79-3.18-10.48-1.94-.76-7.49-2.67-19.36-4.82-4.98-.9-22.16-3.18-25.08-3.36-43.78-2.74-81.89-.71-116.52,6.18-6.37,1.27-13.11,2.82-19.26,6.54-4.86,2.94-8.46,6.9-10.69,11.76-2.77,6.05-3.12,12.66-3.35,19.09-.57-.12-1.14-.25-1.71-.35-1.6-.3-3.2-.56-4.82-.7-11.34-1.04-21.44-.26-26.47,1.98-.03-.29-.05-.58-.08-.87l-.02-.16c-.69-6.73-1.3-12.66-4.78-18.86-2.65-4.73-6.64-8.45-11.88-11.07-6.59-3.29-13.67-4.41-20.35-5.27-36.45-4.68-76.2-4.28-121.53,1.22-8.56,1.04-17.09,2.8-25.48,4.79-11.74,2.78-17.18,4.98-19.08,5.84-1.73,.79-2.35,.21-2.61,10.64-.25,10.01,.63,24.71,1.14,33.44,.29,5.03,14.82,3.29,15.39,11.01,.13,1.71,.26,3.42,.4,5.14,.85,11.89,2.53,23.72,5.04,35.44,1.52,7.08,3.56,15.23,8.61,22.38,5.4,7.64,14.23,12.13,26.27,13.37,22.95,2.36,43.84,3.29,63.29,2.77,21.76-.58,41.72-2.98,60.71-7.22,15.43-3.45,23.68-13.14,25.25-29.63,1.47-15.6,1.95-31.33,1.44-47.02,.09-.02,.17-.04,.25-.07,1.61-.41,3.2-.84,4.83-1.17,3.21-.65,6.49-1.06,9.77-1.21,5.52-.25,10.97,.32,16.32,1.55,.47,15.97,1.91,31.93,4.34,47.69,2.52,16.28,11.05,25.41,26.08,27.92,17.55,2.93,35.82,4.14,55.51,3.61,19.57-.52,40.55-2.76,63.61-6.72,11.53-1.98,19.75-7.03,24.45-15,4.36-7.4,5.8-15.62,6.8-22.74,1.89-13.41,2.3-26.9,2.58-40.38,.16-7.75,14.76-6.78,14.78-11.82,.04-8.75,.14-23.47-.65-33.45Zm-37.39,100.94c-.6,.82-1.23,1.66-1.87,2.53-2.47-35.86-4.94-71.71-7.41-107.57,2.51,1.36,5.64,1.01,8.26,2.15,3.44,1.5,4.33,5.82,4.95,9.14,3.46,18.49,4.83,37.38,4.06,56.18-.47,11.49-.92,27.9-7.98,37.57Z"/>
          </g>
          <g>
            <path class="cls-19" d="M206.26,71.8c-3.54,.69-6.99,1.7-10.27,3.22-7.8,3.61-13.24,9.92-15.17,18.26-1.83,7.88-4.57,15.94-5.9,24.11-2.02,12.4-2.09,25.12-.22,37.55,1.42,9.43,4.32,19.3,11.57,25.5,8.34,7.13,20.29,7.72,31.27,7.8,31.69,.24,55.92-.77,87.59-1.88,15.84-.55,31.67-1.13,47.52-1.58,14.64-.42,18.36,.11,33.02,.88,14.11,.75,28.3,.9,42.37-.57,20.49-2.14,38.37-12.23,40.98-33.07,.79-6.27,3.81-20.95-.59-42.01-2.31-11.05-7.07-23.52-15.28-31.61-6.66-6.56-25.08-4.92-34.12-5.98-64.95-7.61-131.55-5.72-196.78-2.25-5.33,.28-10.75,.62-15.98,1.65Z"/>
            <g>
              <ellipse class="cls-35" cx="382.18" cy="142.23" rx="33.06" ry="34.76"/>
              <ellipse class="cls-15" cx="380.81" cy="141.95" rx="27.19" ry="28.58"/>
              <path class="cls-2" d="M407.99,157.55c1.38-3.15,6.1-13.61-.23-15.23-1.38-.35-2.8-.1-4.04,.53-13.5,6.77-29.55,7.97-44.48,3.39-6.8-2.09-6.31,1.97-4.03,7.03,2.32,5.15,4.69,10.27,8.93,14,14.49,12.76,36.59,6.91,43.85-9.71Z"/>
              <g>
                <path class="cls-19" d="M406.59,136.34c.61-.3,1.18-.66,1.72-1.08,2.52-1.98,4.04-5.54,3.3-8.98-2.63-12.21-23.06,.09-16.35,9.22,.94,1.28,2.52,1.72,3.98,1.9,2.53,.31,5.13,.03,7.36-1.06Z"/>
                <path class="cls-22" d="M364.4,151.11c.6-.21,1.15-.55,1.59-1.05,1.45-1.64,1.37-4.66-.24-6.36-4.17-4.41-10.97,2.01-5.68,6.54,1.23,1.05,2.93,1.35,4.33,.86Z"/>
              </g>
            </g>
            <path class="cls-34" d="M480.57,31.72c-118.68-17.57-242.83-7.47-406.32,9.19,7.58,34.13,42.52,178.05,60.32,284.34,78.9-4.75,249.82-10.57,361.93-2.46,3.66-56.28-6.74-225.46-15.93-291.08Zm-38.93,125.14c-2.33,4.75-5.62,9.05-9.68,12.45-11.28,9.42-29.26,13.45-43.36,10.25-10.16-2.3-18.77-9.09-24.64-17.54-2.95-4.26-5.25-8.99-6.78-13.94-1.43-4.65-2.04-9.48-2.34-14.33-.46-7.42-.29-15.26,1.51-22.5,1.21-4.84,4.75-9.99,7.53-14.12,9.37-13.94,26.73-23.01,43.42-19.92,10.09,1.87,19.39,6.9,26.05,14.76,7.39,8.73,11.19,19.78,12.61,31,1.44,11.35,.8,23.47-4.31,33.89Z"/>
            <path class="cls-38" d="M489.27,31.9c-118.68-17.57-252.67-14.9-416.33,8.9,9.53,33.7,41.47,169.6,61.62,284.47,78.9-4.75,249.83-9.08,361.94-.97,11.83-54.76,1.95-226.77-7.24-292.4Zm-53.18,135.87c-6.75,8.13-18.59,10.69-28.7,12.3-11.04,1.76-22.3,.43-31.8-5.77-7.05-4.61-12.28-11.54-15.7-19.17-3.66-8.17-5.44-17.13-5.62-26.06-.18-8.89,1.22-17.93,4.57-26.19,3.12-7.71,7.98-14.75,14.81-19.61,.24-.17,.48-.18,.67-.1,1.2-1.02,2.46-1.96,3.8-2.78,9-5.49,20.24-5.63,30.14-2.79,9.92,2.85,19.39,8.67,25.66,16.96,8.24,10.89,12.32,24.33,12.5,37.91,.16,12.44-2.19,25.49-10.34,35.31Z"/>
            <path class="cls-16" d="M489.27,31.9c-118.68-17.57-252.67-14.9-416.33,8.9,8.15,28.97,43.46,172.47,61.62,284.47,78.9-4.75,249.83-9.08,361.94-.97,11.83-54.76,1.95-226.77-7.24-292.4Zm.26,279.56c-105.73-7.62-271.2-.29-345.61,4.18-15.6-111.44-49.17-239.44-57.99-269.58,156.76-17.22,283.71-23.59,390.05-10.23,8.66,61.69,21.19,229.41,13.55,275.64Z"/>
            <g>
              <path class="cls-36" d="M637.28,379.77c-40.66-16.83-81.23-29.48-123.91-44.36,0,0,8.22-156.42-11.84-318.09-.11-.89-.76-1.58-1.64-1.71-20.33-2.82-229.28-24.26-451.09,11.84-.68,.11-1.28,.53-1.72,1.07l-15.73,20.19c-.58,.74-.76,1.71-.49,2.61,15.15,50.26,48.46,159.92,76.67,311.84,.34,1.85,.92,3.64,2.26,4.97,9.04,8.93,44.98,44.61,54.42,57.12,166.85-6.98,318.8-8.52,463.73-1.37,1.42,.06,2.69-.91,2.98-2.3l8.09-38.53c.29-1.37-.44-2.75-1.73-3.29Zm-502.71-54.51c-18.54-114.59-51.76-254.51-60.32-284.34,166.51-15.53,287.39-25.17,406.32-9.19,9.19,65.63,20.41,236.45,15.93,291.08-112.11-8.11-283.03-2.3-361.93,2.46Z"/>
              <path class="cls-3" d="M426.88,9.98c-.92,.06-1.84,.13-2.75,.22,13.25,2.33,69.55,7.31,70.17,11.87,9.9,73.08,12.06,134.59,19.45,199.25,1.75-24.75-.05-49.61-1.86-74.35-2.98-40.8-3.76-82.5-9.57-123-.72-4.99,.19-8.54-5.35-8.24-11.19,.6-23.45-2.57-34.69-3.6-11.72-1.08-23.66-2.88-35.4-2.15Z"/>
              <path class="cls-27" d="M197.79,334.22c-2.45,.23-5.07-.16-7.53-.48-5.52-.72-10.97-.74-16.53-.73-17.74,.05-35.15,1.87-52.82,.98-.71-.04-1.49-.09-2.02-.57-.43-.38-.63-.96-.77-1.51-.79-3.15-.55-6.86-2.83-9.18,1.75,5.61,1.24,12.82,3.35,18.05,1.58,3.91,6.18,6.23,9.47,8.53,4.42,3.08,8.73,6.3,13.29,9.18-2.34-1.48-4.54-5.46-6.29-7.63-2.03-2.52-5.04-5.45-6.33-8.44-1.46-3.4,.69-3.47,4.07-4.04,3.35-.56,6.77-.68,10.16-.75,7.78-.17,15.57-1.12,23.34-1.48,5.66-.26,11.31-.51,16.97-.72,2.39-.09,4.53-.29,6.85-.74,2.32-.45,5.32-1.26,7.63-.48Z"/>
              <path class="cls-33" d="M638.1,380.3c-6.1-.34-12.2-.85-18.28-1.33-14.47-1.13-28.98-1.55-43.46-2.42-31.32-1.87-62.63-2.14-94-1.84-31.21,.3-62.39,1.41-93.6,1.75-31.41,.34-62.83,.38-94.24,.81-31.39,.42-62.7,1.63-94.05,3.04-10.98,.49-21.97,.78-32.95,1.15-2.49,.08-3.02-1.33-4.5-3.02-1.5-1.72-3.08-3.37-4.71-4.96-3.28-3.19-6.78-6.15-10.37-8.98-7.24-5.72-14.86-10.95-21.99-16.81,0-1.1-4.58-3.59-5.27-4.89-.96-1.82-.91-5.07-1.31-7.09-1.22-6.16-2.45-12.31-3.7-18.46-2.49-12.3-5.03-24.59-7.62-36.87-5.17-24.56-10.54-49.08-16.11-73.56-6.91-30.41-14.12-60.75-21.63-91.01-3.75-15.13-7.58-30.25-11.48-45.34-1.95-7.55-3.92-15.09-5.91-22.63-.48-1.81-6.51-18.72-5.52-19.63-.11,.1-.22,.21-.32,.33l-15.73,20.19c-.58,.74-.76,1.71-.49,2.61,2.92,9.7,6.29,19.26,9.63,28.82,3.59,10.26,5.42,21.1,8.36,31.66,6.65,23.86,13.02,47.8,19.13,71.8,7.65,30.08,14.89,60.28,21.69,90.56,3.4,15.14,6.7,30.31,9.89,45.5,3,14.3,7.05,28.88,7.97,43.48,.12,1.88,.92,3.64,2.26,4.97,9.04,8.93,44.98,44.61,54.42,57.12,166.85-6.98,318.8-8.52,463.73-1.37,1.42,.06,2.69-.91,2.98-2.3l8.09-38.53c.22-1.04-.15-2.09-.91-2.77Z"/>
              <path class="cls-26" d="M379.35,208.92c-5.67-.96-11.36-1.82-17.07-2.58-21.23-2.83-42.63-4.24-64.04-4.3-19.72-.05-39.46-1.42-57.92-9.29-.86-.37-1.84-.89-2.01-1.86-.12-.69,.23-1.37,.6-1.95,1.9-2.96,4.82-5.17,8.08-6.13-15.59-2.71-32.17,1.45-44.98,11.27,4.98-.49,10.15-.95,14.85,.85,15.46,5.93,26.35,17.37,35.63,31.39,4.62,6.98,8.95,14.33,14.86,20.2,5.74,5.71,12.81,9.77,20.08,12.91,13.65,5.9,28.38,8.83,43.12,9.2,14.09,.35,28.81-.67,41.63-7.27,2.64-1.36,5.52-3.42,5.69-6.5,.15-2.77-.57-4.74,.67-7.36,1.31-2.78,3.38-5.51,5.04-8.07,4.96-7.65,8.88-15.51,16.93-20.22,7.18-4.2,16.32-5.04,23.6-1.1-1.76-4.75-5.54-8.42-9.77-10.88-4.23-2.47-8.94-3.87-13.6-5.25,1.51,1.15,1.64,3.65,.65,5.32-.99,1.67-2.81,2.62-4.62,3.09-3.8,.99-7.78,.25-11.63-.45-1.93-.35-3.86-.69-5.79-1.02Z"/>
              <path class="cls-28" d="M290.8,117.78c-7.37-9.4-17.3-16.63-28.03-21.9-14.12-6.93-30.42-10.63-45.73-7.03-18.7,4.4-34.55,18.29-44.96,33.83,13.33-9.46,30.65-13.26,46.62-9.78,15.97,3.48,30.28,14.31,37.57,28.94-16.62-6.03-33.92-11.26-51.6-10.95-6.84,.12-13.69,1.16-20.23,3.21s-11.71,6.14-18.1,7.8c-.87,.23-1.79,.42-2.65,.16-1.28-.38-2.11-1.68-2.33-3-.22-1.32,.06-2.66,.34-3.97-2.24,2.72-4.34,5.55-6.29,8.48-2.29,3.45-4.4,7.08-5.56,11.05-1.16,3.97-1.31,8.35,.24,12.18-2.14-5.27,13.93-15.82,17.43-17.41,8.85-4.03,19.48-5.06,29.07-5.68,4.2-.27,9.06-.09,11.68,3.2,.89,1.12,1.42,2.66,.89,3.99-.3,.76-.91,1.35-1.55,1.86-4.59,3.73-11.66,4.02-17.27,5.09-7.99,1.52-16.05,2.75-24.13,3.68,1.86-.21,7.48,3.93,9.51,4.72,3.64,1.41,7.42,2.45,11.26,3.11,7.44,1.28,14.5,.11,21.91,.25,10.54,.19,21.46-.97,31.93,.16,12,1.3,22.53,5.43,34.98,4.62,10.2-.67,21.81-4.55,25.17-14.21,4.9-14.07-.85-30.06-9.47-41.47-.23-.31-.47-.62-.71-.92Z"/>
              <path class="cls-29" d="M455.76,126.25c-.42-7.02-1.7-13.97-4-20.64-5.83-16.98-18.71-31.92-35.6-38.02-16.88-6.1-37.53-2.2-49.49,11.19-3.07,3.44-5.54,7.39-7.61,11.51-11.99,23.82-11.68,59,7.5,79.17,8.91,9.38,22.76,14.79,35.17,11.14-9.08-1.06-17.32-6.37-23.23-13.34-5.91-6.97-9.7-15.52-12.42-24.25-3.71-11.91-5.5-25.14-.7-36.67,5.7-13.69,16.64-24.04,32.23-24.21,13.07-.14,25.65,7.14,33.31,17.73,7.66,10.59,10.67,24.12,9.81,37.16-.59,8.99-3.05,18.08-8.53,25.23-7.63,9.96-19.99,14.93-31.91,18.84,6.57-1.2,13.14-2.4,19.71-3.59,5.06-.92,10.02-.38,14.95-1.41,4.82-1.01,9.55-3.26,12.61-7.13,2.35-2.97,3.57-6.66,4.56-10.3,2.87-10.51,4.27-21.56,3.61-32.42Z"/>
              <path class="cls-19" d="M360.69,214.09l-18.79-.88c-19.11-.9-38.47-.96-57.51-2.76-12.42-1.17-24.68-3.84-37.16-4.34-.22,2.03,1.05,3.88,2.27,5.52,4.12,5.56,8.23,11.12,12.35,16.67,4.53,6.11,9.09,12.26,14.71,17.38,9.53,8.69,21.8,14.04,34.46,16.5,12.66,2.46,25.73,2.12,38.52,.43,6.86-.91,13.83-2.27,19.76-5.84,1.15-.69,2.29-1.49,3-2.63,.89-1.41,1.03-3.15,1.42-4.78,.82-3.45,2.79-6.49,4.54-9.56,3.57-6.26,6.38-12.96,8.33-19.89,.18-.63,.35-1.28,.25-1.92-.21-1.43-1.68-2.36-3.1-2.65-6.42-1.28-13.58-.8-20.11-1.11-.98-.05-1.97-.09-2.95-.14Z"/>
              <path class="cls-14" d="M359.63,213.15c-12.83-.9-25.66-1.79-38.48-2.69-8.02-.56-16.12-1.5-24.16-1.6-8.05-.09-16.1,.24-24.02-1.58-.32-.07-.64-.15-.95-.23-8.58-2.15-17.26-3.86-26-5.12,3.7,6.34,7.4,12.68,11.1,19.02,3.38,5.8,6.79,11.63,10.98,16.82,4.63,5.73,10.23,10.59,16.42,14.35,3.04,1.85,6.22,3.43,9.5,4.72,2.76,1.09,6.72,1.88,9.14,3.59-4.85-3.41-7.11-7.97-6.56-14.31,10.23,.96,20.59,.56,30.74-1.18-6.14-.16-12.28-2.06-18.24-3.45-6.27-1.47-12.5-3.13-18.68-4.99-3.63-1.09-9.34-1.69-11.13-5.66-2.31-5.11-2.91-11.77-2.91-17.36,33.65-.1,67.19,3.33,100.67,6.76,.63,.06,1.31,.15,1.76,.61,.7,.71,.53,1.92,.28,2.92-.99,4.1-2.22,8.15-3.67,12.1-.91,2.47-1.54,5.43-3.53,7.24-2.12,1.93-5.48,1.72-8.06,2.63,1.05,2.01,1.22,4.41,1.11,6.71-.12,2.3-.5,4.58-.48,6.89,1.36-.59,2.72-1.17,4.08-1.76,.18-.08,.37-.16,.5-.33,.16-.21,.18-.49,.2-.75,.31-4.1,2.49-9.25,4.34-12.86,2.14-4.19,4.84-7.87,6.75-12.29,1.16-2.69,2.58-5.38,3.5-8.16,.54-1.61,2.71-5.66,1.57-7.16-.44-.58-1.2-.74-1.9-.85-3.99-.65-8.03-.93-12.06-1.22-3.93-.27-7.86-.55-11.79-.82Z"/>
              <path class="cls-23" d="M509.6,340.91l85.27,31.78c-131.02-8.52-272.94-4.98-413.52,1.11-15.11-11.75-29.82-22.67-43.68-31.89,140.44-5.62,269.55-7.6,371.94-1Z"/>
              <path class="cls-8" d="M179.19,340.34c2.04,1.67,4.29,3.1,6.47,4.55,3.19,2.12,6.38,4.23,9.62,6.29,3.37,2.15,6.56,4.46,9.67,6.98,3.24,2.63,6.38,5.36,9.6,8,1.5,1.23,2.98,2.47,4.55,3.61,1.03,.75,2.06,1.5,3.01,2.34,.4,.35,2.98-.13,3.56-.17,1.32-.07,2.64-.16,3.97-.26,2.18-.17,4.28-.52,6.47-.59,3.64-.12,7.27-.39,10.91-.57,3.21-.16,6.46-.31,9.68-.18,.68,.03,1.61,.2,2.22,0-4.27-.61-8.78-.32-13.09-.53-4.99-.23-10-.03-14.99-.05-.33,0-.66,0-.99,0-1.27,0-2.56-.02-3.82-.07-.52-.02-1.1-.02-1.52-.23-.87-.44-1.99-1.64-2.61-2.36s-1.48-1.65-1.89-2.54c4.95-.31,9.9-.29,14.86-.78,4.57-.45,9.14-.79,13.7-1.32,.44-.05,.9-.18,1.34-.17-1.36,.1-2.79-.08-4.16-.09-2.91-.03-5.82,.09-8.73,.03-3.36-.07-6.74-.08-10.1-.17-1.09-.03-2.16-.05-3.25,0-2.45,.13-4.98,.36-7.44,.12-.96-.09-1.34-.9-1.85-1.56-.68-.87-1.51-1.6-2.09-2.55,4.48-.24,8.87-.14,13.35-.65,4.72-.54,9.59-1.81,14.36-1.64-.65-.32-1.7-.01-2.41,.06-2.68,.3-5.37,.43-8.08,.42-4.97-.03-9.95,.04-14.91,.29-1.71,.08-3.91,.39-5.49-.4-1-.5-2.99-2.06-3.32-3.07,7.93-.12,15.86-2.03,23.82-1.94-2.48-.77-5.77-.13-8.31,.02-5.12,.29-10.26-.06-15.38,.15-1.81,.07-3.58,.54-5.04-.48-1.56-1.08-2.9-2.58-4.14-4.01,.89,0,1.81-.12,2.7-.2,1.98-.16,3.95-.12,5.94-.13,4.57-.03,9.14-.55,13.71-.57-.73-.24-2.05-.12-2.94-.18-3.22-.23-6.45-.45-9.67-.57-3.03-.11-6.06-.05-9.1-.12-1.27-.03-3.03,.25-4.26-.12-1.04-.31-1.99-1.47-2.9-2.1-.39-.27-.76-.63-1.05-1.01,2.96-.2,5.87-.36,8.81-.81,1.94-.3,3.9-.52,5.85-.77,1.62-.21,3.22-.57,4.84-.73-2.47-.02-4.96,.22-7.42,.3-2.07,.07-4.14-.05-6.2-.01-2.06,.04-4.04,.12-6.1,0-1.36-.07-2.78-.37-4.13-.26-1.08,.09-2.17,.22-3.24,.43-.53,.1-1.87,.77-2.36,.37Z"/>
              <path class="cls-10" d="M232.26,346.67c3.54,2.3,7.22,4.37,10.82,6.58,3.89,2.39,7.57,5.04,11.14,7.87,1.89,1.5,3.75,3.02,5.68,4.47,1.91,1.44,3.84,2.85,5.75,4.29,.27,.21,.55,.42,.82,.62,35.73-1.19,71.39-2.08,106.77-2.54-1.19-.77-2.35-1.57-3.48-2.43-1.28-.98-2.64-1.51-3.88-2.58,.87,2.08-.63,2.04-2.46,2.07-3.91,.06-7.8,.14-11.71,.15-1.14,0-2.29,0-3.43,0-18.77,0-37.5,.7-56.27,.84-5.85,.04-11.7,.38-17.55,.51-1.67,.04-3.6,.37-5.24,.13-2.57-.38-5.35-3.53-7.25-5.22-1.65-1.46-3.36-2.9-5-4.32,1.18-.57,3.33-.27,4.65-.32,1.64-.07,3.27-.13,4.91-.19,3.27-.12,6.55-.21,9.82-.3,6.54-.18,13.09-.33,19.63-.5,3.64-.1,7.27-.29,10.9-.53,3.18-.21,6.34-.51,9.51-.8,1.27-.12,2.4-.26,3.66-.14s2.68-.09,3.88-.48c-3.75-.52-7.72-.31-11.51-.44-4.47-.15-8.94,.06-13.41-.02-4.89-.08-9.78,0-14.66,.14-6.28,.18-12.52,.36-18.8,.39-3.68,.02-7.32,.34-10.99,.5-2.8,.13-4.92-2.57-6.96-4.18,2.02,.37,4.12-.1,6.17,.05,2.37,.17,4.93-.28,7.28-.54,3.64-.4,7.44-.12,11.14-.29,4.17-.19,8.34-.39,12.51-.4-4.71,.01-9.42-.09-14.13-.21-5.13-.14-10.29-.02-15.43,.02-2.09,.01-4.19,.03-6.28,.04-.95,0-1.97,.13-2.9-.08-.81-.18-1.46-.67-2.18-1.06-1.37-.75-2.74-1.76-3.95-2.74,.32,.26,1.58,.11,1.98,.06,.67-.08,1.34-.13,2.02-.16,1.59-.07,3.18-.19,4.77-.2,3.05-.01,6.1,.03,9.15,.06,3.71,.03,7.49-.14,11.21-.31,1.52-.07,3.02-.22,4.54-.35,.87-.07,1.83-.26,2.69-.08-.46-.16-.99-.14-1.49-.15-1.71-.02-3.42,.01-5.13,.02-3.3,0-6.59-.07-9.89-.13-6.27-.1-12.55-.27-18.82-.17-1.26,.02-2.49,.29-3.75,.28s-1.84-.58-2.91-1.21c-1.33-.79-2.64-1.59-4.04-2.24,2.56,.03,5.18-.34,7.72-.67,1.75-.23,3.51-.4,5.26-.62,1.31-.17,2.64-.55,3.97-.52-1.8-.5-4.33-.08-6.16-.07-6.18,.02-12.49-.19-18.62,.6-.42,.05-.88,.17-1.25,.06,.78,.62,1.98,1.03,2.86,1.66,2.74,1.97,5.47,3.92,8.32,5.76Z"/>
              <path class="cls-9" d="M378.25,342.76c2.18,1.35,4.28,2.85,6.53,4.08,2.37,1.3,4.82,2.48,7.11,3.92,3.94,2.48,8.29,4.17,12.1,6.86,3.57,2.52,7.42,4.58,11.06,7.03,1.14,.77,2.07,1.8,3.25,2.54,1.58,.99,3.51,.45,5.33,.45,7.41,0,14.81-.43,22.2-.63,1.92-.05,3.84,.21,5.77,.2,2.7-.01,5.39,.06,8.09,.05,.69,0,1.49-.17,2.17-.03-.39-.54-1.17-.88-1.71-1.27-.33-.24-.58-.54-.9-.79s-.69-.4-1.01-.63c-1.33-.92-2.7-1.87-3.95-2.89,.54,.58,.94,1.27,1.47,1.86,.49,.55,1.12,.97,1.32,1.73-.07-.26-6.54,0-7.19,0-3.31-.02-6.65,.12-9.99,.07-3.75-.05-7.5-.1-11.25-.23-2.08-.07-4.2,.03-6.25-.4-1.97-.42-3.6-2.15-5.27-3.22-1.21-.77-2.46-1.6-3.59-2.48,1.51,.09,3.02,.08,4.53,.08,3.81,0,7.62,.14,11.44,.15,2.07,0,4.13-.14,6.2-.08,1.91,.06,4.38,.49,6.17,.15-1.26,.24-2.9-.28-4.16-.42-1.57-.18-3.15-.32-4.73-.43-6.36-.44-12.71-.27-19.07-.78-1.77-.14-3.3-.03-4.75-1.14-1.37-1.05-2.64-2.2-3.94-3.34,3.28-.1,6.59-.01,9.9-.02,6.14-.02,12.24-.03,18.37,.22,1.91,.08,3.87-.23,5.75,0-6.1-.81-12.14-1.35-18.3-1.33-4.5,.01-8.58-.16-13.06-.21-1.46-.01-2.94-.02-4.4,.05-.64,.03-1.06,.08-1.6-.17-1.47-.7-2.93-1.36-4.34-2.18-.71-.42-1.95-.92-2.42-1.61,1.01-.06,2.03,.03,3.04,.08,.85,.04,1.71-.04,2.57-.04,2.27,0,4.57,.19,6.81,.09,1.27-.06,2.54-.05,3.81-.11,1.37-.07,2.75,.11,4.1,.05-6.12,0-12.22-1.08-18.33-1.25-1.47-.04-3.17,.03-4.5-.62-1.69-.83-3.23-2.11-4.82-3.12-.78-.5-1.64-.87-2.44-1.32-.57-.32-1.4-.55-1.69-1.18,.83-.13,1.7,.1,2.53,.12,1.86,.05,3.71-.12,5.56-.17,3.8-.09,7.6,.04,11.4-.21,2.68-.17,5.6-.12,8.13-.55-1.85-.35-3.97-.15-5.87-.26-6.45-.36-12.97-.16-19.44-.13-1.4,0-3.68,.43-4.93-.38-.67-.43-1.08-1.31-1.73-1.75-1.26-.85-3.9-.35-5.35-.43-1.07-.06-2.13-.14-3.2-.17-.53-.02-1.06-.03-1.59-.01-.27,0-1.2,.21-1.41,.08,.99,.63,1.94,1.48,3.02,2.06,1.07,.58,2.02,1.3,3.1,1.84,1.22,.61,2.5,1.1,3.67,1.8,.24,.14,.48,.29,.71,.43Z"/>
              <path class="cls-12" d="M408.01,367.75c.53,0,1.07,0,1.6,0,2.46-.02,5.12,.28,7.56-.02,1.48-.18,.71-.67-.1-1.27-.74-.56-2.19-1.22-2.73-1.93-.02-.03-.02-.03,0,0,.89,1.51-1.16,.97-2.2,.97-7.67,.02-15.39,.23-23.06-.3-3.04-.21-6.1-.17-9.13-.13-1.15,.01-2.29,.21-3.4-.21-.96-.36-1.67-1.08-2.42-1.74-1.47-1.3-3.04-2.59-4.43-3.93,2.22,.35,4.61,.19,6.85,.21,2.48,.02,4.96,0,7.44-.07,2.31-.07,4.62-.15,6.92-.2,2.11-.05,4.32,.16,6.41,.02-.19-.1-.77-.12-1.12-.13-1.62-.05-3.23-.19-4.84-.32-7.4-.61-14.73-.4-22.13-.52-.73-.01-1.36,.2-2.02-.2-.67-.4-1.31-.98-1.95-1.44-1.49-1.07-2.95-2.18-4.44-3.26,1.07-.2,2.38-.17,3.48-.08,1.58,.13,3.24-.31,4.79-.09,1.4,.2,2.8,.06,4.23,.1,2.63,.08,5.16,.17,7.8,.09,2.77-.09,5.54-.22,8.31-.2-.92-.27-2.12-.24-3.07-.3-3.12-.2-6.24-.32-9.36-.46-2.21-.1-4.41-.02-6.63-.13-2.21-.11-4.43-.22-6.65-.11-1.09,.05-2.27,.26-3.37,.16-.78-.07-1.36-.74-2.03-1.16-.84-.53-1.7-1.02-2.55-1.53-.44-.27-.88-.54-1.31-.83-.26-.18-.75-.71-1.04-.77,.66,.13,1.42,.03,2.11,.06,1.8,.07,3.61,.04,5.41,0,2.57-.05,5.17,.05,7.76-.02,2.07-.06,4.14,.06,6.21,.05,4.03-.02,8.17,.23,12.15-.29-.32-.74-1.94-.64-2.61-.67-3.5-.17-6.97-.07-10.48-.15-3.67-.09-7.35-.24-11.03-.25-2,0-4.02-.04-6.01-.13-1.55-.07-3.44,.35-4.93-.17-1.29-.45-2.6-1.24-3.85-1.81-3.38-1.54-6.54-3.47-9.8-5.22-1.26-.68-2.54-1.83-3.91-2.25-1.72-.52-3.58,.11-5.31-.02-.37-.03-.71-.17-1.08-.2-.33-.03-1.31,.24-1.56,.06,1.06,.75,2.24,1.39,3.34,2.09,1.83,1.17,3.6,2.47,5.53,3.49,3.73,1.98,7.27,4.25,10.97,6.27,3.2,1.74,6.35,3.49,9.46,5.41,3.75,2.32,7.3,4.93,10.9,7.47,1.54,1.09,2.95,2.38,4.51,3.41,.68,.45,1.56,1.08,2.03,1.73,.53,.35,1.07,.7,1.62,1.01,.07,.04,.14,.07,.21,.11,1.62-.02,3.24-.04,4.86-.06,6.22-.07,12.44-.13,18.66-.17,3.14-.02,6.28,.03,9.41,.03Z"/>
              <path class="cls-11" d="M209.61,370.31c-.76,.02-1.51,.04-2.26,.07-3.6,.15-7.21,.46-10.82,.47-2.52,0-5.04,.15-7.56,.19-1.12,.02-2.25-.02-3.35,.05-.96,.06-2.17,.24-3.02-.31-.94-.61-1.89-1.73-2.68-2.51-.46-.45-1.32-1.18-1.48-1.81,.05,.22,7.2-.44,7.88-.48,2.67-.16,5.34-.4,8-.65,6.13-.55,12.37-1.24,18.42-1.67-3.79-.6-7.83-.45-11.66-.44-5.33,.01-10.66,.11-15.99,.12-2.05,0-4.09,.1-6.14,.11-1.37,0-3.07,.56-4.39,.04-1.01-.4-1.86-1.57-2.67-2.26-.93-.79-1.81-1.6-2.65-2.49,.45,.48,2.2-.39,2.86-.42,1.2-.07,2.4,.14,3.6,.08,3.8-.18,7.62-.17,11.42-.34,3.41-.15,6.91-.82,10.33-.69-3.47-.13-7.01-.18-10.52-.33-2.42-.1-4.83-.15-7.27-.09-2.97,.07-5.95,.12-8.9,.34-.79,.06-1.8,.21-2.6,.02-1.18-.28-1.97-1.13-2.83-1.86-.43-.37-.99-.61-1.46-.93-.16-.11-1.06-1.01-1.15-1.01,1.19-.05,2.37-.13,3.55-.21,4.68-.3,9.38-.2,14.07-.5,3.83-.24,7.81-.13,11.57-.9-.63-.26-1.55-.13-2.24-.13-2.37,0-4.74,0-7.11-.07-5.29-.16-10.51-.13-15.79,.14-1.47,.08-2.94,.13-4.41,.27-.48,.04-.96,.16-1.4-.02-.8-.33-1.41-1.37-2.03-1.94-.67-.62-1.32-1.39-2.03-1.95,1.13,.45,2.78,.09,3.97,.07,2.91-.05,5.83-.19,8.74-.34,4.07-.21,8.19-.43,12.23-.85-7.43,.1-14.9-.47-22.31,.23-1.11,.1-2.32,.38-3.23-.22-1.12-.74-2.2-1.72-3.2-2.6,2.17-.11,4.33-.03,6.49-.12,2.28-.1,4.55-.29,6.83-.3,2.46,0,4.89-.04,7.35-.17,1.4-.07,3.01-.09,4.37-.41-6.37-.53-12.83-.9-19.24-.61-1.19,.06-3.5,.48-4.52-.36-.34-.28-.44-.82-.78-1.08-.43-.34-.79-.05-1.26,0-.53,.04-1.11-.06-1.66-.04-1.44,.06-2.89,.11-4.33,.17-2.89,.11-5.79,.23-8.68,.34,13.87,9.22,28.57,20.14,43.68,31.89,.24,.19,1.52-.07,1.85-.08,.73-.03,1.46-.06,2.19-.09,1.4-.06,2.81-.12,4.21-.18,2.81-.12,5.62-.24,8.43-.35,5.62-.23,11.24-.46,16.86-.69,1.69-.07,3.74,.26,5.36-.12-.49-.64-1.31-.93-1.89-1.48-.69-.65-.65-.84-1.56-.77-2.39,.2-4.79,.22-7.19,.27Z"/>
              <path class="cls-4" d="M318.9,338.82c3.65,.92,7.37,1.34,11.11,1.73,7.21,.76,14.46,1.22,21.7,1.51,14.42,.59,28.86,.54,43.28,.96,11.57,.34,23.15,.3,34.73,.46,9.42,.13,20.82,.18,29.08,5.39,3.46,2.18,7.03,4.16,8.2,8.34,.94,3.36-2.57,14.06-7.53,10.35,14.96-.62,30.13,.69,45.09,1.12,8.88,.25,17.72,.59,26.61,.57,10.04-.03,20.03,1.02,30.15,1.52,5.8,.28,11.6,.59,17.39,.92,2.79,.16,5.58,.32,8.37,.49,2.26,.14,5.68-.29,7.79,.49,0,0-85.27-31.78-85.27-31.78-58.03-3.74-124.65-4.72-197.04-3.85,2.11,.61,4.21,1.23,6.34,1.76Z"/>
              <path class="cls-24" d="M117.19,346.09c.51,9.32-1.1,16.98-3.59,17.11-2.49,.14-4.92-7.3-5.44-16.62-.51-9.31,1.1-16.98,3.59-17.11,2.49-.14,4.93,7.3,5.44,16.62Z"/>
              <path class="cls-32" d="M620.55,408.55c-4.83,1.31-9.78,2.19-14.77,2.61-6.22,.53-12.48,.34-18.72,.15-56.36-1.72-112.72-4.17-169.07-3.75-36.16,.26-72.31,1.49-108.46,2.38-11.4,.28-22.81,.66-34.21,1.07-16.54,.59-33.07,1.22-49.61,1.68-8.27,.23-16.53,.42-24.8,.53-4.13,.06-8.26,.09-12.4,.12-2.72,.02-6.42,.39-8-2.39-1.23-1.22-1.45-4.66-1.58-6.32-.37-4.91-1.63-13,1.44-17.31,2.54-3.57,11.19-3.01,15.07-3.41,11.32-1.17,22.66-1.37,34-2.13,5.86-.39,11.75-1.47,17.57-2.32,1.66-.24,3.36-.32,4.94-.93-2.85-.09-4.86,.72-7.55,1.26-3.55,.71-7.41,.69-11.02,.82-7.18,.26-14.36,.07-21.54,.14-5.24,.05-10.48,0-15.71-.13-4.43-.11-8.74,1.09-13.27,1.07-5.11-.02-10.22-.39-15.34-.22-5.85,.19-12-8.96-15.81-12.51-5.84-5.43-11.91-10.61-18.18-15.52-7.09-5.54-14.89-11.36-17.45-19.99-.35-1.18-.61-2.43-1.33-3.43-.72-1-2.09-1.67-3.21-1.15-1.13,.53-1.49,1.94-1.68,3.18-1.61,10.06-5.13,29.9,1.91,38.03,5.15,5.95,11.3,11.25,16.84,16.85,7.03,7.12,14.03,14.29,20.88,21.59,2.98,3.18,5.95,6.38,8.83,9.65,.72,.82,5.04,7.13,5.91,7.09,166.85-6.98,318.8-8.52,463.73-1.37,1.42,.06,2.69-.91,2.98-2.3,1.3-6.11,3.12-11.73,4.24-17.64,.56-2.96,.94-5.99,1-9.19-.32,7.44-8.41,11.85-15.6,13.79Z"/>
              <path class="cls-30" d="M203.78,56.92c-.61,4.09,.05,8.55,2.79,11.61,7.6,8.48,17.79,5.57,27.34,3.05,7.52-1.98,14.11-.04,21.67,.27,5.76,.23,13.23,.43,15.67-5.94,1.08-2.81,1.46-8.21,.36-11.03-1.73-4.48-6.92-5.52-11.17-5.92-5.08-.48-8.89-1.05-13.8-2.69-9.78-3.26-20.73-7.29-30.84-2.97-5.1,2.18-9.17,4.45-11.14,9.98-.4,1.14-.71,2.37-.9,3.64Z"/>
              <path class="cls-31" d="M359.38,35.97c.35,1.62,.97,3.19,1.84,4.58,3.16,5.03,8.75,8.03,14.41,9.85s11.59,2.69,17.19,4.68c6.78,2.41,16.7,6.26,22-.97,.62-.84,1.11-1.78,1.46-2.77,1.3-3.69,1.44-10.12-1.55-13.12-3.13-3.14-8.39-2.07-12.37-2.49-6.69-.7-13.38-1.36-20.08-1.98-7.37-.68-15.77-2.29-19.57-9.48-3.28,2.78-4.25,7.43-3.33,11.69Z"/>
            </g>
            <g>
              <path class="cls-15" d="M511.36,336.76c-.12-5.8,.36-14.38,.62-20.31,3.92-97.52-1.45-195.27-11.74-292.26,0,0-.49-4.7-.49-4.7l-.2-1.93s.03,.04,.04,.05l-.24-.04c-18.57-2.97-37.43-4.41-56.2-5.79C317.55,3.24,190.82,7.36,66.45,27c-3.62,.64-13.39,2.14-17.27,2.82,0,0-.05,.02-.1,.07-.03,.02-.06,.06-.09,.09l-.32,.42-.72,.94c-4.74,6.2-9.96,12.29-14.98,18.29,0,0-.18,.22-.18,.22-.21,.25-.33,.59-.25,.91,2.75,8.81,5.5,17.7,8.12,26.53,22.9,78.71,43.22,158.19,60.09,238.41,3.12,15.08,6.24,31.29,8.88,46.5,.28,1.43,.56,3.16,1.63,4.22,0,0,.78,.77,.78,.77,18.44,18.53,37.37,36.43,54.09,56.61,0,0-2.03-.96-2.03-.96,40.16-1.72,80.34-3.2,120.53-4.3,93.79-2.43,187.65-2.86,281.43,.28,19.5,.7,40.72,1.47,60.27,2.47,0,0,1.26,.06,1.26,.06h.31s.16,.02,.16,.02c0,0,.02,0,.02,0,.17,0,.33-.13,.37-.29,0,0,.03-.15,.03-.15,2.71-12.77,6.04-25.48,8.76-38.25,.17-1.12-.79-1.29-1.6-1.63-33.82-13.92-69.23-25.51-103.99-37-6.37-2.15-14.22-4.5-20.3-7.29h0Zm4.02-2.68c5.72,1.25,12.2,3.95,17.7,5.79,31.4,11.01,63.71,21.76,94.6,34.09,3.12,1.23,6.22,2.52,9.33,3.79l.58,.24c.19,.08,.36,.14,.71,.31,1.83,.91,2.9,3.1,2.47,5.11-2.68,12.84-4.72,25.89-7.42,38.73-.52,2.59-3.06,4.52-5.71,4.27,0,0-.31-.01-.31-.01l-1.25-.06c-19.64-.88-40.71-1.81-60.19-2.38-133.85-4.2-267.8-1.55-401.59,3.73,0,0-1.23,.05-1.23,.05,0,0-.8-1.01-.8-1.01-16.38-19.9-35.28-37.95-53.39-56.32,0,0-.42-.42-.42-.42l-.47-.48c-1.68-1.74-2.52-4.57-2.76-6.55-1.4-8.3-3.41-19.6-5.01-27.86-11.84-61.85-26.81-123.06-42.78-183.96-8.83-33.08-17.75-66.14-28.11-98.77-.65-1.64-.45-3.63,.75-4.98,0,0,1.39-1.91,1.39-1.91,4.18-5.65,8.25-11.63,12.69-17.08,.56-.7,1.19-1.61,1.88-2.18,.55-.45,1.22-.81,1.98-1,.46-.11,.57-.1,.78-.14l.59-.09,2.34-.35c28.47-4.51,60.51-8.3,89.25-10.92C241.47,5.09,342.62,2.41,443.37,8.13c19.04,1.29,38.08,2.6,56.98,5.53,1.71,.25,3.14,1.98,3.19,3.63,0,0,.06,.59,.06,.59l.12,1.18c9.92,95.66,14.42,191.94,13.02,288.1-.28,8.56-.26,18.44-1.37,26.93h0Z"/>
              <path class="cls-15" d="M49.15,27.31c16.48,64.48,32.81,129.06,47.3,194.03,5.73,25.68,11.72,52.37,16.55,78.17,2.27,13.12,5.25,26.14,5.92,39.52-1.9-6.44-3.16-12.96-4.29-19.52-8.23-45.64-17.5-91.76-28.4-136.79-12.31-51.8-25.87-103.29-39.89-154.66,0,0,2.8-.74,2.8-.74h0Z"/>
              <path class="cls-15" d="M119.24,341.71c4.59,2.48,8.55,5.79,12.63,8.93,4.06,3.17,8.09,6.39,12.08,9.66,7.93,6.62,15.73,13.41,22.97,20.8,0,0-1.1-.44-1.1-.44,26.25-.99,62.08-2.11,88.32-2.9,107.9-2.98,216.07-4.42,323.95-.88,19.31,.57,39.6,1.52,58.88,2.52,0,0-.18,2.89-.18,2.89-13.98-.93-29.95-1.95-44.07-2.65-112.68-5.52-225.79-4.09-338.52-.09-26.2,.94-62.07,2.63-88.25,4,0,0-.63,.03-.63,.03,0,0-.47-.47-.47-.47-10.76-10.94-22.35-21.18-34.05-31.15-3.9-3.35-7.99-6.46-11.56-10.26h0Z"/>
              <path class="cls-15" d="M74.55,41.88c.85,1.81,1.57,3.3,2.1,5.13,0,0,.56,2.06,.56,2.06l2.36,8.8c2.41,8.8,6.85,26.44,9.12,35.27,13.26,52.96,25,106.45,35.18,160.07,4.54,23.86,8.67,47.79,12.61,71.75l-2.03-1.62c90.44-5.08,181.04-7.39,271.63-6.12,30.2,.5,60.4,1.53,90.56,3.66l-2.07,1.78c1.59-24.15,1.03-48.51,.4-72.72-2.6-72.78-7.17-145.7-16.31-217.95,0,0,1.68,1.65,1.68,1.65-33.73-3.99-67.69-5.98-101.68-6.83-76.48-1.78-153.1,2.03-229.32,8.47-24.05,1.87-50.65,5.15-74.8,6.6h0Zm-1.6-1.09c.74-1.66,3.51-1.47,5.18-1.81,0,0,6.58-.89,6.58-.89,8.6-1.16,17.65-2.16,26.17-2.97,37.94-3.84,76.54-7.08,114.59-9.33,85.52-4.87,171.63-6.08,256.83,4.18,9.32,72.96,13.91,146.38,16.54,219.84,.63,24.38,1.2,48.73-.41,73.12,0,0-.13,1.92-.13,1.92l-1.93-.14c-116.62-7.46-233.76-4.18-350.41,1.31-3.6,.1-8.97,.74-12.61,.39,0,0,0-.97,0-.97-15.2-95.84-35.19-190.95-60.39-284.67h0Z"/>
              <path class="cls-15" d="M119.8,339.07c16.31-2.16,32.71-2.75,49.11-3.55,114.74-5.25,229.8-8.7,344.54-1.56,0,0-.18,2.89-.18,2.89-98.25-5.58-196.76-3.95-295.08-.73-32.83,.74-65.54,3.54-98.4,2.95h0Z"/>
              <path class="cls-15" d="M167.33,382.11c-1.32,14.07-1.24,28.26,.11,42.32,0,0-2.9,0-2.9,0,1.05-10.55,1.08-21.16,.68-31.74-.15-3.53-.37-7.05-.79-10.58h2.9Z"/>
              <path class="cls-15" d="M138.43,342.12c1.07,.46,3.94,2.43,5.08,3.21,13.05,8.87,25.79,18.29,38.43,27.7,134.19-6.4,276.33-9.85,412.99-1.31,0,0-.4,1.87-.4,1.87,.04,.02-85.55-32.39-84.96-32.21-123.61-7.67-247.47-2.45-371.15,.73h0Zm-1.53-.43c7.77-.52,15.87-1.16,23.89-1.46,85.21-3.09,170.63-5.2,255.89-3.55,31.05,.64,62.11,1.72,93.1,3.78,0,0,85.43,31.32,85.44,31.32,0,0,6.12,2.25,6.12,2.25-139.81-9.15-280.07-5.24-419.94,.73,0,0-.36,.02-.36,.02,0,0-.28-.22-.28-.22-7-5.67-14.09-11.24-21.3-16.65-7.3-5.6-15.1-10.76-22.56-16.22h0Z"/>
              <g>
                <path class="cls-15" d="M179.1,340.24c14.24,9.17,28.34,18.66,41.16,29.75-13.01-10.83-27.28-20.05-41.66-28.93,0,0,.51-.82,.51-.82h0Z"/>
                <path class="cls-15" d="M220.56,338.94c14.95,9.02,29.83,18.37,43.1,29.76-13.47-11.12-28.5-20.2-43.58-28.92,0,0,.48-.84,.48-.84h0Z"/>
                <path class="cls-15" d="M325.71,336.58c16.33,8.76,32.76,17.79,46.99,29.76-10.74-8.86-22.93-15.77-35.1-22.47-4.08-2.2-8.18-4.37-12.33-6.43l.43-.86h0Z"/>
                <path class="cls-15" d="M366.51,336.06c17.33,9.3,34.64,18.78,50.71,30.16-16.24-11.1-33.69-20.3-51.15-29.3,0,0,.44-.86,.44-.86h0Z"/>
                <path class="cls-15" d="M407.85,336.77c17.99,8.62,36.01,17.47,52.38,28.93-16.53-11.18-34.69-19.73-52.78-28.05,0,0,.4-.88,.4-.88h0Z"/>
                <path class="cls-15" d="M447.41,337.48c18.97,8.65,38.09,17.45,55.29,29.34-12.96-8.8-27.19-15.53-41.36-22.12-4.74-2.17-9.51-4.29-14.31-6.32l.38-.89h0Z"/>
                <path class="cls-15" d="M483.8,339.04c20.15,8.9,40.29,17.97,59.43,28.91-9.61-5.39-19.55-10.14-29.55-14.76-10.01-4.6-20.1-9.01-30.25-13.26l.38-.89h0Z"/>
                <path class="cls-15" d="M148.01,348.55c118.55-5.05,237.56-9.02,356.12-2.66,7.91,.42,15.8,1.02,23.71,1.52l-.07,.96c-7.89-.55-15.78-1.2-23.68-1.67-55.27-3.41-110.8-3.99-166.15-3.44-63.32,.78-126.63,3.03-189.87,6.26,0,0-.05-.97-.05-.97h0Z"/>
                <path class="cls-15" d="M142.6,344.92c117.48-5.03,235.27-8.98,352.77-2.59,7.83,.42,15.66,1.01,23.49,1.51l-.07,.96c-7.82-.55-15.63-1.19-23.46-1.67-54.74-3.41-109.75-4.03-164.59-3.48-62.73,.76-125.43,3.02-188.08,6.23,0,0-.05-.97-.05-.97h0Z"/>
                <path class="cls-15" d="M154.65,353.47c112.76-4.82,225.97-8.29,338.79-3.8,16.13,.63,32.24,1.58,48.35,2.69l-.07,.96c-16.09-1.21-32.18-2.28-48.3-3-80.58-3.57-161.39-2.52-241.98,.05-32.26,1.03-64.5,2.41-96.73,4.05l-.05-.97h0Z"/>
                <path class="cls-15" d="M161.77,358.78c122.93-5.18,246.37-8.95,369.31-2.68,7.39,.36,17.18,1.09,24.59,1.55,0,0-.07,.96-.07,.96-65.42-5.04-131.29-5.69-196.87-5.13-65.67,.75-131.32,2.91-196.91,6.26,0,0-.05-.97-.05-.97h0Z"/>
                <polygon class="cls-15" points="170.98 364.81 254.71 361.85 171.03 365.78 170.98 364.81 170.98 364.81"/>
                <path class="cls-15" d="M363.9,359.37c69.59-.83,139.26-.65,208.72,4.29,0,0-.07,.96-.07,.96-69.4-5.26-139.07-5.77-208.64-5.26h0Z"/>
              </g>
              <path class="cls-15" d="M124.29,372.14c-1.36-1.06-2.45-3.53-2.45-5.54l-.03-9.59c0-2.06,1.1-2.97,2.48-2.01s2.55,3.49,2.54,5.59l-.03,9.8c0,2.05-1.14,2.82-2.52,1.74Z"/>
              <path class="cls-15" d="M131.18,379.55c-1.45-1.15-2.61-3.74-2.6-5.79l.05-9.83c.01-2.11,1.2-3,2.69-1.95,1.5,1.06,2.72,3.69,2.7,5.85l-.11,10.06c-.02,2.1-1.25,2.84-2.73,1.67Z"/>
              <path class="cls-15" d="M139.1,387.22c-1.57-1.26-2.8-3.97-2.77-6.09l.14-10.13c.03-2.18,1.34-3.04,2.94-1.9,1.63,1.16,2.93,3.93,2.89,6.15l-.21,10.37c-.04,2.17-1.39,2.86-2.98,1.59Z"/>
              <ellipse class="cls-25" cx="112.68" cy="346.34" rx="4.52" ry="16.89" transform="translate(-18.81 6.69) rotate(-3.14)"/>
              <path class="cls-15" d="M253.58,33.61c-8.7-1.11-17.53,.56-25.97,2.97-5.54,1.58-11.23,3.62-15.19,7.81-3.96,4.19-5.59,11.1-2.23,15.79,4.35,6.08,13.87,4.68,20.32,4.04,10.83-1.08,21.66-2.21,32.48-3.39,2.64-.29,5.4-.62,7.57-2.16,5.84-4.13,5.69-13.31,.86-17.85-4.63-4.34-11.69-6.43-17.85-7.22Z"/>
              <path class="cls-15" d="M383.6,12.01c8.26,.65,16.11,3.93,23.47,7.82,4.83,2.56,9.71,5.57,12.58,10.27,2.87,4.69,3.08,11.49-.91,15.23-5.17,4.85-13.71,1.7-19.56-.16-9.82-3.11-19.63-6.27-29.42-9.48-2.39-.78-4.88-1.63-6.6-3.49-4.63-5-2.76-13.58,2.56-16.89s12.03-3.76,17.87-3.3Z"/>
              <path class="cls-15" d="M446.19,143c2.32-22.36-2.22-49.14-22.24-61.5-11.2-6.91-24.31-9.66-36.95-5.2-10.74,3.8-20.12,11.29-26.21,20.92-9.98,15.79-10.13,37.44-3.63,54.61,3.37,8.92,9.65,16.78,17.19,22.51,10.89,8.29,23.36,9.07,36.21,5.89,9.57-2.36,19.36-3.87,29.21-4.48-3.55-.82-7.21-1.17-10.85-1.03,11.69-6.18,15.98-19.2,17.28-31.72Zm-83.94,14.26c-11.16-21.55-8.46-51.35,11.24-67.12,11.68-9.35,29.49-13.45,43.47-7.23,13.61,6.05,23.24,20.62,26.93,34.91,1.27,4.9,1.89,10,1.87,15.11-.03,10.85-1.88,24.31-10.15,32.57-3.93,3.92-8.17,7-12.83,9.26-2.66,.54-5.3,1.15-7.94,1.78-3.58,.86-7.12,1.81-10.63,2.91-7.51,.52-15.14-.4-22-3.02-9.07-3.45-15.56-10.69-19.96-19.18Z"/>
              <path class="cls-15" d="M269.02,152.97c-12.23-3.38-24.46-6.76-36.7-10.13-13.82-3.81-28.07-7.14-42.62-4.61-11.16,1.94-19.4,5.91-28.44,12.68,18.58-6.63,39.04-5.1,58.45-2.04,19.4,3.06,38.79,7.58,58.49,6.64-3.06-.85-6.12-1.69-9.18-2.54Z"/>
              <path class="cls-26" d="M355.91,278.79c.22-.11,.45-.2,.68-.29-9.72,3.68-21.11,3.81-31.73,2.92-10.64-.9-22.15-2.45-31.36-7.03,2.39,1.19,4.29,3.28,6.72,4.57,2.66,1.42,5.48,2.4,8.44,3.36,6.03,1.97,12.22,2.99,18.76,3.15,4.75,.12,9.51-.14,14.25-.75,2.88-.37,5.56-1.14,8.11-2.22,2.21-.94,4.05-2.71,6.14-3.71Z"/>
              <path class="cls-15" d="M402.66,206.58c.9,.9,1.57,2.05,1.94,3.32-2.8,.97-5.09,2.72-8.01,3.4-3.13,.72-6.36,.65-9.53,.39-7.72-.62-15.48-.74-23.2-1.42-15.07-1.31-30.1-3.16-45.19-4.26-14.04-1.02-28.2-1.31-42.21-2.89-6.3-.71-12.5-2.14-18.63-3.81-5.04-1.36-10.71-2.04-15.33-4.72-2.58-1.49-4.86-3.69-7.04-5.78-.45-.44-.93-.92-1.05-1.57s.35-1.45,.95-1.34c-1.86-1.47-4.38-1.47-6.65-1.04-3.62,.68-7.09,2.29-10.06,4.66,2.75,.65,5.63-.11,8.43,.18,4.28,.45,8,3.27,11.4,6.14,9.68,8.14,14.85,20.9,22.1,31.45,5.82,8.47,12.39,16.45,20.19,22.79,8.16,6.63,18.04,10.33,27.98,12.48,10.85,2.36,21.99,3.01,33.05,2.24,10.4-.73,20.73-3.01,29.7-9.26,.56-.39,1.14-.82,1.41-1.48,.29-.7,.05-1.41-.48-1.85,1.22-2.08,1.87-4.92,2.88-7.19,1.24-2.77,2.53-5.51,3.88-8.22,2.7-5.42,5.61-10.72,8.68-15.9,.91-1.53,1.85-3.08,3.13-4.25,3.01-2.77,8.26-2.8,11.85-4.33,2.92-1.25,5.78-2.57,9.01-1.99,.96,.17,1.89,.51,2.78,.94,.5,.24,.99,.5,1.46,.79-3.44-4.17-8.32-6.88-13.44-7.48Zm-42.3,38.02c-5.95,.57-11.92,.81-17.88,.68-.17,0-.21,.31-.03,.34,5.97,.98,11.93,1.5,17.98,1.23,2.65-.12,5.46-.01,8.07-.59-.06,3.11-.33,6.24-.7,9.32-.04,.35-.09,.71-.26,1-.25,.41-.69,.61-1.11,.79-5.18,2.17-10.41,4.38-15.94,5.18-12.86,1.87-24.05,2.17-36.85-.37-11.66-2.31-21.18-5.07-30.56-13.25-1.74-1.52-3.41-3.14-4.99-4.85-1.3-1.4-3.53-3.24-3.99-5.27,11.47,3.15,23.33,4.68,35.17,4.52-3.6,.05-7.65-1.26-11.18-1.98-3.89-.79-7.75-1.71-11.57-2.83-3.8-1.11-7.55-2.43-11.2-4.01-3.23-1.4-7.53-2.78-9.71-5.85-1.67-2.36-3.31-4.75-4.93-7.16-4.01-5.95-7.97-11.95-11.86-18,11.06,3.13,22.7,5.37,34.15,6.12,16.31,1.07,31.87,1.1,48.16,2.51,8.88,.79,17.73,1.87,26.58,2.92,2.18,.26,24.92,3.46,25.1,2.69-1.69,7.12-4.02,14.07-6.89,20.73-.47,1.09-.97,2.21-1.79,3.03-2.9,2.92-10.09,2.75-13.75,3.1Z"/>
              <path class="cls-18" d="M278.98,146.69c-6.96-21.11-32.32-29.19-49.96-34.06-.26-.07-.35,.36-.1,.44,5.61,1.88,11.45,3.6,16.72,6.49,4.09,2.24,7.74,5.26,11.53,8.02,7.98,5.8,13.41,12.88,20.03,20.29,.76,.85,2.14-.08,1.77-1.19Z"/>
              <path class="cls-18" d="M244.15,167.4c2.26,.27,4.52,.51,6.78,.71,6.29,.54,13.18,.56,18.19-3.28-8.02,.99-16.02-1.35-23.97-2.75-20.87-3.7-42.79-.29-63.37,3.67,9.93-1.91,22.16-1.61,32.29-1.41,10.1,.2,20.07,1.87,30.09,3.06Z"/>
            </g>
            <path class="cls-37" d="M132.95,320.44c110.96-11.12,222.79-8.07,334.26-5,12.73,.35,26.03,.85,37.16,7.04,6.53,3.64,11.89,9.01,17.73,13.68,15.16,12.09,33.53,19.3,51.59,26.34,16.5,6.43,33,12.86,49.5,19.29,2.19,.85,4.54,1.84,5.72,3.87,7.92,13.54-37.81,14.02-42.85,14.63-22.43,2.73-44.93,4.85-67.46,6.6-43.22,3.36-86.54,5.28-129.84,7.2-40.27,1.79-80.58,3.58-120.9,2.76-20.62-.42-41.09-1.85-61.63-3.62-14.97-1.29-28.82,1.36-39.5-11.8-6.75-8.31-9.92-18.85-13.28-29.01-5.85-17.7-12.7-35.06-20.49-51.99Z"/>
          </g>
          <g>
            <path class="cls-26" d="M527,80.62c-.8-10.4-1.39-9.79-3.15-10.49-1.92-.77-7.44-2.68-19.24-4.85-4.95-.91-22.02-3.21-24.92-3.4-43.5-2.8-81.38-.83-115.81,6.02-6.34,1.26-13.03,2.8-19.15,6.51-4.84,2.93-8.41,6.88-10.63,11.75-2.76,6.05-3.12,12.66-3.35,19.09-.57-.12-1.13-.25-1.7-.36-1.59-.3-3.18-.56-4.79-.71-11.27-1.05-21.31-.29-26.31,1.94-.03-.29-.05-.58-.08-.87l-.02-.16c-.68-6.73-1.28-12.66-4.73-18.87-2.63-4.73-6.59-8.46-11.79-11.08-6.55-3.3-13.58-4.43-20.22-5.29-36.22-4.73-75.72-4.39-120.78,1.05-8.51,1.03-16.99,2.78-25.33,4.75-11.67,2.77-17.08,4.95-18.96,5.82-1.72,.79-2.34,.21-2.61,10.63-.26,10.01,.6,24.71,1.09,33.44,.29,5.03,14.72,3.31,15.29,11.04,.12,1.71,.25,3.42,.39,5.14,.83,11.89,2.48,23.73,4.97,35.45,1.5,7.08,3.52,15.24,8.53,22.39,5.35,7.64,14.13,12.15,26.09,13.41,22.81,2.39,43.57,3.35,62.9,2.86,21.63-.55,41.46-2.92,60.34-7.13,15.34-3.42,23.55-13.1,25.12-29.6,1.48-15.59,1.97-31.32,1.49-47.01,.08-.02,.17-.04,.25-.07,1.6-.41,3.18-.84,4.8-1.17,3.2-.64,6.46-1.05,9.71-1.2,5.48-.25,10.9,.34,16.22,1.58,.45,15.97,1.86,31.94,4.27,47.7,2.48,16.28,10.95,25.42,25.89,27.95,17.44,2.95,35.59,4.19,55.17,3.69,19.45-.49,40.3-2.7,63.23-6.63,11.46-1.97,18.46-8.35,23.14-16.32,4.34-7.39,6.96-14.26,7.96-21.38,1.89-13.4,2.32-26.9,2.61-40.37,.17-7.75,13.76-12.95,13.79-17.99,.05-8.75,1.08-17.28,.31-27.26Zm-243.48,97.07c-.97,10.19-4.54,14.52-13.67,16.56-34.16,7.63-71.83,8.9-118.53,4-7.65-.8-12.75-3.16-15.59-7.21-3.41-4.86-4.97-11.3-6.17-16.95-5.25-24.76-6.59-50.06-3.98-75.21,.79-7.64,2.64-9.78,5.77-11.05,3-1.22,6.49-1.71,10.74-2.23,19.04-2.3,37.04-3.66,54.17-4.1,22.31-.57,43.17,.44,62.96,3.03,5.39,.7,11.02,1.58,15.51,3.85,2.58,1.3,4.34,2.91,5.54,5.06,1.96,3.53,2.46,8.46,3.03,14.18l.02,.16c2.34,23.19,2.4,46.71,.19,69.91Zm221.31-11.91c-.33,1.86-.7,3.7-1.13,5.54-.84,3.64-1.99,7.44-4.76,9.96-1.72,1.56-3.91,2.48-6.05,3.37-5.28,2.2-10.48,4.02-16.13,4.99-44.37,7.61-80.46,8.55-113.58,2.94-8.8-1.49-12.48-5.64-14.03-15.85-3.52-23.06-4.87-46.57-4.03-69.88v-.16c.21-5.78,.39-10.77,2.09-14.48,1.02-2.23,2.6-3.94,4.98-5.39,4.12-2.5,9.43-3.69,14.51-4.7,19.97-3.97,41.19-6.24,64.14-6.82,9.65-.25,19.31-.19,28.96,.12,5.17,.17,10.34,.4,15.51,.71,4.15,.25,7.77,.78,10.06-3.55,.53-1,.88-2.16,1.78-2.84,.88-.67,2.07-.71,3.18-.73,4.03-.05,8.74,.23,11.01,3.56,.89,1.3,1.24,2.88,1.55,4.42,3.33,16.47,4.04,33.36,4.23,50.16,.15,12.91-.02,25.93-2.27,38.62Z"/>
            <path class="cls-13" d="M290.55,102.13c2.33,23.19,2.4,46.7,.19,69.9-.97,10.19-4.54,14.52-13.67,16.55-34.17,7.63-71.83,8.9-118.53,4-7.65-.8-12.76-3.16-15.59-7.2-3.41-4.86-4.97-11.3-6.17-16.95-5.25-24.76-6.59-50.06-3.98-75.21,.79-7.64,2.63-9.78,5.76-11.04,3.01-1.23,6.49-1.71,10.75-2.23,19.04-2.3,37.03-3.67,54.17-4.1,22.31-.57,43.17,.45,62.96,3.03,5.39,.7,11.03,1.58,15.51,3.84,2.58,1.31,4.34,2.92,5.53,5.07,1.96,3.53,2.46,8.47,3.03,14.18l.02,.16Z"/>
            <path class="cls-1" d="M279.66,109.94c.14-.22,.28-.44,.41-.66-.09-.99-.16-1.98-.26-2.97l-.02-.14c-.49-4.93-.92-9.19-2.62-12.24-1.03-1.86-2.55-3.25-4.77-4.38-8.1-4.09-17.24-3.55-26-4.33-7.08-.64-14.15-1.43-21.26-1.52-22.33-.28-44.7,1.11-66.87,3.79-3.65,.44-6.64,.86-9.21,1.91-2.07,.84-3.48,2.13-4.33,5.66,2.05-.55,4.35-.86,7.01-1.18,16.32-1.97,31.75-3.14,46.44-3.52,1-.03,1.98-.03,2.97-.05-5.32,7.35-10.75,14.62-15.81,22.16-6.95,10.36-13.62,20.9-20.04,31.6-5.5,9.16-10.81,18.44-15.98,27.79,.79,2.25,1.78,4.42,3.11,6.31,.8,1.14,1.82,2.1,3.04,2.93,2.82-5.09,5.65-10.18,8.52-15.24,6.25-11.03,12.65-21.99,19.23-32.83,6.38-10.5,12.87-20.94,19.9-31.02,2.73-3.91,5.49-7.81,8.17-11.76,14.26,.11,27.84,1.01,40.88,2.71,.47,.06,.93,.12,1.4,.19-.23,.35-.46,.7-.7,1.04-3.46,5.07-6.79,10.18-10.02,15.4-7.2,11.65-14.19,23.42-21,35.3-6.81,11.88-13.44,23.87-19.92,35.94-1.05,1.96-2.09,3.92-3.13,5.88,13.19,.42,25.52,.12,37.24-.89,.61-1.15,1.21-2.3,1.82-3.44,5.99-11.28,12.05-22.53,18.33-33.66,3.04-5.38,6.09-10.76,9.3-16.04,2.6-4.29,5.28-8.54,7.96-12.78,1.36,17.6,1.22,35.38-.45,52.94-.25,2.66-.72,4.85-1.46,6.67,5.11-2.09,7.31-5.87,7.99-13.06,1.78-18.74,1.81-37.73,.14-56.5Z"/>
            <path class="cls-13" d="M508.31,80.73c4.33,24.94,4.89,50.31,1.66,75.42-.74,5.75-1.78,12.31-4.71,17.45-2.41,4.22-7.07,6.91-14.25,8.24-44.28,8.15-80.35,9.53-113.54,4.33-8.82-1.38-12.54-5.49-14.22-15.68-3.8-23.01-5.44-46.5-4.89-69.82v-.16c.14-5.78,.26-10.78,1.91-14.5,.99-2.25,2.55-3.98,4.91-5.45,4.09-2.55,9.38-3.81,14.45-4.89,19.92-4.21,41.12-6.74,64.05-7.6,15.18-.57,31.13-.42,47.97,.46,4.08,.21,7.42,.46,10.33,1.45,3.01,1.02,5,3.11,6.33,10.75Z"/>
            <path class="cls-1" d="M495.66,99.47s.02-.04,.03-.06c-.41-3.67-.89-7.33-1.48-10.99-.47-2.9-1.06-4.9-1.78-6.32-.04,.09-.09,.19-.13,.28-.96-1.72-2.14-2.52-3.6-3.04-2.11-.75-4.49-1.05-7.26-1.27,.08-.17,.16-.33,.24-.5-.68-.05-1.37-.1-2.1-.15-10.53-.68-20.66-1.02-30.44-1.05-.11,.17-.21,.33-.32,.5-4.16-.01-8.27,.02-12.31,.13-20.55,.52-39.57,2.55-57.46,6.1-4.55,.91-9.31,1.98-13,4.22-2.13,1.29-3.54,2.82-4.46,4.83-.33,.73-.59,1.52-.81,2.36,3.67-2.19,8.37-3.24,12.86-4.15,17.89-3.56,36.9-5.58,57.46-6.1,4.29-.11,8.65-.14,13.08-.12-1.03,1.62-2.06,3.23-3.08,4.86-7.73,12.34-14.64,25.2-21.41,38.09-6.95,13.22-13.62,26.59-20.08,40.06-2.45,5.11-4.87,10.23-7.27,15.36,12.13,1.19,24.81,1.45,38.32,.79,5.88-13.07,11.84-26.11,17.94-39.08,6.17-13.11,12.4-26.2,19.1-39.05,3.41-6.54,6.88-13.06,10.17-19.67,2.01,.21,3.8,.53,5.44,1.11,1.98,.7,3.45,1.91,4.53,5.24-2.83,6-5.65,12-8.44,18.02-4.98,10.75-9.89,21.52-14.73,32.34-4.86,10.87-9.63,21.77-14.32,32.72-1.01,2.37-2.01,4.75-3.01,7.13,3.12-.31,6.31-.68,9.52-1.08,3.75-8.1,7.52-16.19,11.33-24.26,5.45-11.55,10.96-23.06,16.5-34.57,1.97-4.08,3.95-8.15,5.92-12.23,1.79,17.95,1.42,36.05-1.11,53.97-.57,3.98-1.3,8.4-2.85,12.31,1.64-1.09,2.92-2.42,3.84-3.99,2.68-4.56,3.68-10.44,4.41-15.57,2.68-18.98,2.93-38.16,.76-57.15Z"/>
            <path class="cls-15" d="M534.23,74.96c-.8-10.4-1.39-9.79-3.15-10.49-1.92-.77-7.44-2.68-19.24-4.85-4.95-.91-22.02-3.21-24.92-3.4-43.5-2.8-81.38-.83-115.81,6.02-6.34,1.26-13.03,2.8-19.15,6.51-4.84,2.93-8.41,6.88-10.63,11.75-2.76,6.05-3.12,12.66-3.35,19.09-.57-.12-1.13-.25-1.7-.36-1.59-.3-3.18-.56-4.79-.71-11.27-1.05-21.31-.29-26.31,1.94-.03-.29-.05-.58-.08-.87l-.02-.16c-.68-6.73-1.28-12.66-4.73-18.87-2.63-4.73-6.59-8.46-11.79-11.08-6.55-3.3-13.58-4.43-20.22-5.29-36.22-4.73-75.72-4.39-120.78,1.05-8.51,1.03-16.99,2.78-25.33,4.75-11.67,2.77-17.08,4.95-18.96,5.82-1.72,.79-2.34,.21-2.61,10.63-.26,10.01,.6,24.71,1.09,33.44,.29,5.03,14.72,3.31,15.29,11.04,.12,1.71,.25,3.42,.39,5.14,.83,11.89,2.48,23.73,4.97,35.45,1.5,7.08,3.52,15.24,8.53,22.39,5.35,7.64,14.13,12.15,26.09,13.41,22.81,2.39,43.57,3.35,62.9,2.86,21.63-.55,41.46-2.92,60.34-7.13,15.34-3.42,23.55-13.1,25.12-29.6,1.48-15.59,1.97-31.32,1.49-47.01,.08-.02,.17-.04,.25-.07,1.6-.41,3.18-.84,4.8-1.17,3.2-.64,6.46-1.05,9.71-1.2,5.48-.25,10.9,.34,16.22,1.58,.45,15.97,1.86,31.94,4.27,47.7,2.48,16.28,10.95,25.42,25.89,27.95,17.44,2.95,35.59,4.19,55.17,3.69,19.45-.49,40.3-2.7,63.23-6.63,11.46-1.97,19.64-7,24.32-14.97,4.34-7.39,5.78-15.61,6.78-22.73,1.89-13.4,2.32-26.9,2.61-40.37,.17-7.75,14.67-6.76,14.7-11.8,.05-8.75,.16-23.47-.61-33.45Zm-243.48,97.07c-.97,10.19-4.54,14.52-13.67,16.56-34.16,7.63-71.83,8.9-118.53,4-7.65-.8-12.75-3.16-15.59-7.21-3.41-4.86-4.97-11.3-6.17-16.95-5.25-24.76-6.59-50.06-3.98-75.21,.79-7.64,2.64-9.78,5.77-11.05,3-1.22,6.49-1.71,10.74-2.23,19.04-2.3,37.04-3.66,54.17-4.1,22.31-.57,43.17,.44,62.96,3.03,5.39,.7,11.02,1.58,15.51,3.85,2.58,1.3,4.34,2.91,5.54,5.06,1.96,3.53,2.46,8.46,3.03,14.18l.02,.16c2.34,23.19,2.4,46.71,.19,69.91Zm212.51-13.49c-.81,5.74-1.93,12.29-4.92,17.39-2.46,4.19-7.15,6.82-14.34,8.05-44.37,7.61-80.46,8.55-113.58,2.94-8.8-1.49-12.48-5.64-14.03-15.85-3.52-23.06-4.87-46.57-4.03-69.88v-.16c.21-5.78,.39-10.77,2.09-14.47h0c1.02-2.23,2.6-3.94,4.98-5.39,4.12-2.5,9.43-3.69,14.51-4.7,19.97-3.97,41.19-6.24,64.14-6.82,15.19-.39,31.14-.03,47.96,1.05,4.07,.26,7.41,.54,10.32,1.57,2.99,1.06,4.96,3.17,6.2,10.83,4.02,24.99,4.27,50.38,.73,75.44Z"/>
            <g>
              <path class="cls-39" d="M531.19,65.3c-.8-.56-1.79-.8-2.75-1-12.38-2.62-24.91-4.52-37.52-5.88-6.92-.75-14.26-1.11-21.09-1.38-6.83-.27-14.26-.49-20.75-.42-20.04,.2-40.11,1.35-59.93,4.4-10.91,1.68-22.38,2.57-32.42,7.58-5.19,2.59-8.48,5.86-11.41,10.84-3.1,5.28-3.62,10.39-4.89,16.19,1.18-5.36,2.4-12.28,6.14-16.53,3.54-4.02,8.91-6.93,14.04-8.23,53.92-13.66,110.84-15.17,165.41-4.4,5.79,1.14,7.95,7.05,8.26,12.64-.17-3.1-.51-6.19-.99-9.26-.25-1.6-.63-3.34-1.88-4.37-.07-.06-.14-.11-.22-.17Z"/>
              <path class="cls-39" d="M507.19,94c-.86-6.66-2.51-13.14-4.1-19.66-.09-.38-.65-.2-.57,.18,.57,2.99,1.15,5.97,1.39,9.01,.23,2.98,.68,5.96,1.08,8.92,.79,5.81,1.35,11.64,1.69,17.49,.61,10.39,.63,20.83-.08,31.22-.64,9.26-.95,18.86-3.72,27.81,4.14-13.16,5.78-25.22,6.15-38.97,.32-12.02-.29-24.08-1.84-36.01Z"/>
              <path class="cls-39" d="M295.54,134.06c.19-4.21-.33-8.5-.37-12.76-.04-5.07-.37-10.13-.97-15.17-.82-6.89-1.48-14.85-4.62-21.13-2.9-5.79-13.37-8.98-19.48-8.7-.1-.31,.36-.49,.68-.49,2.33-.06,4.66-.12,7-.17,2.6-.06,8.05,2.04,10.08,3.64,3.74,2.96,5.17,8.5,6.05,12.93,4.79,24.11,4.23,49.11,.21,73.36,.48-10.45,.94-21.06,1.42-31.5Z"/>
              <path class="cls-39" d="M488.02,185.44c-.88,.17-1.78,.13-2.66,.27-.61,.1-1.22,.19-1.83,.28-1.46,.22-2.92,.39-4.38,.61-2.91,.44-5.81,.96-8.72,1.38-5.7,.82-11.4,1.54-17.13,2.09-5.8,.55-11.63,.95-17.45,1.23-5.75,.28-11.51,.18-17.25,.57-3.28,.22-6.5,.17-9.78,0-3.26-.16-6.51-.17-9.77-.34-.13,0-.15,.21-.02,.22,2.8,.31,5.6,.72,8.42,.88,2.95,.16,5.92,.18,8.86,.48,2.97,.3,5.88,.56,8.88,.57,2.96,0,5.91-.02,8.87-.1,11.66-.3,23.31-1.39,34.83-3.22,3.16-.5,6.31-1.07,9.46-1.69,1.67-.33,3.32-.77,4.98-1.18,.75-.19,1.5-.38,2.25-.58,.91-.24,1.74-.65,2.65-.87,.4-.1,.21-.69-.19-.61Z"/>
              <path class="cls-39" d="M258.45,193.33c-9.84,1.55-19.72,2.36-29.67,2.6-4.94,.12-9.86,.46-14.8,.52-5.02,.06-10.03,.08-15.05-.05-5.61-.15-11.29-.78-16.89-.29-.76,.07-.93,1.17-.15,1.38,4.79,1.26,9.82,1.39,14.76,1.58,5.09,.2,10.2,.33,15.29,.21,5.02-.12,10.03-.36,15.04-.72,5-.37,10.02-1.17,14.98-1.93,5.53-.85,11.08-1.8,16.58-2.82,.27-.05,.19-.52-.08-.48Z"/>
              <path class="cls-39" d="M284.15,69.87c-5.55-2.18-11.59-2.92-17.45-3.86-5.88-.95-11.78-1.68-17.71-2.24-11.97-1.13-23.97-1.84-35.99-1.7-11.95,.13-23.97,.43-35.88,1.46-11.78,1.02-23.56,2.33-35.26,4.02-6.26,.91-12.45,2.09-18.54,3.84-2.96,.85-5.86,1.88-8.6,3.32-2.79,1.46-5.62,2.72-8.28,4.41-.17,.11-.01,.34,.16,.26,2.61-1.2,5.31-2.46,8.08-3.22,2.69-.74,5.4-1.4,8.09-2.11,5.38-1.42,10.88-2.35,16.38-3.2,11.55-1.77,23.2-3.03,34.83-4.07,11.79-1.06,23.56-2.13,35.4-2.35,11.75-.21,23.59-.2,35.32,.65,6.63,.48,13.24,1.21,19.83,2.12,6.53,.9,13.01,2.56,19.59,2.96,.18,.01,.18-.24,.03-.3Z"/>
            </g>
          </g>
          <g>
            <path class="cls-17" d="M181.56,291.85c.14-7.98-1.69-17.4-6.52-23.96-.14-.19-.3-.35-.47-.5,5.09-6.29,3.64-18.03,1.52-25.26-1.95-6.62-5.71-12.22-12.49-14.46-8.44-2.8-18.76-1.89-27.51-1.58-6.36,.23-15.98,.12-22.5,3.3-.3,0-.59-.01-.89,0,2.43-4.96,2.84-11.64,2.98-16.57,.22-7.71-1.39-15.56-5.2-22.31-6.54-11.58-20.07-20.12-33.64-17.55-13.42,2.54-23.93,14.64-22.22,28.52,.95,7.7,4.33,14.79,6.08,22.3,1.52,6.48,2.6,13.15,1.85,19.82-.68,6.04-4.05,10.98-5.34,16.8-.15,.69-.26,1.4-.59,2.03-.57,1.1-2.19,2.31-3.12,3.13-7.94,6.98-16.16,13.49-24.45,20.07-5.47,4.34-10.99,8.8-15.64,14.04-5.93,6.68-10.31,13.9-10.39,23.08-.07,8.46,3.28,16.81,9.07,22.95,11.43,12.13,28.68,12.48,44.14,10.41,.8-.11,1.41-.41,1.86-.82,9.52,7.57,21.68,11.2,32.68,4.84,.17-.1,.32-.21,.46-.33,.12,.06,.23,.13,.35,.19,6.48,3.18,13.48,4.92,20.65,5.62,19.56,1.91,37.31-3.56,52.54-15.96,6.69-5.45,12.48-10.87,14.04-19.68,.7-3.95,.84-8.04,.3-12.02-.53-3.86-1.57-6.68-3.89-9.74,.26-.21,.5-.43,.74-.65,4.09-3.89,5.53-9.99,5.63-15.69Z"/>
            <g>
              <g>
                <path class="cls-19" d="M172.2,243.19c-2.51-8.65-8.1-12.48-18.7-12.82,0,0-1.24-.04-1.25-.04-9.58-.31-19.22-.63-28.75,.53-3.44,.42-8.51,2.67-11.85,1.92-2.98-.67-2.36-4.01-2.07-6.53,.57-4.91,2.21-9.44,2.27-14.48,.1-8.45-2.13-16.19-6.46-22.39-7.9-11.31-23.76-18.06-36.62-9.78-6.94,4.47-10.94,11.43-10.7,18.6,.17,5.02,1.8,9.85,3.39,14.53,.93,2.77,1.9,5.62,2.54,8.46,1.69,7.53,2.3,14.29,1.86,20.66-.32,4.61-1.66,8.62-3.08,12.86-.78,2.33-1.59,4.75-2.21,7.27-1.65,6.69-.21,16.67-5.48,21.91-1.16,1.16-2.95,1.77-4.23,2.93-2.37,2.15-4.24,4.92-5.74,7.73-2.16,4.05-3.3,9.14-3.48,15.58-.26,9.3,1.85,18.98,5.94,27.27,4.03,8.17,11.34,15.09,19.79,18.54,4.08,1.66,8.4,2.41,12.78,1.95,1.91-.2,3.91-.21,5.81-.49,2.28-.34,4.24-1.65,6.62-1.38s4.62,1.68,6.86,2.41c5.64,1.84,11.56,2.72,17.48,2.94,.56,.02,1.13,.03,1.69,.03,2.48,0,4.97-.18,7.38-.36,1.49-.11,2.99-.22,4.48-.29,4.98-.23,8.58-.4,13.08-2.96,1.59-.91,3.21-1.78,4.83-2.65,3.11-1.68,6.33-3.41,9.33-5.37,3.93-2.56,7.13-5.49,10.53-8.6,1.08-.98,2.16-1.98,3.28-2.96,1.64-1.45,2.81-3.13,3.56-5.12,1.17-3.1,1.13-6.48,.95-9.38-.28-4.34-2.01-8.44-2.32-12.77,0-.03,0-.07,0-.1-.33-5.01,2.44-7.46,3.7-11.86,1.1-3.85,.9-7.98,.56-11.51-.33-3.45-.85-6.95-2.25-10.14-1.16-2.66-3.36-5.34-3.23-8.4,.18-3.99,1.06-7.76,1.12-11.74,.07-4.8-.03-9.34-1.38-14.01Z"/>
                <path class="cls-6" d="M172.2,243.19c-2.51-8.65-8.1-12.48-18.7-12.82,0,0-1.24-.04-1.25-.04-9.58-.31-19.22-.63-28.75,.53-3.44,.42-8.51,2.67-11.85,1.92-2.98-.67-2.36-4.01-2.07-6.53,.38-3.24,1.96-5.9,2.46-9,.64-4.04,.45-8.63-.07-12.68-.66-5.12-2.45-10.23-5.93-14.04,1.09,8.35,.31,17.62-5.31,23.88-2.58,2.87-5.98,4.89-8.7,7.63-2.57,2.59-4.5,5.83-5.56,9.32-.7,2.31-1.04,4.78-2.32,6.83-.95,1.53-2.41,2.81-2.89,4.55,2.85,.96,5.93-.23,8.7-1.4,9.14-3.87,17.67-7.69,27.48-9.48,9.59-1.75,19.33-2.7,29.08-2.81,4.63-.05,9.34,.1,13.72,1.61,4.37,1.51,8.41,4.59,10.06,8.91,2.59,6.77-1.49,14.63-7.47,18.72-5.99,4.09-13.42,5.31-20.59,6.42-5.54,.86-14.9,4.4-20.02,1.33-1.88-1.13-3.36-2.8-4.72-4.51,.48,4.24,.97,8.48,1.45,12.72,.13,1.12,.34,2.39,1.29,3.02,2.9-2.73,6.82-1.39,10.29-1.3,2.95,.07,5.04-.98,7.84-1.59,7.55-1.65,16.57-2.7,24.3-2.69,1.68,0,3.48,.15,4.77,1.21,1.81,1.48,1.98,4.14,2.02,6.48,.04,2.98,.08,5.95,.12,8.93,.06,4.47-.05,9.41-3.05,12.73-2.46,2.72-6.27,3.66-9.79,4.7-10.26,3.03-20.17,8.2-27.05,16.4,8.72-2.13,17.44-4.25,26.17-6.38,.83-.2,1.73-.4,2.52-.09,1.44,.56,1.81,2.4,1.96,3.94,.52,5.23,.94,10.9-1.87,15.34-2.34,3.7-6.5,5.81-10.63,7.24-4.2,1.45-8.93,2.35-13.01,.59-10.01-4.3-4.66-23.94-7.43-32.44-.8-2.46-2.05-4.74-3.09-7.11-2.54-5.81-3.8-12.18-3.66-18.53-1.57,5.18-1.74,10.78-.5,16.05,.87,3.68,2.41,7.2,3.07,10.92,1.22,6.92-.68,13.96-2.57,20.72-.31,1.09-.65,2.26-1.52,2.99-.86,.72-2.04,.86-3.16,.98-6.57,.68-13.2,1.31-19.78,.66-6.58-.65-13.17-2.68-18.32-6.81-5.23-4.19-8.62-10.24-11.29-16.39-3.11-7.15-5.4-14.62-7.68-22.08,.32,11.69,1.21,25.24,5.41,36.27,1.41,3.71,3.06,7.21-1.08,10.1-2.83,1.98-7.18,1.66-10.02-.09-4.17-2.58-6.41-7.31-8.42-11.79,.49,4.16,.91,7.39,2.77,11.15,4.03,8.17,11.34,15.09,19.79,18.54,4.08,1.66,8.4,2.41,12.78,1.95,1.91-.2,3.91-.21,5.81-.49,2.28-.34,4.24-1.65,6.62-1.38s4.62,1.68,6.86,2.41c5.64,1.84,11.56,2.72,17.48,2.94,.56,.02,1.13,.03,1.69,.03,2.48,0,4.97-.18,7.38-.36,1.49-.11,2.99-.22,4.48-.29,4.98-.23,8.58-.4,13.08-2.96,1.59-.91,3.21-1.78,4.83-2.65,3.11-1.68,6.33-3.41,9.33-5.37,3.93-2.56,7.13-5.49,10.53-8.6,1.08-.98,2.16-1.98,3.28-2.96,1.64-1.45,2.81-3.13,3.56-5.12,1.17-3.1,1.13-6.48,.95-9.38-.28-4.34-2.01-8.44-2.32-12.77,0-.03,0-.07,0-.1-.33-5.01,2.44-7.46,3.7-11.86,1.1-3.85,.9-7.98,.56-11.51-.33-3.45-.85-6.95-2.25-10.14-1.16-2.66-3.36-5.34-3.23-8.4,.18-3.99,1.06-7.76,1.12-11.74,.07-4.8-.03-9.34-1.38-14.01Z"/>
                <path class="cls-23" d="M43.58,334.75c-3.81-10.4-5.24-19.41-4.37-27.54l.1-.9-.87,.25c-5.63,1.62-11.42,2.72-17.26,3.3l15.81-5.65c.71-.25,1.59-.57,2.2-1.26,.54-.61,.78-1.38,1.01-2.16,2.43-8.06,7.94-15.21,15.1-19.64,.39-.24,.46-.28,.31-5.86v-.59c-.03-1.86,.04-3.7,.18-5.47l.14-1.76-1.2,1.29c-1.03,1.11-2.13,2.22-3.38,3.41-4.97,4.73-10.57,9.03-15.51,12.83-1.14,.88-2.3,1.75-3.45,2.63-4.92,3.73-10.01,7.59-14.55,11.97-4.74,4.57-8.16,9.34-10.18,14.16-2.85,6.81-2.26,12.13-.29,19,1.55,5.4,4.59,9.9,8.8,13,6.11,4.5,13.76,6.71,23.56,6.71,4.09,0,8.56-.38,13.44-1.15l1.15-.18-.8-.84c-4.45-4.67-7.99-10.19-9.95-15.55Z"/>
                <path class="cls-7" d="M43.58,334.75c-3.81-10.4-5.24-19.41-4.37-27.54l.1-.9-.87,.25c-5.63,1.62-11.42,2.72-17.26,3.3,3.82-.38,8.33-2.98,11.94-4.27,7.2-2.58,7.18-4.45,10.32-11.23-8.96,5.17-17.91,10.33-26.87,15.5,4.78,.87,9.57,1.74,14.35,2.61,.91,.17,1.86,.35,2.56,.96,.98,.86,1.17,2.29,1.29,3.58,.42,4.42,.83,8.92-.11,13.26-.95,4.34-3.5,8.56-7.54,10.39-4,1.82-8.65,1.03-12.97,.21,2.46,10,17.27,11.61,25.59,11.61,4.09,0,8.56-.38,13.44-1.15l1.15-.18-.8-.84c-4.45-4.67-7.99-10.19-9.95-15.55Z"/>
              </g>
              <path class="cls-15" d="M175.93,307.54c4.09-3.89,5.53-9.99,5.63-15.69,.14-7.98-1.69-17.4-6.52-23.96-.14-.19-.3-.35-.47-.5,5.09-6.29,3.64-18.03,1.52-25.26-1.95-6.62-5.71-12.22-12.49-14.46-8.44-2.8-18.76-1.89-27.51-1.58-6.36,.23-15.98,.12-22.5,3.3-.3,0-.59-.01-.89,0,2.43-4.96,2.84-11.64,2.98-16.57,.22-7.71-1.39-15.56-5.2-22.31-6.54-11.58-20.07-20.12-33.64-17.55-13.42,2.54-23.93,14.64-22.22,28.52,.95,7.7,4.33,14.79,6.08,22.3,1.52,6.48,2.6,13.15,1.85,19.82-.68,6.04-4.05,10.98-5.34,16.8-.15,.69-.26,1.4-.59,2.03-.57,1.1-2.19,2.31-3.12,3.13-7.94,6.98-16.16,13.49-24.45,20.07-5.47,4.34-10.99,8.8-15.64,14.04-5.93,6.68-10.31,13.9-10.39,23.08-.07,8.46,3.28,16.81,9.07,22.95,11.43,12.13,28.68,12.48,44.14,10.41,.8-.11,1.41-.41,1.86-.82,9.52,7.57,21.68,11.2,32.68,4.84,.17-.1,.32-.21,.46-.33,.12,.06,.23,.13,.35,.19,6.48,3.18,13.48,4.92,20.64,5.62,19.56,1.91,37.31-3.56,52.54-15.96,6.69-5.45,12.48-10.87,14.04-19.68,.7-3.95,.84-8.04,.3-12.02-.53-3.86-1.57-6.68-3.89-9.74,.26-.21,.5-.43,.74-.65ZM16.54,345.27c-4.23-3.12-7.13-7.66-8.57-12.68-1.97-6.85-2.53-11.92,.26-18.6,2.21-5.29,5.94-10,10.04-13.96,5.56-5.36,11.83-9.85,17.94-14.55,5.33-4.1,10.68-8.23,15.56-12.87,1.17-1.11,2.31-2.26,3.41-3.44-.15,1.86-.21,3.71-.2,5.52,0,.47,.18,5.81-.01,5.93-7.31,4.51-12.88,11.76-15.36,19.98-.21,.68-.41,1.4-.88,1.93-.5,.56-1.25,.84-1.96,1.09-6.68,2.39-13.37,4.78-20.05,7.17,7.4-.38,14.76-1.61,21.88-3.65-1,9.44,1.17,18.99,4.41,27.82,1.99,5.44,5.55,11.01,10.08,15.76-12.23,1.91-26.2,2.18-36.54-5.45Zm157.95-12.38c-.67,1.79-1.74,3.42-3.39,4.88-4.56,4.02-8.59,8.14-13.74,11.5-4.52,2.95-9.44,5.34-14.13,8.01-4.36,2.48-7.88,2.65-12.81,2.88-4.5,.21-8.99,.79-13.5,.62-7.81-.29-15.74-1.75-22.85-5.1-11.55-5.43-19.88-16.02-25.4-27.21,2.43,5.04,3.46,10.47,6.28,15.37,1.35,2.35,2.87,4.6,4.61,6.68,.58,.69,4.77,5.78,5.6,5.44-14.22,5.89-30.85-6.25-37.05-18.82-4.07-8.24-6.13-17.82-5.88-26.99,.14-5.21,.92-10.66,3.41-15.31,1.82-3.41,5.61-8.96,9.84-10.14-1.99,.56,5.67,21.75,6.42,23.48-2.22-15.15-4.48-30.95-.75-46.06,1.71-6.95,4.8-12.91,5.31-20.23,.48-6.98-.34-14.02-1.87-20.83-1.71-7.63-5.64-14.98-5.91-22.87-.26-7.49,4.29-14.12,10.42-18.07,12.44-8.01,27.91-1.67,35.79,9.62,4.5,6.45,6.44,14.22,6.35,22.03-.05,4.45-.77,8.86-1.99,13.14-.78,2.74-1.13,5.02-3.73,6.55-3.65,2.15-7.96,3.49-11.79,5.35-2.02,.98-4.02,1.99-6,3.04-1.29,.68-3.74,2.74-5.16,2.83,3.78-.23,7.5-1.09,11.1-2.25,5.1-1.65,9.98-3.93,15.05-5.66,14.38-4.91,29.76-4.26,44.75-3.78,9.11,.29,15.46,3.16,18.14,12.38,1.26,4.34,1.72,8.96,1.38,13.47-.18,2.49-.3,5.32-1.35,7.59-.09,.19-.18,.38-.33,.52-.18,.16-.43,.22-.66,.28-5.1,1.21-10.36,1.39-15.55,2.12-5.43,.76-11.02,1.95-16.3,2.77-5.31,.83-10.23,.83-15.6,.61,1.17,.87,2.44,1.6,3.71,2.32,1.07,.61,2.14,1.22,3.32,1.59,2.99,.93,6.61,.22,9.66-.03,3.29-.27,6.58-1.43,9.81-2.08,5.25-1.07,10.5-2.18,15.86-2.53,4.17-.28,7.38,3.14,9.17,6.75,1.66,3.35,2.24,7.11,2.6,10.83,.36,3.77,.5,7.64-.54,11.29-1.6,5.6-6.52,7.37-11.59,9.25s-10.06,3.03-15.2,4.14c-7.37,1.58-13.59,3.36-18.19,9.72,11.85-6.19,26.21-5.85,38.27-11.63,.5-.24,1.08-.49,1.57-.23,.29,.15,.46,.45,.62,.74,2.13,3.94,2.84,8.49,3.12,12.95,.21,3.3,.12,6.39-.91,9.13Z"/>
            </g>
          </g>
        </g>
      </g>
    </g>
  </g>
</svg>