<?xml version="1.0" encoding="UTF-8"?>
<svg id="Calque_2" data-name="Calque 2" xmlns="http://www.w3.org/2000/svg" xmlns:xlink="http://www.w3.org/1999/xlink" viewBox="0 0 711.07 445.45">
  <defs>
    <style>
      .cls-1, .cls-2, .cls-3, .cls-4, .cls-5 {
        fill: #fff;
      }

      .cls-6 {
        fill: #13678c;
      }

      .cls-7, .cls-8, .cls-9, .cls-10 {
        fill: #0d1c49;
      }

      .cls-11, .cls-12 {
        fill: #898989;
      }

      .cls-13 {
        fill: #606060;
      }

      .cls-8 {
        opacity: .26;
      }

      .cls-8, .cls-14, .cls-2, .cls-15, .cls-4, .cls-16, .cls-12, .cls-17, .cls-18, .cls-9, .cls-19, .cls-5, .cls-20, .cls-21, .cls-22, .cls-23, .cls-24, .cls-25, .cls-26, .cls-27, .cls-28, .cls-29, .cls-30, .cls-31, .cls-32, .cls-33, .cls-34, .cls-35, .cls-10, .cls-36 {
        isolation: isolate;
      }

      .cls-14 {
        fill: #3bd1ff;
      }

      .cls-14, .cls-23, .cls-24, .cls-31, .cls-32, .cls-33, .cls-34 {
        opacity: .3;
      }

      .cls-2 {
        opacity: .16;
      }

      .cls-3 {
        stroke-linejoin: round;
        stroke-width: 6.77px;
      }

      .cls-3, .cls-37 {
        stroke: #0d1c49;
      }

      .cls-15 {
        fill: #ff8f8f;
        opacity: .91;
      }

      .cls-4 {
        opacity: .5;
      }

      .cls-16 {
        fill: #b7b7b7;
      }

      .cls-16, .cls-12, .cls-17, .cls-18, .cls-25, .cls-26, .cls-27, .cls-28, .cls-29, .cls-30 {
        opacity: .35;
      }

      .cls-17, .cls-20 {
        fill: #cae8ff;
      }

      .cls-18 {
        fill: #e26d6d;
      }

      .cls-9 {
        opacity: .61;
      }

      .cls-19 {
        fill: #6effd8;
      }

      .cls-19, .cls-22, .cls-36 {
        opacity: .59;
      }

      .cls-5 {
        opacity: .45;
      }

      .cls-20 {
        opacity: .25;
      }

      .cls-21 {
        fill: url(#Dégradé_sans_nom_21);
      }

      .cls-21, .cls-35 {
        opacity: .7;
      }

      .cls-22 {
        fill: url(#Dégradé_sans_nom_20);
      }

      .cls-23 {
        fill: url(#Dégradé_sans_nom_19);
      }

      .cls-24 {
        fill: url(#Dégradé_sans_nom_10);
      }

      .cls-37 {
        fill: none;
        stroke-miterlimit: 10;
        stroke-width: 2.01px;
      }

      .cls-38 {
        fill: url(#Dégradé_sans_nom_8);
      }

      .cls-39 {
        fill: url(#Dégradé_sans_nom_3);
      }

      .cls-40 {
        fill: url(#Dégradé_sans_nom_2);
      }

      .cls-41 {
        fill: url(#Dégradé_sans_nom_5);
      }

      .cls-25 {
        fill: url(#Dégradé_sans_nom_21-3);
      }

      .cls-26 {
        fill: url(#Dégradé_sans_nom_19-4);
      }

      .cls-27 {
        fill: url(#Dégradé_sans_nom_19-6);
      }

      .cls-28 {
        fill: url(#Dégradé_sans_nom_19-3);
      }

      .cls-29 {
        fill: url(#Dégradé_sans_nom_19-2);
      }

      .cls-30 {
        fill: url(#Dégradé_sans_nom_19-5);
      }

      .cls-31 {
        fill: url(#Dégradé_sans_nom_10-2);
      }

      .cls-32 {
        fill: url(#Dégradé_sans_nom_19-7);
      }

      .cls-33 {
        fill: url(#Dégradé_sans_nom_19-9);
      }

      .cls-34 {
        fill: url(#Dégradé_sans_nom_19-8);
      }

      .cls-35 {
        fill: url(#Dégradé_sans_nom_21-2);
      }

      .cls-10 {
        opacity: .1;
      }

      .cls-36 {
        fill: url(#Dégradé_sans_nom_4);
      }

      .cls-42 {
        fill: url(#Dégradé_sans_nom_2-2);
      }
    </style>
    <linearGradient id="Dégradé_sans_nom_2" data-name="Dégradé sans nom 2" x1="-65.73" y1="356.64" x2="-64.99" y2="444.26" gradientTransform="translate(-196.13 232.69) rotate(88.25) scale(1 -1)" gradientUnits="userSpaceOnUse">
      <stop offset="0" stop-color="#540d8c"/>
      <stop offset=".18" stop-color="#51269c"/>
      <stop offset=".56" stop-color="#4b68c8"/>
      <stop offset="1" stop-color="#43bcff"/>
    </linearGradient>
    <linearGradient id="Dégradé_sans_nom_2-2" data-name="Dégradé sans nom 2" x1="96.29" y1="380.38" x2="97" y2="465" gradientTransform="translate(218.82 566.91) rotate(7.8) scale(1 -1)" xlink:href="#Dégradé_sans_nom_2"/>
    <linearGradient id="Dégradé_sans_nom_3" data-name="Dégradé sans nom 3" x1="308.85" y1="283.14" x2="-49.23" y2="18.05" gradientTransform="translate(-1.98 443.24) rotate(.18) scale(1 -1)" gradientUnits="userSpaceOnUse">
      <stop offset="0" stop-color="#caf0ff"/>
      <stop offset="1" stop-color="#17c8ff"/>
    </linearGradient>
    <linearGradient id="Dégradé_sans_nom_4" data-name="Dégradé sans nom 4" x1="233.93" y1="161.9" x2="354.76" y2="548.96" gradientTransform="translate(-1.98 443.24) rotate(.18) scale(1 -1)" gradientUnits="userSpaceOnUse">
      <stop offset="0" stop-color="#6effd8" stop-opacity="0"/>
      <stop offset="1" stop-color="#6effd8"/>
    </linearGradient>
    <linearGradient id="Dégradé_sans_nom_5" data-name="Dégradé sans nom 5" x1="-46.83" y1="15.25" x2="316.94" y2="205.42" gradientTransform="translate(-1.98 443.24) rotate(.18) scale(1 -1)" gradientUnits="userSpaceOnUse">
      <stop offset="0" stop-color="#aaa"/>
      <stop offset=".61" stop-color="#c3c3c3"/>
      <stop offset="1" stop-color="#d6d6d6"/>
    </linearGradient>
    <linearGradient id="Dégradé_sans_nom_21" data-name="Dégradé sans nom 21" x1="468.71" y1="325.25" x2="397.88" y2="274.18" gradientTransform="translate(1.12 438.15) rotate(-.15) scale(1 -1)" gradientUnits="userSpaceOnUse">
      <stop offset="0" stop-color="#fff"/>
      <stop offset=".13" stop-color="#fff" stop-opacity=".9"/>
      <stop offset=".4" stop-color="#fff" stop-opacity=".64"/>
      <stop offset=".79" stop-color="#fff" stop-opacity=".23"/>
      <stop offset="1" stop-color="#fff" stop-opacity="0"/>
    </linearGradient>
    <linearGradient id="Dégradé_sans_nom_19" data-name="Dégradé sans nom 19" x1="69.5" y1="64.47" x2="146.87" y2="103.32" gradientTransform="translate(1.12 438.15) rotate(-.15) scale(1 -1)" gradientUnits="userSpaceOnUse">
      <stop offset="0" stop-color="#686868"/>
      <stop offset=".33" stop-color="#818181"/>
      <stop offset="1" stop-color="#c1c1c1"/>
    </linearGradient>
    <linearGradient id="Dégradé_sans_nom_8" data-name="Dégradé sans nom 8" x1="26.19" y1="-230.01" x2="382.38" y2="303.35" gradientTransform="translate(1.12 438.15) rotate(-.15) scale(1 -1)" gradientUnits="userSpaceOnUse">
      <stop offset=".34" stop-color="#7a7a7a"/>
      <stop offset=".55" stop-color="#939393"/>
      <stop offset=".99" stop-color="#d5d5d5"/>
      <stop offset="1" stop-color="#d6d6d6"/>
    </linearGradient>
    <linearGradient id="Dégradé_sans_nom_10" data-name="Dégradé sans nom 10" x1="235.84" y1="370.9" x2="212.18" y2="258.43" gradientTransform="translate(0 448.01) scale(1 -1)" gradientUnits="userSpaceOnUse">
      <stop offset="0" stop-color="#17c8ff"/>
      <stop offset=".07" stop-color="#17c8ff" stop-opacity=".94"/>
      <stop offset=".41" stop-color="#17c8ff" stop-opacity=".62"/>
      <stop offset=".69" stop-color="#17c8ff" stop-opacity=".39"/>
      <stop offset=".89" stop-color="#17c8ff" stop-opacity=".25"/>
      <stop offset="1" stop-color="#17c8ff" stop-opacity=".2"/>
    </linearGradient>
    <linearGradient id="Dégradé_sans_nom_10-2" data-name="Dégradé sans nom 10" x1="402.87" y1="370.01" x2="378.52" y2="254.25" xlink:href="#Dégradé_sans_nom_10"/>
    <linearGradient id="Dégradé_sans_nom_19-2" data-name="Dégradé sans nom 19" x1="163.24" y1="25.48" x2="213.95" y2="98.5" xlink:href="#Dégradé_sans_nom_19"/>
    <linearGradient id="Dégradé_sans_nom_19-3" data-name="Dégradé sans nom 19" x1="202.35" y1="-17.73" x2="283.21" y2="85.24" xlink:href="#Dégradé_sans_nom_19"/>
    <linearGradient id="Dégradé_sans_nom_19-4" data-name="Dégradé sans nom 19" x1="344.92" y1="3.31" x2="395" y2="80.9" xlink:href="#Dégradé_sans_nom_19"/>
    <linearGradient id="Dégradé_sans_nom_19-5" data-name="Dégradé sans nom 19" x1="305.96" y1="11.26" x2="366.6" y2="101.43" xlink:href="#Dégradé_sans_nom_19"/>
    <linearGradient id="Dégradé_sans_nom_19-6" data-name="Dégradé sans nom 19" x1="140.13" y1="43.02" x2="194.75" y2="144.68" xlink:href="#Dégradé_sans_nom_19"/>
    <linearGradient id="Dégradé_sans_nom_21-2" data-name="Dégradé sans nom 21" x1="503.57" y1="171.19" x2="410.58" y2="45" xlink:href="#Dégradé_sans_nom_21"/>
    <linearGradient id="Dégradé_sans_nom_19-7" data-name="Dégradé sans nom 19" x1="113.51" y1="-103.37" x2="412.96" y2="91.5" xlink:href="#Dégradé_sans_nom_19"/>
    <linearGradient id="Dégradé_sans_nom_19-8" data-name="Dégradé sans nom 19" x1="194.5" y1="310.23" x2="196.48" y2="436.36" xlink:href="#Dégradé_sans_nom_19"/>
    <linearGradient id="Dégradé_sans_nom_19-9" data-name="Dégradé sans nom 19" x1="338.12" y1="363.65" x2="390.28" y2="428.25" xlink:href="#Dégradé_sans_nom_19"/>
    <radialGradient id="Dégradé_sans_nom_20" data-name="Dégradé sans nom 20" cx="360.37" cy="189.1" fx="360.37" fy="189.1" r="170.49" gradientTransform="translate(1.12 438.15) rotate(-.15) scale(1 -1)" gradientUnits="userSpaceOnUse">
      <stop offset="0" stop-color="#6effd8"/>
      <stop offset="1" stop-color="#6effd8" stop-opacity="0"/>
    </radialGradient>
    <linearGradient id="Dégradé_sans_nom_21-3" data-name="Dégradé sans nom 21" x1="41.99" y1="167.01" x2="68.24" y2="167.01" gradientTransform="translate(-1.98 443.24) rotate(.18) scale(1 -1)" xlink:href="#Dégradé_sans_nom_21"/>
  </defs>
  <g id="Calque_1-2" data-name="Calque 1">
    <g id="Calque_2-2" data-name="Calque 2">
      <g id="Layer_1" data-name="Layer 1">
        <g>
          <g>
            <path class="cls-3" d="m705.24,233.36c-2.13-2.81-5.14-4.37-8.73-4.55-4.6-.24-9.29,1.04-13.82,1.61-5.26.66-10.56,1.29-15.87,1.44-5.82.17-11.79,1.75-17.55.57-2.86-.59-5.89-.2-8.77,0-3.63.26-7.37.75-10.9,1.23-2.19.3-4.39.37-6.6.37-2.35,0-4.7.24-7.06.31-4.61.14-9.08,1.01-13.65,1.39-2.57.21-5.1.52-7.63,1.02-2.29.45-4.54,1.04-6.82,1.5-.18.04-.36.07-.53,0-.17-.06-.29-.2-.4-.34-2.73-3.21-6.72-5.5-11-5.87-4.28-.38-8.79,1.29-11.42,4.58-2.29,2.87-3.03,6.62-3.3,10.23-.8.33-1.63.18-2.47.19-12.13.16-24.32-.24-36.47-.81-11.5-.54-22.97-1.64-34.48-2.08-5.33-.2-10.78-.27-15.97,1.12-2.81.75-4.15,1.49-5.43,4.18-.98,2.06-1.41,4.36-1.07,6.63.58,3.83,3.25,7.08,6.37,9.34,3.73,2.71,8.37,3.99,12.85,5,5.16,1.16,10.39,2.12,15.63,2.92,10.45,1.59,20.97,2.75,31.51,3.48,5.84.4,11.68.66,17.53.79,3.2.07,6.41.13,9.61.08-.98,4.68.62,9.78,4.1,13.16,1.59,1.54,3.56,2.29,5.74,2.74,4.34.88,8.38-.46,12.11-2.59.38-.22.76-.45,1.12-.69.45.48,1.01.9,1.5,1.32,2.89,2.52,5.05,6.02,7.59,8.9,2.84,3.23,5.83,6.33,8.97,9.29,2.97,2.8,5.78,3.95,9.89,4.01,5.25.08,10.52-.29,15.74.19,4.67.43,9.28,1.53,13.61,3.27,2.99,1.19,5.87,2.69,9.02,3.41,3.75.85,7.25.3,10.06-2.24,2.8-2.53,4.57-5.8,5.03-9.5.64-5.11-1.49-10.31-4.87-14.19-.03-.03-.06-.06-.09-.09,3.54-2.1,6.65-4.97,9.07-8.23,2.61-3.52,3.66-6.95,3.13-11.29-.23-1.89-.73-3.73-1.18-5.58-.84-3.47-2.14-6.78-3.18-10.19,1.73.2,3.79-.07,5.58-.07,2.36,0,4.72-.12,7.07-.38,7.91-.89,16.12-3.15,22.49-7.97,2.81-2.13,5.25-5.06,6.11-8.47.79-3.12-.24-6.58-2.16-9.12v-.03Z"/>
            <path class="cls-3" d="m258.46,287.15c-1.01-3.53-3.63-6.15-7-7.52-3.94-1.6-8.32-1.34-12.4-.53-4.72.92-9.34,2.2-14.08,2.98-5.27.87-10.56,1.5-15.9,1.87-5.04.35-9.96.15-14.96.4-4.8.24-9.51,1.35-14.33,1.44-7.19.12-14.43,1.36-21.59,2.23-1.94.24-22.21,2.09-22.25,2.71-1.82-4.25-5.98-7.41-10.56-8.03-8.41-1.13-13.32,5.18-16.66,11.77-1.12-.28-2.24-.15-3.39-.13-1.2.03-2.41.03-3.61.02-2.41-.02-4.82-.12-7.22-.28-4.89-.34-9.77-.88-14.59-1.75-4.41-.79-8.9-1.78-13.2-3.1.12.05,7.01-11.67,7.52-12.85,1.35-3.13,1.51-6.68.06-9.79-2.91-6.28-9.87-7.73-15.85-4.84-2.72,1.32-5.05,3.32-7.26,5.39-4.21,3.94-8.15,8.23-11.21,13.12-5.26,8.43-8.12,18.84-1.94,27.56,2.22,3.13,5.28,5.58,8.62,7.42,7.62,4.22,16.52,6.13,24.97,7.89,5.66,1.18,11.37,2.08,17.11,2.73,5.52.63,11.25,1.35,16.83,1.19,1.14,4.86,3.24,9.49,7.2,12.44,3.41,2.54,7.74,3.04,11.65,1.41,1.83-.76,3.46-1.97,4.9-3.32.27-.26.54-.52.8-.79.91,1.35,1.97,2.61,3.21,3.72,5.83,5.23,15.2,6.84,22.79,6.25,4.49-.35,8.41-2.47,12.8-3.09-.49,1.12-.98,2.24-1.26,3.44-.54,2.36.06,5.12.83,7.38,1,2.91,3.25,5.63,6.17,6.8,1.89.76,3.96.96,5.99,1.03,5.87.2,14.66-.19,19.92-3.03,4.73-2.56,7.05-7.55,8.35-12.74.19-.75,0-2.55.35-3.14.55-.94,2.27-1.53,3.17-2.15,3.73-2.55,8.71-6.3,9.86-10.88,1.15-4.56-.7-9.49-3.26-13.24-1.18-1.73-2.48-3.38-3.54-5.19-.3-.51-1.85-3.7-2.41-3.81,8.38,1.66,17.07,1.96,25.5.58,7.38-1.21,15.41-4.27,18.82-11.46,1.45-3.07,2.01-6.8,1.06-10.09v-.02Zm-194.84,1.05h0Z"/>
            <path class="cls-3" d="m614.48,393.91c-.42-.53-.95-.98-1.55-1.28-.35-.17-.51-.23-.71-.31l-.58-.24c-3.11-1.26-6.21-2.56-9.33-3.79-12.47-4.97-25.04-9.67-37.68-14.17-12.63-4.52-25.28-8.94-37.95-13.31l-18.97-6.61c-4.29-1.51-17.58-5.96-17.58-5.96,4.81-98.16,1.04-220.96-12.6-319.62C350.61,11.37,181.81,13.96,21.11,41.06L3.38,64.28c15.72,53.84,58.42,208.89,78.65,318.9-.26,0,.33.4.5.59l.48.49,1.69,1.68c9,8.96,17.94,17.98,26.75,27.1,4.41,4.56,8.78,9.15,13.08,13.8,4.27,4.65,8.58,9.35,12.34,14.2v.02l.82,1.01,1.23-.05c53.53-2.14,107.07-3.78,160.62-4.8,26.78-.54,53.55-.79,80.33-.95,26.78-.06,53.56-.04,80.33.29,26.77.37,53.55.84,80.31,1.74,6.69.18,13.38.45,20.07.69,6.69.26,13.38.46,20.06.79l20.06.9,1.25.06h.31l.16.02h.29c.39,0,.78-.05,1.16-.13,1.54-.34,2.89-1.38,3.61-2.78.18-.35.32-.72.42-1.09l.07-.28.03-.16.06-.31.25-1.23.5-2.46c.65-3.29,1.29-6.57,1.88-9.87,1.23-6.59,2.39-13.19,3.69-19.76l1-4.94c.27-1.33-.08-2.77-.92-3.83h.02ZM70.74,55.3c-.02-.07-.03-.15-.05-.23h0c.02.07.03.15.05.22h0Z"/>
            <path class="cls-3" d="m523.95,88.8c-.64-10.41-1.24-9.81-2.99-10.54-1.92-.8-7.44-2.8-19.27-5.15-4.97-.99-22.1-3.56-25.02-3.8-43.72-3.5-81.86-2.14-116.61,4.15-6.4,1.16-13.16,2.59-19.37,6.2-4.91,2.85-8.58,6.75-10.89,11.57-2.88,6-3.34,12.6-3.69,19.03-.57-.13-1.13-.27-1.7-.38-1.59-.33-3.19-.61-4.81-.79-11.32-1.23-21.44-.63-26.5,1.52-.02-.29-.04-.58-.07-.88v-.16c-.59-6.74-1.1-12.68-4.46-18.94-2.56-4.77-6.49-8.57-11.68-11.27-6.53-3.41-13.59-4.65-20.25-5.62-36.36-5.31-76.11-5.61-121.53-.89-8.58.89-17.14,2.5-25.56,4.34-11.79,2.58-17.27,4.68-19.17,5.51-1.74.76-2.35.17-2.8,10.59-.43,10,.2,24.72.56,33.45.21,5.04,14.76,3.54,15.2,11.28.1,1.71.2,3.43.31,5.15.64,11.9,2.11,23.76,4.42,35.52,1.4,7.11,3.3,15.29,8.22,22.52,5.26,7.73,14.02,12.38,26.03,13.83,22.91,2.76,43.78,4.05,63.23,3.87,21.77-.2,41.76-2.25,60.83-6.16,15.48-3.18,23.91-12.72,25.76-29.19,1.75-15.57,2.5-31.29,2.26-46.98.09-.02.17-.04.26-.06,1.61-.38,3.22-.79,4.85-1.09,3.22-.59,6.51-.95,9.79-1.04,5.52-.16,10.96.52,16.29,1.84.19,15.98,1.35,31.96,3.51,47.76,2.23,16.32,10.6,25.6,25.59,28.37,17.5,3.23,35.74,4.76,55.44,4.58,19.57-.18,40.59-2.05,63.72-5.61,11.56-1.78,19.87-6.68,24.71-14.57,4.49-7.32,6.07-15.51,7.19-22.62,2.12-13.37,2.77-26.86,3.29-40.33.3-7.74,14.87-6.52,14.99-11.56.2-8.74.55-23.46-.06-33.46h-.02Zm-39.14,100.27c-.62.81-1.26,1.63-1.91,2.49-1.85-35.89-3.69-71.79-5.54-107.68,2.49,1.4,5.62,1.11,8.22,2.3,3.41,1.56,4.22,5.9,4.79,9.23,3.14,18.55,4.18,37.46,3.08,56.24-.67,11.48-1.41,27.88-8.64,37.42h0Z"/>
          </g>
          <g>
            <g>
              <g>
                <path class="cls-11" d="m567.84,274.81l.08-.5c.45-2.87.84-5.87,1.19-9.17.38-3.57.59-6.92.64-10.24.02-1.44,0-2.83-.04-4.5v-.56l-.59.06c-2.04.2-4.16.22-6.21.25l-1.5.02c-2.87.04-50.67-.82-55.89-1.62-2.3-.35-5.02-.78-7.75-1.32-2.39-.47-4.86-.96-7.09-2.03l-.24-.1h-.17c-.14,0-.29,0-.43-.02-.63-.04-1.25-.11-1.87-.19-.65-.08-1.3-.15-1.95-.19-2.77-.17-5.31,0-7.57.52-4.46,1.01-8.07,1.54-9.92,5.17-1.71,3.37-1.21,7.27,1.36,10.41,2.87,3.52,7.57,4.94,10.85,5.7,3.96.92,8.07,1.55,12.04,2.17l2.62.41c4.52.71,9.2,1.44,13.82,2.06,9.52,1.26,19.27,2.16,28.98,2.69,4.78.26,9.63.43,14.42.51,1.23.02,2.46.03,3.69.04,3.59.03,7.31.06,10.87.34l.68.11-.02-.02Z"/>
                <path class="cls-12" d="m567.84,274.81l.08-.5c.45-2.87.84-5.87,1.19-9.17.28-2.66.58-5.33.88-7.98.11-.97.74-7.28.09-7.46-2.65-.72-3.49.58-3.76,2.87-.35,2.99-.35,5.92-1.2,8.85-.25.86-.55,1.74-1.2,2.37-1.02,1-2.61,1.14-4.07,1.21-26.76,1.21-53.58-1.81-79.86-6.85-2.46-.47-5-.99-7.05-2.38s-3.54-1.75-2.91-4.1c-4.39,1.89-2.36,6.45-.17,9.13,2.87,3.52,7.57,4.94,10.85,5.7,3.96.92,8.07,1.55,12.04,2.17l2.62.41c4.52.71,9.2,1.44,13.82,2.06,9.52,1.26,19.27,2.16,28.98,2.69,4.78.26,9.63.43,14.42.51,1.23.02,2.46.03,3.69.04,3.59.03,7.31.06,10.87.34l.68.11v-.02Z"/>
                <path class="cls-1" d="m701.1,232.3c-3.71-2.61-8.03-1.85-11.5-1.24-7.55,1.34-15.46,2.33-23.51,2.96-1.14.09-2.31.2-3.5.31-4.35.42-8.84.85-12.95.19l-.26-.04c-2.69-.43-5.02-.8-7.8-.55-1.77.16-3.54.44-5.25.72-.86.14-1.72.28-2.58.4-3.64.52-7.4.76-11.02.99-1.45.09-2.9.18-4.35.29-10.12.76-20.24,2.39-30.07,4.85l-.38.09-.15,2.89c-2.75-5.97-9.65-10.83-16.65-9.29-2.31.5-4.42,2.07-5.78,4.3-1.04,1.7-1.3,3.43-1.54,5.1-.12.84-.25,1.71-.48,2.58l-.18.68c.19-.72,7,.28,7.88.32,1.24,4.38,1.17,8.61.96,13.17-.08,1.83-.17,3.72-.4,5.57-.26,2.07-.55,4.17-1.08,6.19-.11.42-1.67,3.96-1.9,3.97-2.31.11-4.62.05-6.93.19l-.51.03v.79c.04,3.89.09,8.73,3.98,11.4,3.05,2.09,7.11,2.55,10.85,1.24,2-.7,3.91-1.62,5.84-2.3.47-.16.96.13,1.36.42,1.11.78,2.42,1.34,3.45,2.16,1.17.94,2.1,2.44,3.05,3.59.76.93,1.53,1.86,2.31,2.77.78.9,1.51,1.86,2.23,2.78.85,1.1,1.73,2.25,2.7,3.32.53.58,1.03,1.2,1.54,1.82,1.52,1.85,3.1,3.77,5.3,4.98,3.56,1.96,7.76,1.8,11.82,1.65.56-.02,1.13-.04,1.68-.06,10.31-.29,20.68,1.86,29.97,6.2l.3.14c1.25.58,2.53,1.19,3.96,1.35.24.03.48.04.72.04,3.62.01,6.67-2.97,7.78-5.98,1.52-4.1,1.24-8.65-.65-12.59-.85-1.77-3.02-3.53-3.49-5.37-.47-1.83,1.91-3.32,3.27-4.27,1.73-1.21,3.33-2.61,4.83-4.08,1.21-1.19,2.73-2.81,3.73-4.74,1.21-2.32,1.38-5.04.5-8.09l-3.45-11.97c-.45-1.57-.84-3.31-.79-4.93.03-1.02,14.32-.88,15.83-1.03,6.21-.59,14.89-2.33,21.02-7.32,3.13-2.55,4.7-5.46,4.66-8.64-.03-3.01-1.7-6.04-4.35-7.91l-.02-.04Z"/>
                <path class="cls-16" d="m705.17,242.48c.18-.5.35-1,.49-1.5-7.31,6.44-17.7,8.48-27.59,8.73-9.88.25-19.81-1.02-29.64-.03-.6.06-1.23.14-1.75.44-.62.36-1,1-1.37,1.6-4.76,7.86-11.33,14.7-19.09,19.86-2,1.34-4.13,2.6-5.62,4.45-1.5,1.86-2.24,4.51-1.12,6.6,1.2,2.99,6.15,5.18,5.67,8.64-.54,3.9-6.16,8.29-9.36,10.29-5.48,3.43-17.6-11.26-20.23-14.98-1.55-2.2-2.97-4.71-2.76-7.36.28-3.67-.03-6.58-.47-10.27-.48-4.08-.64-8.19-1.36-12.24-.95-5.34-2.34-10.64-4.55-15.63.85,5.81,1.7,11.67,1.6,17.55-.08,4.63-.05,10.94-4.44,13.89-2.07,1.39-5.32,1.37-6.77-.62-.97-1.33-.9-3.1-.82-4.73.31-6.15.24-12.33-.47-18.45-.32-2.71-.82-5.56-2.61-7.67s-5.27-3.11-7.49-1.43c-1.19.9-1.78,2.33-2.29,3.7-.4,1.08-.79,2.28-.36,3.35.95,2.36,4.9.43,6.73,1.43,1.42.78,1.72,2.6,1.87,4.17.43,4.66.87,9.4.19,14.07-.15,1.04-1.32,10.31-2.98,10.39-2.31.11-4.62.05-6.93.19l-.51.03v.79c.04,3.89.09,8.73,3.98,11.4,3.05,2.09,7.11,2.55,10.85,1.24,2-.7,3.91-1.62,5.84-2.3.47-.16.96.13,1.36.42,1.11.78,2.42,1.34,3.45,2.16,1.17.94,2.1,2.44,3.05,3.59.76.93,1.53,1.86,2.31,2.77.78.9,1.51,1.86,2.23,2.78.85,1.1,1.73,2.25,2.7,3.32.53.58,1.03,1.2,1.54,1.82,1.52,1.85,3.1,3.77,5.3,4.98,3.56,1.96,7.76,1.8,11.82,1.65.56-.02,1.13-.04,1.68-.06,10.31-.29,20.68,1.86,29.97,6.2l.3.14c1.25.58,2.53,1.19,3.96,1.35.24.03.48.04.72.04,3.62.01,6.67-2.97,7.78-5.98,1.52-4.1,1.24-8.65-.65-12.59-.85-1.77-3.02-3.53-3.49-5.37-.47-1.83,1.91-3.32,3.27-4.27,3.82-2.68,6.97-5.6,6.67-10.51-.11-1.74-.64-3.43-1.17-5.09-1.6-5-3.19-10-4.79-15.01,1.9-.63,2.91-1.33,4.12-2.24.34-.26-.15-.88.41-1.23,1.09-.68,3.51-.42,4.74-.49,3.54-.18,7.15.07,10.68-.27,6.21-.59,14.89-2.33,21.02-7.32,2.04-1.67,3.47-3.95,4.37-6.37v-.02Z"/>
              </g>
              <g>
                <path class="cls-7" d="m655.95,278.92c-1.21-1-2.26-2.2-3.06-3.53-1.67-2.74-2.69-6-6.1-7.19-.99-.35-2.06-.49-3.09-.29-1.03.2-2,.76-2.56,1.62,1.15-.6,2.6-.42,3.75.17,2.03,1.05,3.62,3.14,4.5,5.15,1.06,2.42,1.41,4.66,1.2,7.28.94-1.34,1.92-2.76,2.01-4.38.39.49.91.88,1.49,1.13,1.02.43,2.21.43,3.16.99-.45-.29-.88-.61-1.29-.95h-.01Z"/>
                <path class="cls-7" d="m705.24,233.36c-2.13-2.81-5.14-4.37-8.73-4.55-4.6-.24-9.29,1.04-13.82,1.61-5.26.66-10.56,1.29-15.87,1.44-5.82.17-11.79,1.75-17.55.57-2.86-.59-5.89-.2-8.77,0-3.63.26-7.37.75-10.9,1.23-2.19.3-4.39.37-6.6.37-2.35,0-4.7.24-7.06.31-4.61.14-9.08,1.01-13.65,1.39-2.57.21-5.1.52-7.63,1.02-2.29.45-4.54,1.04-6.82,1.5-.18.04-.36.07-.53,0-.17-.06-.29-.2-.4-.34-2.73-3.21-6.72-5.5-11-5.87s-8.79,1.29-11.42,4.58c-2.29,2.87-3.03,6.62-3.3,10.23-.8.33-40.29,2.06-80-3.39-4.87-.67-8.92.81-12.34,4.51-2.59,2.8-4.11,4.33-3.54,8.12.58,3.83,3.25,7.08,6.37,9.34,3.73,2.71,8.37,3.99,12.85,5,5.16,1.16,10.39,2.12,15.63,2.92,10.45,1.59,20.97,2.75,31.51,3.48,5.84.4,11.68.66,17.53.79,3.2.07,6.41.13,9.61.08-.98,4.68.62,9.78,4.1,13.16,1.59,1.54,3.56,2.29,5.74,2.74,4.34.88,8.38-.46,12.11-2.59.38-.22.76-.45,1.12-.69.45.48,1.01.9,1.5,1.32,2.89,2.52,5.05,6.02,7.59,8.9,2.84,3.23,5.83,6.33,8.97,9.29,2.97,2.8,5.78,3.95,9.89,4.01,5.25.08,10.52-.29,15.74.19,4.67.43,9.28,1.53,13.61,3.27,2.99,1.19,5.87,2.69,9.02,3.41,3.75.85,7.25.3,10.06-2.24,2.8-2.53,4.57-5.8,5.03-9.5.64-5.11-1.49-10.31-4.87-14.19-.03-.03-.06-.06-.09-.09,3.53-2.1,6.65-4.97,9.07-8.23,2.61-3.52,3.66-6.95,3.13-11.29-.23-1.89-.73-3.73-1.18-5.58-.85-3.47-2.14-6.78-3.18-10.19,1.73.2,3.79-.07,5.58-.07,2.36,0,4.72-.12,7.07-.38,7.91-.89,16.12-3.15,22.49-7.97,2.81-2.13,5.25-5.06,6.11-8.47.79-3.12-.24-6.58-2.16-9.12l-.02-.04Zm-152.64,40.45c-4.8-.08-9.6-.25-14.4-.51-9.68-.53-19.34-1.42-28.94-2.69-4.84-.64-9.65-1.4-14.47-2.16-4.65-.73-9.37-1.4-13.96-2.46-3.88-.9-8-2.38-10.55-5.51-2.32-2.85-2.98-6.56-1.3-9.86,1.87-3.68,5.49-3.98,9.56-4.9,1.91-.43,4.16.32,6.08.61,2.54.39,5.08.76,7.62,1.12,18.69,2.65,66.28,3.28,69.16,3.23,2.57-.04,5.19-.02,7.76-.27.04,1.49.07,2.99.05,4.48-.05,3.41-.28,6.8-.63,10.19-.32,3.06-.71,6.11-1.19,9.15-.04,0-.07-.02-.11-.03-4.88-.39-9.77-.31-14.67-.39h-.01Zm113.53-39.29c7.92-.61,15.79-1.58,23.57-2.96,3.88-.68,7.7-1.23,11.09,1.15,2.45,1.72,4.1,4.54,4.13,7.5.04,3.41-1.86,6.11-4.47,8.24-5.61,4.57-13.58,6.53-20.73,7.2-4.28.4-8.58.46-12.87.23-3.8-.2-7.78-.61-11.58-.19-2.96.33-5.12,2.87-6.77,5.02-1.05,1.37-2.08,2.77-3.4,3.92-1.01.88-2.16,1.6-3.24,2.4-3,2.22-5.46,5.11-7.14,8.39,1.85-2.47,4.72-3.89,7.34-5.44,2.75-1.62,4.85-3.6,6.93-5.95.7-.79,1.4-1.6,2.12-2.37,1.13-1.21,2.62-2.39,4.34-2.65.63-.1,1.28-.07,1.92-.05,1.96.07,3.91.15,5.87.22.31.01.88,2.76.97,3.08,1.15,3.99,2.3,7.98,3.45,11.97.75,2.6.82,5.26-.46,7.72-.9,1.73-2.23,3.22-3.64,4.61-1.99,1.96-4.17,3.75-6.55,5.23-.33.2-.69.41-1.08.4-.38,0-.73-.22-1.06-.42-4.9-2.98-10.35-4.42-16.06-4.92-2.01-.18-5.19-.21-6.42-2.12-1.2-1.87-.02-5.82.57-7.81-2.05,1.87-4.44,4.79-3.56,7.65-1.33-.15-2.65-.41-3.94-.76,1.87,2,4.55,3.74,7.26,4.43,2.16.55,4.42.77,6.63,1.06,4.64.63,9.08,1.59,13,4.21,6.46,4.33,9.89,12.11,7.14,19.54-1.2,3.22-4.42,5.99-7.94,5.6-1.45-.16-2.78-.83-4.09-1.44-9.37-4.37-19.83-6.53-30.22-6.25-4.5.12-9.31.63-13.23-1.52-2.83-1.56-4.61-4.37-6.7-6.69-1.76-1.96-3.2-4.11-4.92-6.09-1.62-1.88-3.15-3.83-4.77-5.7-.79-.91-1.88-2.11-3.12-2.75,1.54-1.51,2.71-3.3,3.25-5.53,1-4.06,1.12-8.09,1.24-12.24,0-.15-.22-.14-.23,0-.13,1.14-.26,2.28-.43,3.41-.15,1.04-.49,2-.76,3.01-.23.87-.46,1.75-.74,2.61-.34,1.06-.9,1.87-1.44,2.83-.94,1.66-2.03,3.19-3.54,4.42-1.73,1.42-3.94,2.4-6.05,3.14-3.44,1.21-7.34.9-10.36-1.17-3.76-2.58-3.71-7.3-3.75-11.28,1.61-.1,3.34-.21,4.93.03-.1.76-.26,1.94-.69,2.62-.27.42-.63.81-1.12.97s-1.1-.02-1.3-.48c.62.65.54,1.83,1.34,2.23.39.2.89.12,1.27-.1s.67-.56.94-.9c3.24-4.11,4.41-10.13,5.05-15.18.24-1.86.32-3.73.41-5.61.28-6.01.51-12.24-1.9-17.78-.23-.52-.5-1.06-1-1.35-.5-.29-1.28-.18-1.49.34-.06.15.78,1.74.84,2.08.14.83.13,1.69.14,2.52-1.75-.04-3.51.05-5.27.12.69-2.6.47-5.09,1.97-7.54,1.2-1.96,3.14-3.55,5.44-4.06,7.59-1.66,15.28,4.62,16.93,11.53.09-1.74.18-3.49.26-5.23,9.82-2.45,19.86-4.07,29.98-4.83,5.14-.39,10.31-.55,15.41-1.28,2.6-.37,5.18-.88,7.8-1.11,2.81-.25,5.2.15,7.93.59,5.32.85,11.25-.09,16.58-.5v.03Z"/>
              </g>
            </g>
            <g>
              <path class="cls-1" d="m191.89,86.14c-3.54.69-6.99,1.7-10.27,3.22-7.8,3.61-13.24,9.92-15.17,18.26-1.83,7.88-4.57,15.94-5.9,24.11-2.02,12.4-2.09,25.12-.22,37.55,1.42,9.43,4.32,19.3,11.57,25.5,8.34,7.13,20.29,7.72,31.27,7.8,31.69.24,55.92-.77,87.59-1.88,15.84-.55,31.67-1.13,47.52-1.58,14.64-.42,18.36.11,33.02.88,14.11.75,28.3.9,42.37-.57,20.49-2.14,38.37-12.23,40.98-33.07.79-6.27,3.81-20.95-.59-42.01-2.31-11.05-7.07-23.52-15.28-31.61-6.66-6.56-25.08-4.92-34.12-5.98-64.95-7.61-131.55-5.72-196.78-2.25-5.33.28-10.75.62-15.98,1.65v-.02Z"/>
              <g>
                <g>
                  <circle class="cls-40" cx="209.47" cy="154.98" r="36.31" transform="translate(22.93 336.92) rotate(-80.78)"/>
                  <circle class="cls-7" cx="209.2" cy="155.56" r="29.85"/>
                  <path class="cls-2" d="m237.9,170.82c1.49-3.29,6.61-14.26-.34-15.91-1.51-.36-3.07-.08-4.43.57-14.78,7.16-32.4,8.52-48.82,3.82-7.48-2.14-6.92,2.09-4.39,7.37,2.58,5.37,5.21,10.69,9.89,14.57,15.99,13.23,40.22,6.99,48.1-10.42h0Z"/>
                  <g>
                    <path class="cls-1" d="m236.23,148.68c.66-.31,1.29-.7,1.88-1.13,2.76-2.09,4.4-5.82,3.57-9.4-2.96-12.73-25.32.24-17.9,9.73,1.03,1.32,2.78,1.79,4.38,1.96,2.77.31,5.64,0,8.08-1.16h0Z"/>
                    <path class="cls-4" d="m190,164.37c.66-.22,1.26-.59,1.74-1.1,1.59-1.72,1.47-4.87-.3-6.64-4.6-4.58-12.03,2.17-6.2,6.87,1.36,1.09,3.22,1.39,4.76.88h0Z"/>
                  </g>
                </g>
                <g>
                  <ellipse class="cls-42" cx="372.95" cy="154.26" rx="33.38" ry="35.1" transform="translate(-.88 2.15) rotate(-.33)"/>
                  <ellipse class="cls-7" cx="371.56" cy="153.98" rx="27.45" ry="28.85" transform="translate(-.88 2.14) rotate(-.33)"/>
                  <path class="cls-2" d="m399.1,169.56c1.37-3.19,6.08-13.79-.32-15.38-1.4-.35-2.82-.08-4.07.55-13.59,6.91-29.79,8.23-44.9,3.68-6.88-2.07-6.37,2.02-4.04,7.12,2.37,5.19,4.8,10.34,9.1,14.08,14.71,12.79,36.99,6.77,44.22-10.06h0Z"/>
                  <g>
                    <path class="cls-1" d="m397.56,148.15c.61-.31,1.19-.67,1.73-1.1,2.53-2.01,4.04-5.62,3.28-9.09-2.73-12.31-23.28.23-16.46,9.41.96,1.28,2.56,1.72,4.03,1.9,2.55.3,5.19,0,7.42-1.12Z"/>
                    <path class="cls-4" d="m355.05,163.31c.61-.21,1.16-.57,1.6-1.06,1.46-1.66,1.35-4.71-.27-6.42-4.24-4.42-11.07,2.09-5.7,6.64,1.25,1.06,2.96,1.35,4.38.84h0Z"/>
                  </g>
                </g>
              </g>
              <path class="cls-39" d="m455.2,46.07c-118.68-17.57-242.83-7.47-406.32,9.19,7.58,34.13,42.52,178.05,60.32,284.34,78.9-4.75,249.82-10.57,361.93-2.46,3.66-56.28-6.74-225.46-15.93-291.08h0Zm-198.53,131.81c-2.88,4.71-6.38,9.23-10.75,12.65-6.96,5.45-12.52,5.26-20.45,1.76-14.29-6.31-29.48-10.59-44.96-12.67-10.32-1.39-11.34-20.66-11.39-28.94-.07-10.29,2.54-20.47,7.03-29.7,4.41-9.06,11.02-17.83,20.27-22.34.17-.09.35-.11.5-.08.96-.58,1.94-1.13,2.95-1.62,9.66-4.76,21.08-5.93,31.6-3.85,5.14,1.02,10.18,2.88,14.6,5.73,4.6,2.97,8.29,6.94,11.17,11.59,5.97,9.66,8.89,21.34,8.94,32.64.05,12.18-3.13,24.43-9.5,34.83h-.01Zm170.6-6.67c-2.33,4.75-5.62,9.05-9.68,12.45-11.28,9.42-29.26,13.45-43.36,10.25-10.16-2.3-18.77-9.09-24.64-17.54-2.95-4.26-5.25-8.99-6.78-13.94-1.43-4.65-2.04-9.48-2.34-14.33-.6-9.69.21-19.69,3.26-28.94,2.99-9.06,8.35-17.34,16.57-22.45.47-.29.91-.04,1.11.33.79-.54,1.61-1.05,2.45-1.51,8.76-4.84,19.33-5.79,29.07-3.98,10.09,1.87,19.39,6.9,26.05,14.76,7.39,8.73,11.19,19.78,12.61,31,1.44,11.35.8,23.47-4.31,33.89h-.01Z"/>
              <path class="cls-36" d="m463.9,46.24c-118.68-17.57-252.67-14.9-416.33,8.9,9.53,33.7,41.47,169.6,61.62,284.47,78.9-4.75,249.83-9.08,361.94-.97,11.83-54.76,1.95-226.77-7.24-292.4h0Zm-204.43,128.42c-2.84,4.88-6.24,9.34-10.55,13.01-4.43,3.78-9.25,7.35-15.25,6.85-6.53-.54-12.56-3.66-18.51-6.17-10.32-4.36-21.26-7.26-32.38-8.58-4.27-.51-7.45-.91-9.21-5.1-2.18-5.19-3.12-10.8-3.6-16.38-.51-5.83-.45-11.72.24-17.53,1.39-11.57,5.34-23.05,13.18-31.87.31-.34.7-.32.98-.11.64-.8,1.3-1.58,1.99-2.33,5.89-6.41,13.68-10.94,22.12-13.01,8.16-2,16.87-1.76,24.89.73,8,2.48,15.3,7.21,20.59,13.73,2.8,3.45,5.01,7.32,6.6,11.47,2.2,5.75,3.61,11.95,4.54,18.03,1.94,12.69.93,25.96-5.64,37.25h.01Zm162.25,7.45c-6.75,8.13-18.59,10.69-28.7,12.3-11.04,1.76-22.3.43-31.8-5.77-7.05-4.61-12.28-11.54-15.7-19.17-3.66-8.17-5.44-17.13-5.62-26.06-.18-8.89,1.22-17.93,4.57-26.19,3.12-7.71,7.98-14.75,14.81-19.61.24-.17.48-.18.67-.1,1.2-1.02,2.46-1.96,3.8-2.78,9-5.49,20.24-5.63,30.14-2.79,9.92,2.85,19.39,8.67,25.66,16.96,8.24,10.89,12.32,24.33,12.5,37.91.16,12.44-2.19,25.49-10.34,35.31h.01Z"/>
              <path class="cls-8" d="m463.9,46.24c-118.68-17.57-252.67-14.9-416.33,8.9,8.15,28.97,43.46,172.47,61.62,284.47,78.9-4.75,249.83-9.08,361.94-.97,11.83-54.76,1.95-226.77-7.24-292.4h0Zm.26,279.56c-105.73-7.62-271.2-.29-345.61,4.18-15.6-111.44-49.17-239.44-57.99-269.58,156.76-17.22,283.71-23.59,390.05-10.23,8.66,61.69,21.19,229.41,13.55,275.64h0Z"/>
              <g>
                <path class="cls-41" d="m611.91,394.12c-40.66-16.83-81.23-29.48-123.91-44.36,0,0,8.22-156.42-11.84-318.09-.11-.89-.76-1.58-1.64-1.71-20.33-2.82-229.28-24.26-451.09,11.84-.68.11-1.28.53-1.72,1.07l-15.73,20.19c-.58.74-.76,1.71-.49,2.61,15.15,50.26,48.46,159.92,76.67,311.84.34,1.85.92,3.64,2.26,4.97,9.04,8.93,44.98,44.61,54.42,57.12,166.85-6.98,318.8-8.52,463.73-1.37,1.42.06,2.69-.91,2.98-2.3l8.09-38.53c.29-1.37-.44-2.75-1.73-3.29h0Zm-502.71-54.51C90.66,225.02,57.42,85.09,48.87,55.26c166.51-15.53,287.39-25.17,406.32-9.19,9.19,65.63,20.41,236.45,15.93,291.08-112.11-8.11-283.03-2.3-361.93,2.46h0Z"/>
                <path class="cls-21" d="m401.5,24.32c-.92.06-1.84.13-2.75.22,13.25,2.33,69.55,7.31,70.17,11.87,9.9,73.08,12.06,134.59,19.45,199.25,1.75-24.75-.05-49.61-1.86-74.35-2.98-40.8-3.76-82.5-9.57-123-.72-4.99.19-8.54-5.35-8.24-11.19.6-23.45-2.57-34.69-3.6-11.72-1.08-23.66-2.88-35.4-2.15h0Z"/>
                <path class="cls-23" d="m172.42,348.56c-2.45.23-5.07-.16-7.53-.48-5.52-.72-10.97-.74-16.53-.73-17.74.05-35.15,1.87-52.82.98-.71-.04-1.49-.09-2.02-.57-.43-.38-.63-.96-.77-1.51-.79-3.15-.55-6.86-2.83-9.18,1.75,5.61,1.24,12.82,3.35,18.05,1.58,3.91,6.18,6.23,9.47,8.53,4.42,3.08,8.73,6.3,13.29,9.18-2.34-1.48-4.54-5.46-6.29-7.63-2.03-2.52-5.04-5.45-6.33-8.44-1.46-3.4.69-3.47,4.07-4.04,3.35-.56,6.77-.68,10.16-.75,7.78-.17,15.57-1.12,23.34-1.48,5.66-.26,11.31-.51,16.97-.72,2.39-.09,4.53-.29,6.85-.74s5.32-1.26,7.63-.48h-.01Z"/>
                <path class="cls-38" d="m612.72,394.64c-6.1-.34-12.2-.85-18.28-1.33-14.47-1.13-28.98-1.55-43.46-2.42-31.32-1.87-62.63-2.14-94-1.84-31.21.3-62.39,1.41-93.6,1.75-31.41.34-62.83.38-94.24.81-31.39.42-62.7,1.63-94.05,3.04-10.98.49-21.97.78-32.95,1.15-2.49.08-3.02-1.33-4.5-3.02-1.5-1.72-3.08-3.37-4.71-4.96-3.28-3.19-6.78-6.15-10.37-8.98-7.24-5.72-14.86-10.95-21.99-16.81,0-1.1-4.58-3.59-5.27-4.89-.96-1.82-.91-5.07-1.31-7.09-1.22-6.16-2.45-12.31-3.7-18.46-2.49-12.3-5.03-24.59-7.62-36.87-5.17-24.56-10.54-49.08-16.11-73.56-6.91-30.41-14.12-60.75-21.63-91.01-3.75-15.13-7.58-30.25-11.48-45.34-1.95-7.55-3.92-15.09-5.91-22.63-.48-1.81-6.51-18.72-5.52-19.63-.11.1-.22.21-.32.33l-15.73,20.19c-.58.74-.76,1.71-.49,2.61,2.92,9.7,6.29,19.26,9.63,28.82,3.59,10.26,5.42,21.1,8.36,31.66,6.65,23.86,13.02,47.8,19.13,71.8,7.65,30.08,14.89,60.28,21.69,90.56,3.4,15.14,6.7,30.31,9.89,45.5,3,14.3,7.05,28.88,7.97,43.48.12,1.88.92,3.64,2.26,4.97,9.04,8.93,44.98,44.61,54.42,57.12,166.85-6.98,318.8-8.52,463.73-1.37,1.42.06,2.69-.91,2.98-2.3l8.09-38.53c.22-1.04-.15-2.09-.91-2.77v.02Z"/>
                <path class="cls-14" d="m364.64,228.44c-33.88-7.52-68.86-10.01-103.46-7.35-9.98.77-21.09,1.64-28.89-4.63-1.76-1.42-2.95-3.06-3.99-5.04-1.21-2.32-1.5-2.59-3.09-4.57-.64-.79-.83-2.04-.15-2.8,1.02-1.14,3.49-.84,3.69-2.35-7.5-5.14-16.61-7.67-25.69-8.13-9.09-.45-18.18,1.08-26.94,3.53,1.82-.51,6.23,1.34,8.19,1.66,2.93.49,6.08.49,8.96,1.17,4.34,1.03,9.57,2.72,13.12,5.49,2.72,2.12,4.69,5.04,6.52,7.96,3.23,5.16,5.8,10.06,9.52,14.87,3.64,4.7,6.94,9.65,9.87,14.82,5.34,9.44,11.31,18.58,18.53,26.7,9.85,11.06,22.23,20.23,36.45,24.39,5.68,1.66,11.57,2.5,17.45,3.14,8.76.95,17.28,1.53,25.53-1.97,7.51-3.19,14.14-8.21,19.81-14.03,7.25-7.45,13.01-16.21,18.44-25.08,8.99-14.67,21.19-29.44,40.58-27.24-4.53-5.22-10.71-8.99-17.42-10.64,1.13.28-1.94,5.3-2.32,5.7-1.69,1.84-3.96,2.68-6.2,3.61-6.22,2.59-11.3,2.41-17.87.93-.22-.05-.44-.1-.65-.15h.01Z"/>
                <path class="cls-24" d="m277.75,144.3c.03-4.06-.25-8.12-.86-12.13-3.72-24.48-19.22-50.83-48.31-52.39-21.67-1.16-40.96,7.95-52.34,26.57-5.02,8.21-8.39,17.42-9.86,26.94-1.92,12.44-.58,25.25,2.75,37.39.6,2.2,1.3,4.43,2.68,6.25,1.38,1.81,3.59,3.15,5.86,2.91-6.58-9.02-7.29-21.12-5.64-32.16,1.97-13.14,7.12-26.07,16.28-35.7,19.6-20.61,55.1-18.15,68.1,8.51,5.62,11.51,6.04,25.06,3.25,37.56-3.38,15.14-11.89,29.7-25.32,37.45.5-.29,7.88,3.13,9.1,3.46,11.05,2.91,19.42-8.1,24.28-16.39,6.68-11.4,9.93-25.06,10.03-38.25v-.02Z"/>
                <path class="cls-31" d="m441.39,140.6c-.42-7.02-1.7-13.97-4-20.64-5.83-16.98-18.71-31.92-35.6-38.02-16.88-6.1-37.53-2.2-49.49,11.19-3.07,3.44-5.54,7.39-7.61,11.51-11.99,23.82-11.68,59,7.5,79.17,8.91,9.38,22.76,14.79,35.17,11.14-9.08-1.06-17.32-6.37-23.23-13.34s-9.7-15.52-12.42-24.25c-3.71-11.91-5.5-25.14-.7-36.67,5.7-13.69,16.64-24.04,32.23-24.21,13.07-.14,25.65,7.14,33.31,17.73,7.66,10.59,10.67,24.12,9.81,37.16-.59,8.99-3.05,18.08-8.53,25.23-7.63,9.96-19.99,14.93-31.91,18.84,6.57-1.2,13.14-2.4,19.71-3.59,5.06-.92,10.02-.38,14.95-1.41,4.82-1.01,9.55-3.26,12.61-7.13,2.35-2.97,3.57-6.66,4.56-10.3,2.87-10.51,4.27-21.56,3.61-32.42h.03Z"/>
                <path class="cls-6" d="m364.17,231.55c-34.67-5.23-69.98-5.36-105.09-6.12-3.96-.09-7.93-.18-11.87-.65-6.7-.79-13.27-2.67-19.39-5.53-.53,4.71,2.03,9.17,4.49,13.22,9.2,15.16,16.91,31.46,30.71,42.99,12,10.03,26.73,16.82,42.22,19.15,8.67,1.3,17.92,1.16,25.68-2.92,2.85-1.5,5.42-3.5,7.89-5.58,8.74-7.38,16.42-16,22.79-25.51,5.72-8.54,9.23-18.66,14.97-26.79-3.66-1.48-8.45-1.67-12.39-2.26h-.01Z"/>
                <path class="cls-9" d="m298.93,233.52c-16.55-2.19-31.84-.72-48.46-.75-5.68,0-5.7,9.43-5.18,13.25.49,3.56,1.56,6.72,2.78,10.07,1.22,3.32,1.29,4.02,5.25,3.46,3.58-.51,7.16-.92,10.77-1.14,7.21-.44,14.46-.23,21.64.6,14.35,1.66,28.43,5.82,41.33,12.34,1.34.68,2.68,1.39,3.77,2.42,2.28-1.23,3.48-4.59,4.35-6.85,2.14-5.54,3.2-11.5,3.11-17.44-.15-10.16-7.66-10.92-16.05-12.32-7.76-1.3-15.53-2.54-23.32-3.64h0Z"/>
                <path class="cls-15" d="m329.87,273.93c-5.66-4.34-12.21-7.56-18.99-9.83-9.9-3.31-20.33-4.72-30.71-5.72-5.38-.52-10.78-.93-16.19-.8-2.38.06-14.77-.3-12.55,3.86,1.62,3.05,4.08,5.56,6.57,7.96,9.99,9.63,21.32,18.24,34.39,22.9,13.35,4.76,29.89,5.4,42.2-2.5,2.29-1.47,4.71-3.8,4.08-6.45-.25-1.04-.94-1.9-1.63-2.71-2.15-2.48-4.56-4.71-7.16-6.7h-.01Z"/>
                <path class="cls-5" d="m326.46,279.68c-.03-.63-.31-1.31-.71-1.83-1.04-1.33-2.85-2.31-4.44-2.8-.57-.18-1.22-.29-1.72.05-.46.31-.63.95-.52,1.5s.44,1.03.79,1.47c.88,1.1,1.97,2.03,3.18,2.74.5.29,1.03.55,1.61.57,1.38.05,1.86-.76,1.81-1.69h0Z"/>
                <path class="cls-5" d="m317.43,273.59c.23-.65-.66-1.58-1.55-1.93-.53-.21-1.12-.38-1.66-.19-2.19.77.83,2.92,2.06,2.75.7-.09,1.04-.33,1.15-.64h0Z"/>
                <path class="cls-18" d="m329.87,273.93c-5.66-4.34-12.21-7.56-18.99-9.83-9.9-3.31-20.33-4.72-30.71-5.72-5.38-.52-10.78-.93-16.19-.8-2.38.06-14.77-.3-12.55,3.86,1.62,3.05,4.08,5.56,6.57,7.96,5.42,5.22,10.64,10.82,17.08,14.84,6.62,4.13,13.3,5.34,20.51,7.69-9.48-3.09-17.75-9.72-22.84-18.29-1.46-2.46-2.62-5.72-.94-8.03,1.52-2.09,4.52-2.24,7.09-2.2,10.42.17,20.95.44,31.01,3.14s19.75,8.11,25.63,16.71c.84,1.23,1.3,2.48.65,3.88,7.09-3.05-3.56-11.09-6.31-13.2h-.01Z"/>
                <path class="cls-1" d="m344.93,229.6c-7.76-.85-15.53-1.54-23.31-2.08-6.37-.44-12.56-1.45-19-1.47-6.64-.02-13.28.33-19.92.09-15.19-.56-30.37-1.55-45.5-2.99,2.82,4.94,7.79,8.22,12.77,10.97,9.36,5.16,19.41,9.07,29.8,11.61,19.05,4.66,39.21,6.36,58.79,5.21,4.42-.26,8.95-.7,12.9-2.7,6.21-3.14,10.03-9.67,12.06-16.32-6.18-.87-12.37-1.64-18.58-2.32h-.01Z"/>
                <path class="cls-10" d="m344.93,229.6c-7.76-.85-15.53-1.54-23.31-2.08-6.37-.44-12.56-1.45-19-1.47-6.64-.02-13.28.33-19.92.09-15.19-.56-30.37-1.55-45.5-2.99,2.82,4.94,7.79,8.22,12.77,10.97,2.72,1.5,17.8,10.42,19.64,7.47.61-.98.54-2.21.55-3.37.04-2.48.62-4.95,1.69-7.19.34-.72.77-1.46,1.48-1.84.6-.32,1.3-.34,1.98-.35,23.53-.42,47.09.69,70.48,3.3,5.79.65,11.6,1.39,17.14,3.16,0-1.15.97-2.23.11-3.23s-4.27-.8-5.43-.95c-4.22-.55-8.44-1.06-12.67-1.52h-.01Z"/>
                <path class="cls-11" d="m484.23,355.25l85.27,31.78c-131.02-8.52-272.94-4.98-413.52,1.11-15.11-11.75-29.82-22.67-43.68-31.89,140.44-5.62,269.55-7.6,371.94-1h-.01Z"/>
                <path class="cls-29" d="m153.81,354.69c2.04,1.67,4.29,3.1,6.47,4.55,3.19,2.12,6.38,4.23,9.62,6.29,3.37,2.15,6.56,4.46,9.67,6.98,3.24,2.63,6.38,5.36,9.6,8,1.5,1.23,2.98,2.47,4.55,3.61,1.03.75,2.06,1.5,3.01,2.34.4.35,2.98-.13,3.56-.17,1.32-.07,2.64-.16,3.97-.26,2.18-.17,4.28-.52,6.47-.59,3.64-.12,7.27-.39,10.91-.57,3.21-.16,6.46-.31,9.68-.18.68.03,1.61.2,2.22,0-4.27-.61-8.78-.32-13.09-.53-4.99-.23-10-.03-14.99-.05h-.99c-1.27,0-2.56-.02-3.82-.07-.52-.02-1.1-.02-1.52-.23-.87-.44-1.99-1.64-2.61-2.36-.63-.73-1.48-1.65-1.89-2.54,4.95-.31,9.9-.29,14.86-.78,4.57-.45,9.14-.79,13.7-1.32.44-.05.9-.18,1.34-.17-1.36.1-2.79-.08-4.16-.09-2.91-.03-5.82.09-8.73.03-3.36-.07-6.74-.08-10.1-.17-1.09-.03-2.16-.05-3.25,0-2.45.13-4.98.36-7.44.12-.96-.09-1.34-.9-1.85-1.56-.68-.87-1.51-1.6-2.09-2.55,4.48-.24,8.87-.14,13.35-.65,4.72-.54,9.59-1.81,14.36-1.64-.65-.32-1.7-.01-2.41.06-2.68.3-5.37.43-8.08.42-4.97-.03-9.95.04-14.91.29-1.71.08-3.91.39-5.49-.4-1-.5-2.99-2.06-3.32-3.07,7.93-.12,15.86-2.03,23.82-1.94-2.48-.77-5.77-.13-8.31.02-5.12.29-10.26-.06-15.38.15-1.81.07-3.58.54-5.04-.48-1.56-1.08-2.9-2.58-4.14-4.01.89,0,1.81-.12,2.7-.2,1.98-.16,3.95-.12,5.94-.13,4.57-.03,9.14-.55,13.71-.57-.73-.24-2.05-.12-2.94-.18-3.22-.23-6.45-.45-9.67-.57-3.03-.11-6.06-.05-9.1-.12-1.27-.03-3.03.25-4.26-.12-1.04-.31-1.99-1.47-2.9-2.1-.39-.27-.76-.63-1.05-1.01,2.96-.2,5.87-.36,8.81-.81,1.94-.3,3.9-.52,5.85-.77,1.62-.21,3.22-.57,4.84-.73-2.47-.02-4.96.22-7.42.3-2.07.07-4.14-.05-6.2-.01s-4.04.12-6.1,0c-1.36-.07-2.78-.37-4.13-.26-1.08.09-2.17.22-3.24.43-.53.1-1.87.77-2.36.37h-.03Z"/>
                <path class="cls-28" d="m206.89,361.02c3.54,2.3,7.22,4.37,10.82,6.58,3.89,2.39,7.57,5.04,11.14,7.87,1.89,1.5,3.75,3.02,5.68,4.47,1.91,1.44,3.84,2.85,5.75,4.29.27.21.55.42.82.62,35.73-1.19,71.39-2.08,106.77-2.54-1.19-.77-2.35-1.57-3.48-2.43-1.28-.98-2.64-1.51-3.88-2.58.87,2.08-.63,2.04-2.46,2.07-3.91.06-7.8.14-11.71.15h-3.43c-18.77,0-37.5.7-56.27.84-5.85.04-11.7.38-17.55.51-1.67.04-3.6.37-5.24.13-2.57-.38-5.35-3.53-7.25-5.22-1.65-1.46-3.36-2.9-5-4.32,1.18-.57,3.33-.27,4.65-.32,1.64-.07,3.27-.13,4.91-.19,3.27-.12,6.55-.21,9.82-.3,6.54-.18,13.09-.33,19.63-.5,3.64-.1,7.27-.29,10.9-.53,3.18-.21,6.34-.51,9.51-.8,1.27-.12,2.4-.26,3.66-.14s2.68-.09,3.88-.48c-3.75-.52-7.72-.31-11.51-.44-4.47-.15-8.94.06-13.41-.02-4.89-.08-9.78,0-14.66.14-6.28.18-12.52.36-18.8.39-3.68.02-7.32.34-10.99.5-2.8.13-4.92-2.57-6.96-4.18,2.02.37,4.12-.1,6.17.05,2.37.17,4.93-.28,7.28-.54,3.64-.4,7.44-.12,11.14-.29,4.17-.19,8.34-.39,12.51-.4-4.71.01-9.42-.09-14.13-.21-5.13-.14-10.29-.02-15.43.02-2.09.01-4.19.03-6.28.04-.95,0-1.97.13-2.9-.08-.81-.18-1.46-.67-2.18-1.06-1.37-.75-2.74-1.76-3.95-2.74.32.26,1.58.11,1.98.06.67-.08,1.34-.13,2.02-.16,1.59-.07,3.18-.19,4.77-.2,3.05-.01,6.1.03,9.15.06,3.71.03,7.49-.14,11.21-.31,1.52-.07,3.02-.22,4.54-.35.87-.07,1.83-.26,2.69-.08-.46-.16-.99-.14-1.49-.15-1.71-.02-3.42.01-5.13.02-3.3,0-6.59-.07-9.89-.13-6.27-.1-12.55-.27-18.82-.17-1.26.02-2.49.29-3.75.28s-1.84-.58-2.91-1.21c-1.33-.79-2.64-1.59-4.04-2.24,2.56.03,5.18-.34,7.72-.67,1.75-.23,3.51-.4,5.26-.62,1.31-.17,2.64-.55,3.97-.52-1.8-.5-4.33-.08-6.16-.07-6.18.02-12.49-.19-18.62.6-.42.05-.88.17-1.25.06.78.62,1.98,1.03,2.86,1.66,2.74,1.97,5.47,3.92,8.32,5.76v.02Z"/>
                <path class="cls-26" d="m352.87,357.1c2.18,1.35,4.28,2.85,6.53,4.08,2.37,1.3,4.82,2.48,7.11,3.92,3.94,2.48,8.29,4.17,12.1,6.86,3.57,2.52,7.42,4.58,11.06,7.03,1.14.77,2.07,1.8,3.25,2.54,1.58.99,3.51.45,5.33.45,7.41,0,14.81-.43,22.2-.63,1.92-.05,3.84.21,5.77.2,2.7-.01,5.39.06,8.09.05.69,0,1.49-.17,2.17-.03-.39-.54-1.17-.88-1.71-1.27-.33-.24-.58-.54-.9-.79s-.69-.4-1.01-.63c-1.33-.92-2.7-1.87-3.95-2.89.54.58.94,1.27,1.47,1.86.49.55,1.12.97,1.32,1.73-.07-.26-6.54,0-7.19,0-3.31-.02-6.65.12-9.99.07-3.75-.05-7.5-.1-11.25-.23-2.08-.07-4.2.03-6.25-.4-1.97-.42-3.6-2.15-5.27-3.22-1.21-.77-2.46-1.6-3.59-2.48,1.51.09,3.02.08,4.53.08,3.81,0,7.62.14,11.44.15,2.07,0,4.13-.14,6.2-.08,1.91.06,4.38.49,6.17.15-1.26.24-2.9-.28-4.16-.42-1.57-.18-3.15-.32-4.73-.43-6.36-.44-12.71-.27-19.07-.78-1.77-.14-3.3-.03-4.75-1.14-1.37-1.05-2.64-2.2-3.94-3.34,3.28-.1,6.59-.01,9.9-.02,6.14-.02,12.24-.03,18.37.22,1.91.08,3.87-.23,5.75,0-6.1-.81-12.14-1.35-18.3-1.33-4.5.01-8.58-.16-13.06-.21-1.46-.01-2.94-.02-4.4.05-.64.03-1.06.08-1.6-.17-1.47-.7-2.93-1.36-4.34-2.18-.71-.42-1.95-.92-2.42-1.61,1.01-.06,2.03.03,3.04.08.85.04,1.71-.04,2.57-.04,2.27,0,4.57.19,6.81.09,1.27-.06,2.54-.05,3.81-.11,1.37-.07,2.75.11,4.1.05-6.12,0-12.22-1.08-18.33-1.25-1.47-.04-3.17.03-4.5-.62-1.69-.83-3.23-2.11-4.82-3.12-.78-.5-1.64-.87-2.44-1.32-.57-.32-1.4-.55-1.69-1.18.83-.13,1.7.1,2.53.12,1.86.05,3.71-.12,5.56-.17,3.8-.09,7.6.04,11.4-.21,2.68-.17,5.6-.12,8.13-.55-1.85-.35-3.97-.15-5.87-.26-6.45-.36-12.97-.16-19.44-.13-1.4,0-3.68.43-4.93-.38-.67-.43-1.08-1.31-1.73-1.75-1.26-.85-3.9-.35-5.35-.43-1.07-.06-2.13-.14-3.2-.17-.53-.02-1.06-.03-1.59-.01-.27,0-1.2.21-1.41.08.99.63,1.94,1.48,3.02,2.06s2.02,1.3,3.1,1.84c1.22.61,2.5,1.1,3.67,1.8.24.14.48.29.71.43h-.03Z"/>
                <path class="cls-30" d="m382.64,382.1h1.6c2.46-.02,5.12.28,7.56-.02,1.48-.18.71-.67-.1-1.27-.74-.56-2.19-1.22-2.73-1.93t0,0c.89,1.51-1.16.97-2.2.97-7.67.02-15.39.23-23.06-.3-3.04-.21-6.1-.17-9.13-.13-1.15.01-2.29.21-3.4-.21-.96-.36-1.67-1.08-2.42-1.74-1.47-1.3-3.04-2.59-4.43-3.93,2.22.35,4.61.19,6.85.21,2.48.02,4.96,0,7.44-.07,2.31-.07,4.62-.15,6.92-.2,2.11-.05,4.32.16,6.41.02-.19-.1-.77-.12-1.12-.13-1.62-.05-3.23-.19-4.84-.32-7.4-.61-14.73-.4-22.13-.52-.73-.01-1.36.2-2.02-.2-.67-.4-1.31-.98-1.95-1.44-1.49-1.07-2.95-2.18-4.44-3.26,1.07-.2,2.38-.17,3.48-.08,1.58.13,3.24-.31,4.79-.09,1.4.2,2.8.06,4.23.1,2.63.08,5.16.17,7.8.09,2.77-.09,5.54-.22,8.31-.2-.92-.27-2.12-.24-3.07-.3-3.12-.2-6.24-.32-9.36-.46-2.21-.1-4.41-.02-6.63-.13-2.21-.11-4.43-.22-6.65-.11-1.09.05-2.27.26-3.37.16-.78-.07-1.36-.74-2.03-1.16-.84-.53-1.7-1.02-2.55-1.53-.44-.27-.88-.54-1.31-.83-.26-.18-.75-.71-1.04-.77.66.13,1.42.03,2.11.06,1.8.07,3.61.04,5.41,0,2.57-.05,5.17.05,7.76-.02,2.07-.06,4.14.06,6.21.05,4.03-.02,8.17.23,12.15-.29-.32-.74-1.94-.64-2.61-.67-3.5-.17-6.97-.07-10.48-.15-3.67-.09-7.35-.24-11.03-.25-2,0-4.02-.04-6.01-.13-1.55-.07-3.44.35-4.93-.17-1.29-.45-2.6-1.24-3.85-1.81-3.38-1.54-6.54-3.47-9.8-5.22-1.26-.68-2.54-1.83-3.91-2.25-1.72-.52-3.58.11-5.31-.02-.37-.03-.71-.17-1.08-.2-.33-.03-1.31.24-1.56.06,1.06.75,2.24,1.39,3.34,2.09,1.83,1.17,3.6,2.47,5.53,3.49,3.73,1.98,7.27,4.25,10.97,6.27,3.2,1.74,6.35,3.49,9.46,5.41,3.75,2.32,7.3,4.93,10.9,7.47,1.54,1.09,2.95,2.38,4.51,3.41.68.45,1.56,1.08,2.03,1.73.53.35,1.07.7,1.62,1.01.07.04.14.07.21.11,1.62-.02,3.24-.04,4.86-.06,6.22-.07,12.44-.13,18.66-.17,3.14-.02,6.28.03,9.41.03h.02Z"/>
                <path class="cls-27" d="m184.23,384.65c-.76.02-1.51.04-2.26.07-3.6.15-7.21.46-10.82.47-2.52,0-5.04.15-7.56.19-1.12.02-2.25-.02-3.35.05-.96.06-2.17.24-3.02-.31-.94-.61-1.89-1.73-2.68-2.51-.46-.45-1.32-1.18-1.48-1.81.05.22,7.2-.44,7.88-.48,2.67-.16,5.34-.4,8-.65,6.13-.55,12.37-1.24,18.42-1.67-3.79-.6-7.83-.45-11.66-.44-5.33.01-10.66.11-15.99.12-2.05,0-4.09.1-6.14.11-1.37,0-3.07.56-4.39.04-1.01-.4-1.86-1.57-2.67-2.26-.93-.79-1.81-1.6-2.65-2.49.45.48,2.2-.39,2.86-.42,1.2-.07,2.4.14,3.6.08,3.8-.18,7.62-.17,11.42-.34,3.41-.15,6.91-.82,10.33-.69-3.47-.13-7.01-.18-10.52-.33-2.42-.1-4.83-.15-7.27-.09-2.97.07-5.95.12-8.9.34-.79.06-1.8.21-2.6.02-1.18-.28-1.97-1.13-2.83-1.86-.43-.37-.99-.61-1.46-.93-.16-.11-1.06-1.01-1.15-1.01,1.19-.05,2.37-.13,3.55-.21,4.68-.3,9.38-.2,14.07-.5,3.83-.24,7.81-.13,11.57-.9-.63-.26-1.55-.13-2.24-.13-2.37,0-4.74,0-7.11-.07-5.29-.16-10.51-.13-15.79.14-1.47.08-2.94.13-4.41.27-.48.04-.96.16-1.4-.02-.8-.33-1.41-1.37-2.03-1.94-.67-.62-1.32-1.39-2.03-1.95,1.13.45,2.78.09,3.97.07,2.91-.05,5.83-.19,8.74-.34,4.07-.21,8.19-.43,12.23-.85-7.43.1-14.9-.47-22.31.23-1.11.1-2.32.38-3.23-.22-1.12-.74-2.2-1.72-3.2-2.6,2.17-.11,4.33-.03,6.49-.12,2.28-.1,4.55-.29,6.83-.3,2.46,0,4.89-.04,7.35-.17,1.4-.07,3.01-.09,4.37-.41-6.37-.53-12.83-.9-19.24-.61-1.19.06-3.5.48-4.52-.36-.34-.28-.44-.82-.78-1.08-.43-.34-.79-.05-1.26,0-.53.04-1.11-.06-1.66-.04-1.44.06-2.89.11-4.33.17-2.89.11-5.79.23-8.68.34,13.87,9.22,28.57,20.14,43.68,31.89.24.19,1.52-.07,1.85-.08.73-.03,1.46-.06,2.19-.09,1.4-.06,2.81-.12,4.21-.18,2.81-.12,5.62-.24,8.43-.35,5.62-.23,11.24-.46,16.86-.69,1.69-.07,3.74.26,5.36-.12-.49-.64-1.31-.93-1.89-1.48-.69-.65-.65-.84-1.56-.77-2.39.2-4.79.22-7.19.27h0Z"/>
                <path class="cls-35" d="m293.53,353.16c3.65.92,7.37,1.34,11.11,1.73,7.21.76,14.46,1.22,21.7,1.51,14.42.59,28.86.54,43.28.96,11.57.34,23.15.3,34.73.46,9.42.13,20.82.18,29.08,5.39,3.46,2.18,7.03,4.16,8.2,8.34.94,3.36-2.57,14.06-7.53,10.35,14.96-.62,30.13.69,45.09,1.12,8.88.25,17.72.59,26.61.57,10.04-.03,20.03,1.02,30.15,1.52,5.8.28,11.6.59,17.39.92,2.79.16,5.58.32,8.37.49,2.26.14,5.68-.29,7.79.49l-85.27-31.78c-58.03-3.74-124.65-4.72-197.04-3.85,2.11.61,4.21,1.23,6.34,1.76v.02Z"/>
                <path class="cls-13" d="m91.81,360.44c.51,9.32-1.1,16.98-3.59,17.11-2.49.14-4.92-7.3-5.44-16.62-.51-9.31,1.1-16.98,3.59-17.11,2.49-.14,4.93,7.3,5.44,16.62Z"/>
                <path class="cls-32" d="m595.17,422.89c-4.83,1.31-9.78,2.19-14.77,2.61-6.22.53-12.48.34-18.72.15-56.36-1.72-112.72-4.17-169.07-3.75-36.16.26-72.31,1.49-108.46,2.38-11.4.28-22.81.66-34.21,1.07-16.54.59-33.07,1.22-49.61,1.68-8.27.23-16.53.42-24.8.53-4.13.06-8.26.09-12.4.12-2.72.02-6.42.39-8-2.39-1.23-1.22-1.45-4.66-1.58-6.32-.37-4.91-1.63-13,1.44-17.31,2.54-3.57,11.19-3.01,15.07-3.41,11.32-1.17,22.66-1.37,34-2.13,5.86-.39,11.75-1.47,17.57-2.32,1.66-.24,3.36-.32,4.94-.93-2.85-.09-4.86.72-7.55,1.26-3.55.71-7.41.69-11.02.82-7.18.26-14.36.07-21.54.14-5.24.05-10.48,0-15.71-.13-4.43-.11-8.74,1.09-13.27,1.07-5.11-.02-10.22-.39-15.34-.22-5.85.19-12-8.96-15.81-12.51-5.84-5.43-11.91-10.61-18.18-15.52-7.09-5.54-14.89-11.36-17.45-19.99-.35-1.18-.61-2.43-1.33-3.43s-2.09-1.67-3.21-1.15c-1.13.53-1.49,1.94-1.68,3.18-1.61,10.06-5.13,29.9,1.91,38.03,5.15,5.95,11.3,11.25,16.84,16.85,7.03,7.12,14.03,14.29,20.88,21.59,2.98,3.18,5.95,6.38,8.83,9.65.72.82,5.04,7.13,5.91,7.09,166.85-6.98,318.8-8.52,463.73-1.37,1.42.06,2.69-.91,2.98-2.3,1.3-6.11,3.12-11.73,4.24-17.64.56-2.96.94-5.99,1-9.19-.32,7.44-8.41,11.85-15.6,13.79h-.03Z"/>
                <path class="cls-34" d="m162.81,40.21c.74,4.06,2.78,8.09,6.36,10.11,9.92,5.6,18.64-.42,26.88-5.87,6.49-4.29,13.36-4.56,20.62-6.69,5.53-1.62,12.67-3.83,12.95-10.65.12-3.01-1.25-8.24-3.19-10.57-3.07-3.69-8.33-3.02-12.47-2.03-4.96,1.17-8.76,1.85-13.93,1.87-10.31.04-21.97-.27-30.17,7.07-4.14,3.7-7.26,7.15-7.35,13.02-.02,1.21.08,2.47.31,3.74h0Z"/>
                <path class="cls-33" d="m340.5,25.94c.56,1.44,1.46,2.83,2.06,3.62,3.28,4.32,9.17,7.34,14.43,8.36,3.75.72,7.88.48,11.47,1.7,3.02,1.03,5.49,3.15,8.36,4.57,9.15,4.54,25.65,5.26,28.41-7.1.66-2.95.61-7.04-.57-9.85-1.98-4.73-6.62-3.84-11.15-4.1-14.4-.81-28.8-1.44-43.21-1.88-2.41-.07-8.48-1.47-9.95.86-.63,1-.39,2.43.15,3.82h0Z"/>
              </g>
              <g>
                <path class="cls-7" d="m485.99,351.1c-.12-5.8.36-14.38.62-20.31,3.92-97.52-1.45-195.27-11.74-292.26l-.49-4.7-.2-1.93s.03.04.04.05l-.24-.04c-18.57-2.97-37.43-4.41-56.2-5.79-125.58-8.53-252.3-4.41-376.68,15.23-3.62.64-13.39,2.14-17.27,2.82,0,0-.05.02-.1.07-.03.02-.06.06-.09.1l-.32.41-.72.94c-4.74,6.2-9.96,12.29-14.98,18.29l-.18.22c-.21.25-.33.59-.25.91.65,2.08,1.91,6.26,2.62,8.42,23.79,78.45,44,157.97,61.69,238.01,3.94,18.34,7.85,37.19,11.12,55.69l1.67,9.32c.28,1.43.56,3.16,1.63,4.22l.78.77c18.44,18.53,37.36,36.43,54.09,56.61.02.02-2.03-.96-2.03-.95,40.16-1.72,80.34-3.2,120.53-4.3,93.79-2.43,187.65-2.86,281.43.28,19.5.7,40.72,1.47,60.27,2.47l1.26.06h.31l.16.02h.02c.17,0,.33-.13.37-.29l.03-.15c2.71-12.76,6.04-25.48,8.76-38.25.17-1.12-.79-1.29-1.6-1.63-33.82-13.92-69.23-25.51-103.99-37.01-6.37-2.15-14.22-4.5-20.3-7.29h-.02Zm4.02-2.68c5.72,1.25,12.2,3.95,17.7,5.79,31.4,11.01,63.71,21.76,94.6,34.09,3.12,1.23,6.22,2.52,9.33,3.79l.58.24c.19.08.36.14.71.31,1.83.91,2.9,3.1,2.47,5.11-2.68,12.84-4.72,25.89-7.42,38.73-.52,2.59-3.06,4.52-5.71,4.27h-.31s-1.25-.07-1.25-.07c-19.64-.88-40.71-1.81-60.19-2.38-133.85-4.2-267.8-1.55-401.59,3.73l-1.23.05-.8-1.01c-16.38-19.9-35.28-37.95-53.39-56.32l-.42-.42-.47-.48c-1.68-1.74-2.52-4.57-2.76-6.55-1.4-8.3-3.41-19.59-5.01-27.86-11.84-61.85-26.81-123.06-42.78-183.96C23.23,132.39,14.31,99.32,3.94,66.69c-.65-1.64-.45-3.63.75-4.98l1.39-1.91c4.18-5.65,8.25-11.63,12.69-17.08.56-.7,1.19-1.61,1.88-2.18.55-.45,1.22-.81,1.98-1,.46-.11.57-.1.78-.14l.59-.09,2.34-.35c28.47-4.51,60.51-8.3,89.25-10.92,100.51-8.6,201.65-11.29,302.4-5.57,19.04,1.29,38.08,2.6,56.98,5.53,1.71.25,3.14,1.98,3.19,3.63l.06.59.12,1.18c9.92,95.66,14.42,191.94,13.02,288.1-.28,8.56-.26,18.44-1.37,26.93h.01Z"/>
                <path class="cls-7" d="m23.78,41.66c16.48,64.48,32.81,129.06,47.3,194.03,5.73,25.68,11.72,52.37,16.55,78.17,2.27,13.12,5.25,26.14,5.92,39.52-1.9-6.44-3.16-12.96-4.29-19.52-8.23-45.64-17.5-91.76-28.4-136.79-12.31-51.8-25.87-103.29-39.89-154.66l2.8-.74h.01Z"/>
                <path class="cls-7" d="m93.87,356.05c4.59,2.48,8.55,5.79,12.63,8.93,4.06,3.17,8.09,6.39,12.08,9.66,7.93,6.62,15.73,13.41,22.97,20.8l-1.1-.44c26.25-.99,62.08-2.11,88.32-2.9,107.9-2.98,216.07-4.42,323.95-.88,19.31.57,39.6,1.52,58.88,2.52l-.18,2.89c-13.98-.93-29.95-1.95-44.07-2.65-112.68-5.52-225.79-4.09-338.52-.09-26.2.94-62.07,2.63-88.25,4l-.63.03-.47-.47c-10.76-10.94-22.35-21.18-34.05-31.15-3.9-3.35-7.99-6.46-11.56-10.26h0Z"/>
                <path class="cls-7" d="m49.17,56.23c.85,1.81,1.57,3.3,2.1,5.13.07.37,2.74,10.03,2.93,10.86,2.4,8.81,6.85,26.44,9.12,35.27,13.26,52.96,25,106.45,35.18,160.07,4.54,23.86,8.67,47.79,12.61,71.75l-2.03-1.62c90.44-5.08,181.04-7.39,271.63-6.12,30.2.5,60.4,1.52,90.56,3.66l-2.07,1.78c1.59-24.15,1.03-48.51.4-72.72-2.6-72.77-7.17-145.7-16.31-217.95l1.68,1.65c-33.73-3.99-67.69-5.98-101.68-6.83-76.48-1.78-153.1,2.03-229.32,8.47-24.05,1.86-50.65,5.15-74.8,6.6h0Zm-1.6-1.09c.74-1.66,3.51-1.47,5.18-1.81l6.58-.89c8.6-1.16,17.65-2.16,26.17-2.97,37.94-3.84,76.54-7.08,114.59-9.33,85.52-4.87,171.63-6.08,256.83,4.18,9.32,72.96,13.91,146.38,16.54,219.84.63,24.38,1.2,48.73-.41,73.12l-.13,1.92-1.93-.14c-116.62-7.46-233.76-4.18-350.41,1.31-3.59.1-8.98.74-12.61.39-3.44-24.3-7.94-48.51-12.29-72.69-13.31-71.56-29.16-142.66-48.11-212.94h0Z"/>
                <path class="cls-7" d="m94.42,353.41c16.31-2.16,32.71-2.75,49.11-3.55,114.74-5.25,229.8-8.7,344.54-1.56l-.18,2.89c-98.25-5.58-196.76-3.95-295.08-.73-32.83.74-65.54,3.54-98.4,2.95h0Z"/>
                <path class="cls-7" d="m141.95,396.45c-1.32,14.07-1.24,28.26.11,42.32h-2.9c1.05-10.55,1.08-21.16.68-31.74-.15-3.53-.37-7.05-.79-10.58h2.9Z"/>
                <path class="cls-7" d="m113.06,356.46c1.07.46,3.94,2.43,5.08,3.21,13.05,8.87,25.79,18.29,38.43,27.7,134.19-6.4,276.33-9.85,412.99-1.31l-.4,1.87s-85.55-32.39-84.96-32.21c-123.61-7.67-247.47-2.45-371.15.73h.01Zm-1.53-.43c7.77-.52,15.87-1.16,23.89-1.46,85.21-3.09,170.63-5.2,255.89-3.55,31.05.64,62.11,1.72,93.1,3.78,0,0,85.43,31.32,85.44,31.32l6.12,2.25c-139.81-9.15-280.07-5.24-419.94.73l-.36.02-.28-.22c-7-5.67-14.09-11.24-21.3-16.65-7.3-5.6-15.1-10.76-22.56-16.22h0Z"/>
                <g>
                  <path class="cls-7" d="m153.73,354.59c14.24,9.17,28.34,18.66,41.16,29.75-13.01-10.83-27.28-20.05-41.66-28.93l.51-.82h0Z"/>
                  <path class="cls-7" d="m195.2,353.29c14.95,9.02,29.83,18.37,43.1,29.76-13.47-11.12-28.5-20.2-43.58-28.92l.48-.84h0Z"/>
                  <path class="cls-7" d="m300.34,350.92c16.33,8.76,32.76,17.79,46.99,29.76-10.74-8.86-22.93-15.77-35.1-22.47-4.08-2.2-8.18-4.37-12.33-6.43l.43-.86h.01Z"/>
                  <path class="cls-7" d="m341.15,350.4c17.33,9.3,34.64,18.78,50.71,30.16-16.24-11.1-33.69-20.3-51.15-29.3l.44-.86h0Z"/>
                  <path class="cls-7" d="m382.48,351.11c17.98,8.62,36.01,17.47,52.38,28.93-16.53-11.18-34.69-19.73-52.78-28.05l.4-.88h0Z"/>
                  <path class="cls-7" d="m422.03,351.83c18.97,8.65,38.09,17.45,55.29,29.34-12.96-8.8-27.19-15.53-41.36-22.12-4.74-2.17-9.51-4.29-14.31-6.32l.38-.89h0Z"/>
                  <path class="cls-7" d="m458.43,353.38c20.15,8.9,40.29,17.97,59.43,28.91-9.61-5.39-19.55-10.14-29.55-14.76-10.01-4.6-20.1-9.01-30.25-13.26l.38-.89h-.01Z"/>
                  <path class="cls-7" d="m122.64,362.89c118.55-5.05,237.56-9.02,356.12-2.66,7.91.42,15.8,1.02,23.71,1.52l-.07.96c-7.89-.55-15.78-1.2-23.68-1.67-55.27-3.41-110.8-3.99-166.15-3.44-63.32.78-126.63,3.03-189.87,6.26l-.05-.97h-.01Z"/>
                  <path class="cls-7" d="m117.23,359.26c117.48-5.03,235.27-8.98,352.77-2.59,7.83.42,15.66,1.01,23.48,1.51l-.07.96c-7.82-.55-15.63-1.19-23.46-1.67-54.74-3.41-109.75-4.03-164.59-3.48-62.73.76-125.43,3.02-188.08,6.23l-.05-.97h0Z"/>
                  <path class="cls-7" d="m129.28,367.81c112.76-4.82,225.97-8.29,338.79-3.8,16.13.63,32.24,1.58,48.35,2.69l-.07.96c-16.09-1.21-32.18-2.28-48.3-3-80.58-3.57-161.39-2.52-241.98.05-32.26,1.03-64.5,2.41-96.73,4.05l-.05-.97h0v.02Z"/>
                  <path class="cls-7" d="m136.39,373.13c122.93-5.18,246.37-8.95,369.31-2.68,7.39.36,17.18,1.09,24.59,1.55l-.07.96c-65.42-5.04-131.29-5.69-196.87-5.13-65.67.75-131.32,2.91-196.91,6.26l-.05-.97h0Z"/>
                  <polygon class="cls-7" points="145.62 379.16 229.34 376.2 145.65 380.12 145.62 379.16 145.62 379.16"/>
                  <path class="cls-7" d="m338.53,373.72c69.59-.83,139.26-.65,208.72,4.29l-.07.96c-69.4-5.26-139.07-5.77-208.64-5.26h0Z"/>
                </g>
                <path class="cls-7" d="m98.92,386.48c-1.36-1.06-2.45-3.53-2.45-5.54l-.03-9.59c0-2.06,1.1-2.97,2.48-2.01s2.55,3.49,2.54,5.59l-.03,9.8c0,2.05-1.14,2.82-2.52,1.74h0Z"/>
                <path class="cls-7" d="m105.81,393.9c-1.45-1.15-2.61-3.74-2.6-5.79l.05-9.83c.01-2.11,1.2-3,2.69-1.95,1.5,1.06,2.72,3.69,2.7,5.85l-.11,10.06c-.02,2.1-1.25,2.84-2.73,1.67h0Z"/>
                <path class="cls-7" d="m113.73,401.56c-1.57-1.26-2.8-3.97-2.77-6.09l.14-10.13c.03-2.18,1.34-3.04,2.94-1.9,1.63,1.16,2.93,3.93,2.89,6.15l-.21,10.37c-.04,2.17-1.39,2.86-2.98,1.59h-.01Z"/>
                <ellipse class="cls-37" cx="87.3" cy="360.68" rx="4.52" ry="16.89" transform="translate(-19.63 5.32) rotate(-3.14)"/>
                <path class="cls-7" d="m202.5,2.18c-8.6,1.74-16.43,6.15-23.65,11.13-4.75,3.27-9.48,7.03-11.88,12.26-2.41,5.24-1.74,12.31,2.94,15.67,6.07,4.37,14.64,0,20.55-2.68,9.92-4.49,19.81-9.03,29.69-13.61,2.41-1.12,4.92-2.32,6.48-4.47,4.21-5.78,1.13-14.44-4.9-17.18-5.77-2.63-13.13-2.35-19.22-1.12h-.01Z"/>
                <path class="cls-7" d="m366.18.02c8.28.21,16.3,3.07,23.85,6.57,4.96,2.3,9.98,5.06,13.1,9.59,3.12,4.54,3.68,11.31-.11,15.26-4.91,5.12-13.6,2.42-19.55.87-9.97-2.59-19.93-5.23-29.87-7.92-2.42-.65-4.96-1.37-6.77-3.14-4.88-4.75-3.47-13.42,1.67-17S360.31-.13,366.18.02Z"/>
                <path class="cls-7" d="m431.81,157.34c2.32-22.36-2.22-49.14-22.24-61.5-13.51-8.34-32.21-11.81-47.09-3.1-5.9,3.46-10.76,8.59-14.39,14.38-5.42,8.63-7.78,18.74-8.89,28.6-1.17,10.34-.03,20.88,3.59,30.45,3.37,8.92,9.65,16.78,17.19,22.51,10.89,8.29,23.36,9.07,36.21,5.89,9.57-2.36,19.36-3.87,29.21-4.48-3.55-.82-7.21-1.17-10.85-1.03,11.69-6.18,15.98-19.2,17.28-31.72h-.02Zm-83.94,14.26c-5.56-10.73-7.34-22.68-6.32-34.94.94-11.27,4.29-23.43,12.19-32.23,9.68-10.79,23.96-13.22,37.25-10.74,3.99.74,7.9,1.93,11.58,3.57,13.61,6.05,23.24,20.62,26.93,34.91,1.27,4.9,1.89,10,1.87,15.11-.03,10.85-1.88,24.31-10.15,32.57-3.93,3.92-8.17,7-12.83,9.26-2.66.54-5.3,1.15-7.94,1.78-3.58.86-7.12,1.81-10.63,2.91-7.51.52-15.14-.4-22-3.02-9.07-3.45-15.56-10.69-19.96-19.18h.01Z"/>
                <path class="cls-7" d="m267.15,138.18c-1.23-10.01-3.78-20.27-9.57-29.01-3.88-5.86-9.05-11.06-15.31-14.53-11.39-6.33-24.66-7.63-37.17-3.67-16.06,5.09-28.01,18.43-33.02,34.31-3.58,11.35-4.15,23.61-2.81,35.38.7,6.17,2.52,11.68,4.5,17.5-2.4.69-5.15.62-7.66,1.53,5.82,1.02,12-.21,17.73,1.27,4.97,1.29,10.06,2.69,14.99,4.28,8.14,2.62,16.01,5.99,24.15,8.61,7.18,2.31,15.64,5.29,23.23,5.15.48,0,.56-.68.11-.82-2.36-.76-4.71-1.52-7.06-2.3,2.14-1.07,4.21-2.31,6.2-3.78,7.94-5.87,14.54-13.89,18.06-22.97,3.78-9.75,4.92-20.46,3.63-30.96h0Zm-8.99,36.51c-4.61,8.66-11.43,16.04-21.01,19.6-.44.16-.88.31-1.32.46-6.71-2.24-13.39-4.57-20-7.11-10.07-3.87-20.24-7.62-30.99-9.06-2.88-.39-5.79-.62-8.7-.6-5.08-8.14-6.41-18.69-6.48-27.54-.04-5.2.59-10.38,1.9-15.37,7.14-27.17,32.2-46.39,60.46-39.57,6.95,1.68,14.63,5.75,19.55,10.96,8.4,8.9,12.01,21.24,13.07,32.69,1.15,12.45-.67,24.61-6.49,35.54h.01Z"/>
                <path class="cls-14" d="m324.98,305.98c.17-.1.34-.18.51-.26-7.33,3.26-15.74,3.12-23.53,2.02-7.81-1.1-16.22-2.84-22.81-7.4,1.71,1.18,3.02,3.21,4.75,4.49,1.9,1.41,3.94,2.4,6.07,3.39,4.36,2.01,8.88,3.12,13.69,3.43,3.5.22,7.02.09,10.54-.38,2.14-.28,4.15-.95,6.08-1.91,1.67-.84,3.11-2.48,4.69-3.37h0Z"/>
                <path class="cls-7" d="m404.96,225.11c-2.64-3.39-7-5.4-11.3-5.14.96.31,1.68,1.27,1.7,2.28-3.36,1.47-6.55,3.31-9.52,5.46-2.92,2.11-5.14,3.89-8.98,3.78-2.42-.07-4.84-.37-7.23-.69-4.89-.66-9.7-1.8-14.57-2.56-9.96-1.56-20.01-2.49-30.07-3.05-20.3-1.13-40.64-.79-60.95-1.39-5.44-.16-10.89-.22-16.31-.7-2.59-.23-5.19-.51-7.75-.99-1.93-.36-3.83-.75-5.76-1.04-3.21-2.34-6.44-4.68-9.44-7.27-3.06-2.64-6.82-5.71-8.22-9.65-.08-.24-.16-.5-.06-.74.12-.3.46-.42.77-.51,2.01-.58,4.12-.79,6.21-.62-8.07-4.55-17.86-5.96-26.9-3.88,2.15-.49,6.35,1.12,8.43,1.77,2.38.75,5.34,1.74,6.85,3.85,1.28,1.78,1.9,3.71,3.41,5.44,2.15,2.47,4.43,4.79,6.92,6.93,1.15.99,2.32,1.94,3.52,2.84,1.71,6.77,4.88,13.14,8.08,19.32,3.16,6.11,6.79,12.01,10.77,17.61,8,11.27,17.69,21.52,29.23,29.21,3.18,2.12,6.51,4,10.01,5.53,8.1,3.53,15.47,5.34,24.36,5.89,10.55.65,21.22-.4,29.91-6.83,5.62-4.16,10.62-9.14,15.06-14.54,10.06-12.23,17.42-26.4,24.08-40.69.18-.39.23-.78.17-1.13,2.47-.31,5.18-.68,7.51-1.61,3.99-1.59,6.91-5.06,11.09-6.53,3.09-1.09,6.67-1.23,9.52.38-.17-.25-.34-.49-.53-.73h-.01Zm-159.87.99c4.79.69,9.65.89,14.48,1.12,10.28.47,20.59.51,30.89.64,20.46.25,41.01.58,61.29,3.55,3.4.5,6.79,1.07,10.19,1.56-.01.03-.03.05-.04.09-2.4,7.23-8.42,13.11-15.75,15.25-4.72,1.37-9.72,1.28-14.58,1.43-4.98.16-9.99.29-14.96.07-10.18-.45-20.18-1.95-30.15-4-8.82-1.81-17.6-3.7-26.01-7.01-4.25-1.68-8.39-3.58-12.21-6.12-1.81-1.2-3.52-2.55-5.17-3.97-1.14-.98-2.19-2.03-3.28-3.04.07-.18.05-.38-.14-.53-.03-.02-.06-.04-.08-.06,1.83.45,3.71.76,5.54,1.03h-.02Zm77.12,67.07c-7.32,1.36-14.71.73-21.96-.69-7.34-1.44-14.4-3.91-20.89-7.67-10.51-6.09-19.61-14.72-27.2-24.22.56-.04,1.12-.09,1.68-.12,1.77-.11,3.54-.18,5.31-.26,3.21-.14,6.42-.23,9.63-.19,6.57.07,13.17.47,19.7,1.23s13,1.9,19.37,3.54c6.11,1.57,12.19,3.44,17.72,6.54,5.42,3.04,9.9,8.33,12.58,13.89-4.7,3.79-9.89,6.83-15.94,7.95h0Zm31.82-24.89c-3.94,5.37-8.39,10.38-13.38,14.8-2.52-5.08-6.72-8.65-11.54-11.51-5.45-3.22-11.13-5.57-17.16-7.46-12.98-4.05-26.52-6.73-40.12-7.21-3.88-.14-7.77-.13-11.66.02-1.86.07-3.71.22-5.57.4-1.01.09-2.02.2-3.03.31-.51.06-.99.19-1.46.34-.14-.18-.28-.36-.41-.54-4.49-5.97-8.47-12.31-12.04-18.87-3.03-5.58-5.6-11.4-8.59-16.99,2.46,1.56,5.06,2.87,7.86,3.81,1.58,3.64,4.89,6.5,8.04,8.78,3.45,2.49,7.24,4.46,11.15,6.11,8.51,3.6,17.85,5.47,26.89,7.23,10.28,2.01,20.82,2.94,31.25,3.84,5.32.46,10.65.92,15.99,1.12,5.01.18,10.16.32,15.11-.69,9.22-1.88,16.86-8.94,19.76-17.84.07-.2.08-.39.08-.56,1.05.12,2.11.24,3.16.33,1.63.13,3.32.2,5.03.17-5.66,11.88-11.54,23.76-19.36,34.4h0Z"/>
              </g>
              <path class="cls-22" d="m107.57,334.78c110.96-11.12,222.79-8.07,334.26-5,12.73.35,26.03.85,37.16,7.04,6.53,3.64,11.89,9.01,17.73,13.68,15.16,12.09,33.53,19.3,51.59,26.34,16.5,6.43,33,12.86,49.5,19.29,2.19.85,4.54,1.84,5.72,3.87,7.92,13.54-37.81,14.02-42.85,14.63-22.43,2.73-44.93,4.85-67.46,6.6-43.22,3.36-86.54,5.28-129.84,7.2-40.27,1.79-80.58,3.58-120.9,2.76-20.62-.42-41.09-1.85-61.63-3.62-14.97-1.29-28.82,1.36-39.5-11.8-6.75-8.31-9.92-18.85-13.28-29.01-5.85-17.7-12.7-35.06-20.49-51.99h-.01Z"/>
            </g>
            <g>
              <g>
                <path class="cls-11" d="m104.88,318.28c-.48-7.25.5-14.24,2.83-20.22l.31-.8-.86.07c-.51.04-1.03.05-1.56.06h-.52c-1.36.05-2.75.06-4.11.04-2.78-.02-5.54-.14-8.21-.36-5.04-.4-10.34-1.23-16.18-2.55-2.99-.67-5.48-1.29-7.93-2.09l-1.13-.36c-3.48-1.1-7.05-2.24-8.56-5.31.99.7,2.2,1.12,3.32,1.51.39.14.77.27,1.15.41l.19-.5.19-.5c.28.11.34.39.31.51.17-.71,3.8-6.08,4.68-7.31,2.59-3.63,5.57-7.46,5.18-12.19-.27-3.25-2.35-6.45-5.46-7.45-2.01-.65-4.24-.35-6.2.46-3.1,1.28-5.84,3.75-8.43,5.85-3.53,2.87-6.79,6.48-9.94,11.03-4.1,5.92-8.56,13.74-6.58,21.75,1.59,6.44,6.77,11.37,15.39,14.64,7.97,3.03,16.42,4.6,25.09,6.07,4.67.79,9.43,1.43,14.15,1.88,2.47.24,4.99.36,7.42.48,1.79.09,3.58.17,5.37.3l.66.05-.09-.66c-.21-1.51-.38-3.13-.49-4.83v.02Z"/>
                <path class="cls-25" d="m57.28,279.67c1.85-2.98,3.51-6.34,5.96-8.74,1.69-1.65,5.84-5.29,1.99-7.52-3.59-2.09-8.85,2.12-11.35,4.15-3.53,2.87-6.79,6.48-9.94,11.03-2.35,3.39-7.06,12.94,1.38,11.15,4.63-.98,8.23-4.63,10.94-8.52.35-.5.69-1.02,1.02-1.56h0Z"/>
                <path class="cls-12" d="m104.88,318.28c.02-7.83,1.13-14.25,3.29-21.73-4.53,5.34-7.04,12.35-6.93,19.35-16.69-1.3-33.54-3.22-49.2-9.12-3.51-1.32-7.03-2.9-9.69-5.54s-4.33-6.56-3.4-10.19c-1.54,2.68-2.32,6.28-1.57,9.3,1.59,6.44,6.77,11.37,15.39,14.64,7.97,3.03,16.42,4.6,25.09,6.07,4.67.79,9.43,1.43,14.15,1.88,2.47.24,4.99.36,7.42.48,1.79.09,3.58.17,5.37.3l.66.05-.09-.66c-.21-1.51-.38-3.13-.49-4.83h0Z"/>
                <path class="cls-1" d="m254.73,284.05c-3.12-3.43-7.97-3.76-10.57-3.67-3.27.13-6.49.94-9.6,1.73-1.07.27-2.13.54-3.19.78-4.77,1.08-9,1.86-12.94,2.39-4.41.59-8.78.97-12.97,1.13-2.44.1-4.9-.06-7.28-.21-2-.13-4.07-.26-6.11-.24-.85,0-1.76.24-2.63.46-.54.14-1.06.27-1.54.35-4.6.73-9.34,1.15-13.93,1.56-3.63.32-7.38.66-11.05,1.14-8.92,1.18-17.92,2.59-26.75,4.19-.7.13-1.56.28-2.29.75-.62.4-1.08.99-1.49,1.56-1.73,2.41-3.2,4.98-4.4,7.68.57-4.05,1.9-7.62,5.06-11.05.16-.17.35-.39.44-.7.1-.4-.02-.76-.16-1.07-1.97-4.46-7.73-6.86-12.83-5.36-6.01,1.76-9.66,8.24-11.3,11.94-2.66,6-3.57,14.54-2.43,22.85.82,6.04,2.65,14.43,8.92,17.64,2.74,1.4,5.86,1.22,8.77-.52,1.2-.72,2.21-1.72,3.19-2.69.33-.33.65-.65.98-.96l.21-.2-.05-.29c-.49-2.64-.77-5.32-.85-8,.98,3.94,2.47,7.35,4.45,10.17,7.87,11.24,22.63,10.44,34.32,6.85.87-.27,1.63-.55,2.55-.43,2.85.36.92,4.64.87,6.48-.08,3.34,1.01,6.9,3.24,9.43,2.07,2.35,4.18,2.57,6.91,2.58h.15c3.81,0,7.66-.31,11.44-.93l.66-.11c2.92-.46,6.92-1.1,9.11-3.21,2.05-1.98,3.98-5.04,4.9-7.81.71-2.12.89-4.63,1.32-6.84,1.55-.73,2.69-1.96,4.22-2.75,1.62-.83,3.15-1.88,4.52-3.07,2.46-2.15,4.55-5.03,4.8-8.38.19-2.49-.87-4.58-1.93-6.3-1.2-1.96-2.67-3.76-4.1-5.5-1.04-1.28-2.12-2.6-3.07-3.96-1.45-2.06-1.19-3.41-1.95-5.63,9.84,1.32,20.22,2.4,30.08.39,5.18-1.04,14.19-4.05,16.33-12.6.9-3.59.14-7.16-2.05-9.56h.02Z"/>
                <path class="cls-16" d="m256.34,288.66c-.64,3.49-4.26,5.51-7.56,6.82-7.16,2.84-14.72,4.68-22.39,5.44-3.32.33-6.78.44-9.87-.81-4.75-1.91-8.15-6.81-13.21-7.59,3.48,2.27,4.71,6.67,6.1,10.58,1.92,5.38,4.64,10.49,8.03,15.09.76,1.04,1.58,2.09,1.86,3.35.73,3.35-2.55,6.1-5.44,7.94-.64.41-1.32.82-2.07.82-1.07,0-1.94-.83-2.62-1.66-2.69-3.26-4.34-7.25-6.72-10.75s-5.88-6.68-10.11-6.9c4.82,1.72,6.98,7.21,8.56,12.08.98,3.01,1.96,6.02,2.94,9.03.45,1.38.9,2.77,1.01,4.21.23,3.01-1.14,6.1-3.53,7.95s-5.73,2.4-8.58,1.41c-2.9-1-5.1-3.37-6.93-5.84-3.75-5.07-6.46-10.91-7.9-17.06-10.45,2.89-21.32,5.1-32.08,3.78-5.88-.72-12.1-2.84-15.3-7.82-3.78-5.9-2.1-13.62-.28-20.39-3.62,2.6-4.49,7.48-5.64,11.79-1.15,4.3-3.64,9.11-8.06,9.62-3.02.35-5.97-1.62-7.51-4.24s-1.91-5.77-1.88-8.81c-1.99,3.57-.92,9.7-.39,13.55.82,6.04,2.65,14.43,8.92,17.64,2.74,1.4,5.86,1.22,8.77-.52,1.2-.72,2.21-1.72,3.19-2.69.33-.33.65-.65.98-.96l.21-.2-.05-.29c-.49-2.64-.77-5.32-.85-8,.98,3.94,2.47,7.35,4.45,10.17,7.87,11.24,22.63,10.44,34.32,6.85.87-.27,1.63-.55,2.55-.43,2.85.36.92,4.64.87,6.48-.08,3.34,1.01,6.9,3.24,9.43,2.07,2.35,4.18,2.57,6.91,2.58h.15c3.81,0,7.66-.31,11.44-.93l.66-.11c2.92-.46,6.92-1.1,9.11-3.21,2.05-1.98,3.98-5.04,4.9-7.81.71-2.12.89-4.63,1.32-6.84,1.55-.73,2.69-1.96,4.22-2.75,1.62-.83,3.15-1.88,4.52-3.07,2.46-2.15,4.55-5.03,4.8-8.38.19-2.49-.87-4.58-1.93-6.3-1.2-1.96-2.67-3.76-4.1-5.5-1.04-1.28-2.12-2.6-3.07-3.96-1.45-2.06-1.19-3.41-1.95-5.63,9.84,1.32,20.22,2.4,30.08.39,5.18-1.04,14.19-4.05,16.33-12.6.21-.84.62-2.22.52-3.09-.04-.31-.92-2-.94-1.86h0Z"/>
              </g>
              <path class="cls-7" d="m258.46,287.15c-1.01-3.53-3.63-6.15-7-7.52-3.94-1.6-8.32-1.34-12.4-.53-4.72.92-9.33,2.2-14.08,2.98-5.27.87-10.56,1.5-15.9,1.87-5.04.35-9.96.15-14.96.4-4.8.24-9.51,1.35-14.33,1.44-7.19.12-14.43,1.36-21.59,2.23-1.94.24-22.21,2.09-22.25,2.71-1.82-4.25-5.98-7.41-10.56-8.03-8.41-1.13-13.32,5.18-16.66,11.77-1.12-.28-2.24-.15-3.39-.13-1.2.03-2.41.03-3.61.02-2.41-.02-4.82-.12-7.22-.28-4.89-.34-9.77-.88-14.59-1.75-4.41-.79-8.9-1.78-13.2-3.1.12.05,7.01-11.67,7.52-12.85,1.35-3.13,1.51-6.68.06-9.79-2.91-6.28-9.87-7.73-15.85-4.84-2.72,1.32-5.05,3.32-7.26,5.39-4.21,3.94-8.15,8.23-11.21,13.12-5.27,8.43-8.12,18.84-1.94,27.56,2.22,3.13,5.28,5.58,8.62,7.42,7.62,4.22,16.52,6.13,24.97,7.89,5.66,1.18,11.37,2.08,17.11,2.73,5.52.63,11.25,1.35,16.83,1.19,1.14,4.86,3.24,9.49,7.2,12.44,3.41,2.54,7.74,3.04,11.65,1.41,1.83-.76,3.46-1.97,4.9-3.32.27-.26.54-.52.8-.79.91,1.35,1.97,2.61,3.21,3.72,5.83,5.23,15.2,6.84,22.79,6.25,4.49-.35,8.41-2.47,12.8-3.09-.49,1.12-.98,2.24-1.26,3.44-.54,2.36.06,5.12.83,7.38,1,2.91,3.25,5.63,6.17,6.8,1.89.76,3.96.96,5.99,1.03,5.87.2,14.66-.19,19.92-3.03,4.73-2.56,7.05-7.55,8.35-12.74.19-.75,0-2.55.35-3.14.55-.94,2.27-1.53,3.17-2.15,3.73-2.55,8.71-6.3,9.86-10.88,1.15-4.56-.7-9.49-3.26-13.24-1.18-1.73-2.48-3.38-3.54-5.19-.3-.51-1.85-3.7-2.41-3.81,8.38,1.66,17.07,1.96,25.5.58,7.38-1.21,15.41-4.27,18.82-11.46,1.45-3.07,2.01-6.8,1.06-10.09v-.02Zm-154.11,31.17c.1,1.57.26,3.21.5,4.87-4.25-.31-8.53-.37-12.78-.78-4.73-.46-9.43-1.08-14.12-1.88-8.39-1.42-17.01-3.01-24.99-6.05-6.74-2.56-13.23-6.87-15.06-14.27-1.88-7.6,2.25-15.19,6.5-21.32,2.79-4.03,6.03-7.82,9.84-10.92,3.28-2.66,10.04-7.88,14.45-6.16,2.28.89,3.55,2.24,4.4,4.55,1.71,4.65-2.14,10.64-4.71,14.22-.37.51-5.16,7.45-4.75,7.61-2.11-.82-4.86-1.35-5.87-3.67.72,5.69,6.17,6.94,10.73,8.43,2.61.85,5.3,1.5,7.98,2.1,5.35,1.21,10.79,2.13,16.26,2.56,2.75.22,5.5.33,8.25.36,1.38.01,2.75,0,4.13-.03.71-.02,1.41-.02,2.11-.08-2.51,6.45-3.31,13.59-2.86,20.45h-.01Zm151.9-24.84c-1.85,7.36-9.04,10.83-15.92,12.21-9.58,1.92-19.71,1.32-29.1-1.25h-.05c-.59-1.27-1.12-2.57-1.55-3.93-1.34-4.2-3.29-9.41-8.41-9.68-.06,0-.07.07-.02.1,3.99,1.78,4.93,6.57,5.89,10.35.96,3.76,2.55,7.32,4.78,10.5,2.26,3.22,5.08,6.08,7.15,9.44,1.14,1.85,2.02,3.75,1.85,5.98-.47,6.11-7.14,10.62-12.39,12.5-2.46-6.48-5.89-12.4-7.91-19.11-.74-2.47-1.04-4.9-2.99-6.74-1.58-1.48-3.66-2.41-5.82-2.56.43.39.86.79,1.29,1.18,1.06.97,2.5,2.03,3.27,3.25.91,1.43,1.07,3.26,1.63,4.83.8,2.25,1.77,4.45,2.69,6.65,2.21,5.34,5.82,10.96,5.87,16.87,0,1.44,0,2.64-.46,4.03-.87,2.62-2.76,5.66-4.77,7.59-2.24,2.15-6.56,2.7-9.49,3.17-3.75.61-7.55.92-11.35.92-2.79,0-4.71-.19-6.66-2.4-2.83-3.21-3.95-8.62-2.47-12.66.46-1.27,2.76-.74,3.84-.94,1.69-.31,3.31-.98,4.71-1.97-.05.03,1.5,1.74,1.6,1.86.65.8,1.06,1.37,1,2.33-.08,1.3-.53,2.38-.37,3.75.13,1.21.46,2.41.8,3.58-.09-2.45.54-4.92,1.8-7.02,1.73.94,3.67,1.48,5.63,1.57-2.76-1.28-5.21-3.18-7.17-5.49-1-1.18-1.73-2.47-2.54-3.77-.54-.87-1.83-2.01-1.78-3.11-.05,1.2.02,2.41.22,3.6-2.14,1.59-5.01,1.68-7.68,1.71-.64,0-1.28.01-1.92.11-.88.13-1.73.44-2.57.72-11.54,3.81-26.28,4.54-34.04-6.53-3.1-4.43-4.64-9.78-5.32-15.15-.31,4.46-.06,8.97.75,13.37-1.3,1.22-2.54,2.66-4.07,3.58-2.59,1.54-5.51,1.91-8.25.5-6.03-3.08-7.8-11.11-8.63-17.23-.97-7.11-.56-15.9,2.39-22.56,2.1-4.74,5.74-10.11,10.96-11.64,4.61-1.35,10.25.67,12.19,5.07.1.23.19.48.13.72-.05.19-.19.34-.32.48-4.11,4.48-5.24,9.2-5.53,15.12,1.34-3.95,3.27-7.69,5.7-11.08.38-.53.79-1.07,1.34-1.43.62-.4,1.37-.54,2.09-.67,8.87-1.61,17.79-3.01,26.73-4.19,8.3-1.1,16.75-1.39,24.99-2.7,1.3-.2,2.8-.79,4.09-.8,4.42-.04,8.87.63,13.4.46,4.36-.17,8.7-.56,13.02-1.14,4.37-.59,8.68-1.43,12.98-2.4,4.18-.95,8.38-2.32,12.69-2.49,3.61-.14,7.63.71,10.15,3.49,2.21,2.44,2.71,5.95,1.92,9.07v-.02Z"/>
            </g>
            <g>
              <path class="cls-14" d="m516.53,94.64c-.62-10.41-1.22-9.81-2.96-10.54-1.91-.8-7.39-2.81-19.15-5.18-4.94-1-21.96-3.59-24.86-3.83-43.45-3.55-81.36-2.25-115.9,4-6.36,1.15-13.08,2.57-19.26,6.17-4.89,2.85-8.53,6.74-10.84,11.56-2.87,6-3.34,12.6-3.69,19.03-.56-.13-1.13-.27-1.69-.38-1.58-.33-3.17-.62-4.78-.79-11.25-1.25-21.3-.66-26.34,1.48-.02-.29-.04-.58-.07-.88v-.16c-.57-6.74-1.08-12.68-4.41-18.95-2.54-4.78-6.44-8.58-11.6-11.29-6.49-3.42-13.5-4.66-20.12-5.65-36.13-5.36-75.64-5.71-120.78-1.05-8.52.88-17.04,2.48-25.41,4.31-11.72,2.56-17.17,4.65-19.06,5.49-1.73.76-2.34.17-2.79,10.59-.44,10,.17,24.72.51,33.46.2,5.04,14.66,3.56,15.09,11.3.09,1.71.19,3.43.3,5.15.62,11.9,2.07,23.77,4.35,35.53,1.38,7.11,3.26,15.3,8.14,22.53,5.22,7.73,13.92,12.4,25.85,13.86,22.76,2.79,43.5,4.11,62.84,3.96,21.63-.17,41.51-2.2,60.46-6.08,15.39-3.16,23.78-12.69,25.63-29.15,1.75-15.56,2.52-31.29,2.31-46.98.08-.02.17-.04.25-.06,1.61-.38,3.2-.78,4.82-1.08,3.21-.59,6.47-.94,9.73-1.03,5.49-.15,10.89.53,16.19,1.86.17,15.98,1.31,31.96,3.43,47.76,2.2,16.32,10.51,25.61,25.4,28.4,17.39,3.26,35.51,4.81,55.09,4.65,19.45-.16,40.34-2,63.34-5.53,11.49-1.77,18.6-8.03,23.42-15.91,4.47-7.31,7.2-14.13,8.33-21.24,2.13-13.37,2.78-26.85,3.31-40.32.31-7.74,13.98-12.71,14.1-17.75.2-8.74,1.38-17.26.79-27.25h.03Zm-245.14,92.81c-1.15,10.17-4.8,14.44-13.95,16.32-34.29,7.03-71.97,7.65-118.58,1.93-7.64-.94-12.69-3.38-15.46-7.48-3.32-4.92-4.77-11.38-5.87-17.05-4.82-24.85-5.72-50.17-2.67-75.27.93-7.62,2.81-9.73,5.96-10.95,3.02-1.17,6.52-1.6,10.78-2.04,19.08-1.97,37.09-3.02,54.24-3.16,22.32-.18,43.16,1.2,62.9,4.13,5.37.8,10.99,1.77,15.44,4.12,2.56,1.35,4.29,2.99,5.45,5.16,1.9,3.56,2.31,8.51,2.78,14.23v.16c1.94,23.23,1.6,46.74-1.01,69.9h-.01Zm221.48-8.05c-.36,1.85-.77,3.69-1.22,5.52-.9,3.63-2.12,7.41-4.93,9.88-1.74,1.53-3.95,2.41-6.11,3.27-5.31,2.1-10.55,3.84-16.22,4.71-44.5,6.84-80.6,7.14-113.62.96-8.78-1.64-12.37-5.85-13.75-16.09-3.11-23.12-4.06-46.65-2.82-69.94v-.16c.32-5.78.58-10.76,2.34-14.44,1.06-2.21,2.67-3.9,5.07-5.3,4.16-2.43,9.49-3.53,14.59-4.45,20.03-3.62,41.3-5.52,64.25-5.7,9.65-.08,19.31.15,28.95.63,5.17.26,10.33.58,15.49.98,4.14.32,7.76.92,10.12-3.38.54-.99.92-2.15,1.83-2.81.89-.66,2.09-.68,3.19-.67,4.03.02,8.73.38,10.95,3.75.86,1.31,1.19,2.9,1.47,4.45,3.04,16.53,3.46,33.42,3.36,50.22-.08,12.91-.47,25.93-2.94,38.57h0Z"/>
              <path class="cls-20" d="m279.74,112.02c1.92,23.23,1.58,46.74-1.03,69.89-1.15,10.17-4.79,14.44-13.96,16.31-34.29,7.03-71.97,7.65-118.58,1.93-7.64-.93-12.7-3.38-15.46-7.48-3.33-4.92-4.77-11.39-5.87-17.05-4.82-24.85-5.71-50.17-2.67-75.27.92-7.63,2.8-9.73,5.96-10.94,3.03-1.17,6.52-1.6,10.78-2.04,19.08-1.97,37.09-3.02,54.23-3.16,22.32-.18,43.16,1.2,62.9,4.13,5.38.8,11,1.77,15.44,4.11,2.56,1.35,4.29,2.99,5.44,5.17,1.9,3.56,2.32,8.51,2.78,14.23l.02.16h.02Z"/>
              <path class="cls-17" d="m268.71,119.64c.14-.22.28-.43.42-.65-.07-.99-.13-1.98-.21-2.97l-.02-.14c-.4-4.94-.76-9.21-2.4-12.28-.99-1.88-2.49-3.29-4.7-4.46-8.03-4.23-17.18-3.85-25.92-4.79-7.07-.76-14.13-1.68-21.23-1.89-22.32-.67-44.71.33-66.92,2.62-3.65.38-6.65.74-9.24,1.75-2.08.8-3.51,2.06-4.43,5.58,2.06-.51,4.37-.78,7.02-1.06,16.35-1.69,31.8-2.59,46.5-2.71h2.97c-5.45,7.26-11,14.43-16.2,21.88-7.13,10.23-13.98,20.66-20.59,31.25-5.66,9.06-11.13,18.25-16.46,27.51.75,2.26,1.71,4.45,3,6.36.78,1.15,1.78,2.13,2.99,2.99,2.9-5.04,5.83-10.08,8.78-15.09,6.45-10.92,13.03-21.77,19.8-32.49,6.56-10.39,13.24-20.72,20.44-30.67,2.8-3.86,5.62-7.72,8.37-11.62,14.26.36,27.82,1.5,40.82,3.42.46.07.93.14,1.4.21-.24.34-.48.69-.72,1.03-3.55,5.01-6.97,10.06-10.29,15.22-7.4,11.52-14.6,23.17-21.61,34.93-7.02,11.76-13.86,23.63-20.54,35.59-1.08,1.94-2.16,3.89-3.23,5.83,13.18.65,25.52.57,37.25-.24.63-1.14,1.25-2.27,1.88-3.41,6.19-11.18,12.44-22.32,18.91-33.33,3.13-5.33,6.28-10.65,9.58-15.88,2.68-4.25,5.43-8.44,8.18-12.64,1.06,17.63.6,35.39-1.37,52.92-.3,2.66-.8,4.84-1.57,6.64,5.15-2,7.41-5.75,8.22-12.92,2.11-18.71,2.47-37.69,1.12-56.49h0Z"/>
              <path class="cls-20" d="m497.83,94.42c3.9,25.01,4.01,50.39.35,75.44-.84,5.73-1.99,12.28-5.01,17.36-2.48,4.18-7.19,6.79-14.39,7.99-44.41,7.38-80.5,8.13-113.6,2.35-8.8-1.53-12.44-5.7-13.95-15.92-3.4-23.07-4.63-46.59-3.67-69.89v-.16c.24-5.78.45-10.77,2.16-14.46,1.03-2.24,2.62-3.93,5-5.36,4.13-2.48,9.45-3.64,14.53-4.64,19.99-3.87,41.23-6.02,64.18-6.48,15.19-.31,31.13.12,47.95,1.29,4.07.28,7.41.58,10.31,1.63,2.99,1.07,4.95,3.2,6.14,10.86h0Z"/>
              <path class="cls-17" d="m484.86,112.94s.02-.04.03-.06c-.34-3.68-.77-7.35-1.29-11.01-.42-2.91-.97-4.92-1.67-6.35-.05.09-.09.19-.14.28-.93-1.74-2.1-2.56-3.55-3.1-2.1-.79-4.47-1.13-7.24-1.4.08-.17.17-.33.25-.49-.68-.07-1.37-.13-2.09-.19-10.51-.86-20.64-1.38-30.42-1.58-.11.16-.22.33-.33.49-4.16-.09-8.27-.12-12.31-.09-20.56.16-39.61,1.86-57.55,5.1-4.56.83-9.34,1.82-13.07,3.99-2.15,1.26-3.59,2.76-4.54,4.75-.35.72-.62,1.51-.85,2.34,3.71-2.12,8.42-3.1,12.93-3.92,17.94-3.24,36.99-4.94,57.55-5.1,4.29-.03,8.65,0,13.08.1-1.06,1.6-2.12,3.2-3.16,4.8-7.94,12.21-15.07,24.94-22.07,37.71-7.18,13.1-14.08,26.35-20.78,39.7-2.54,5.06-5.04,10.14-7.53,15.23,12.1,1.4,24.78,1.89,38.3,1.46,6.11-12.97,12.29-25.9,18.61-38.76,6.39-13,12.86-25.98,19.77-38.71,3.52-6.48,7.11-12.94,10.51-19.49,2.01.25,3.79.59,5.42,1.2,1.96.73,3.42,1.97,4.44,5.31-2.94,5.95-5.86,11.9-8.75,17.87-5.17,10.66-10.27,21.35-15.29,32.07-5.05,10.78-10.01,21.6-14.88,32.47-1.06,2.35-2.09,4.72-3.14,7.07,3.13-.25,6.32-.57,9.54-.91,3.89-8.03,7.8-16.06,11.75-24.06,5.65-11.45,11.36-22.87,17.1-34.27,2.04-4.05,4.09-8.08,6.13-12.12,1.47,17.98.79,36.07-2.05,53.94-.64,3.97-1.45,8.37-3.06,12.26,1.66-1.06,2.96-2.37,3.91-3.92,2.76-4.52,3.86-10.37,4.68-15.5,3.01-18.93,3.59-38.1,1.76-57.13v.02Z"/>
              <path class="cls-7" d="m523.85,89.1c-.62-10.41-1.22-9.81-2.96-10.54-1.91-.8-7.39-2.81-19.15-5.18-4.94-1-21.96-3.59-24.86-3.83-43.45-3.55-81.36-2.25-115.9,4-6.36,1.15-13.08,2.57-19.26,6.17-4.89,2.85-8.53,6.74-10.84,11.56-2.87,6-3.34,12.6-3.69,19.03-.56-.13-1.13-.27-1.69-.38-1.58-.33-3.17-.62-4.78-.79-11.25-1.25-21.3-.66-26.34,1.48-.02-.29-.04-.58-.07-.88v-.16c-.57-6.74-1.08-12.68-4.41-18.95-2.54-4.78-6.44-8.58-11.6-11.29-6.49-3.42-13.5-4.66-20.12-5.65-36.13-5.36-75.64-5.71-120.78-1.05-8.52.88-17.04,2.48-25.41,4.31-11.72,2.56-17.17,4.65-19.06,5.49-1.73.76-2.34.17-2.79,10.59-.44,10,.17,24.72.51,33.46.2,5.04,14.66,3.56,15.09,11.3.09,1.71.19,3.43.3,5.15.62,11.9,2.07,23.77,4.35,35.53,1.38,7.11,3.26,15.3,8.14,22.53,5.22,7.73,13.92,12.4,25.85,13.86,22.76,2.79,43.5,4.11,62.84,3.96,21.63-.17,41.51-2.2,60.46-6.08,15.39-3.16,23.78-12.69,25.63-29.15,1.75-15.56,2.52-31.29,2.31-46.98.08-.02.17-.04.25-.06,1.61-.38,3.2-.78,4.82-1.08,3.21-.59,6.47-.94,9.73-1.03,5.49-.15,10.89.53,16.19,1.86.17,15.98,1.31,31.96,3.43,47.76,2.2,16.32,10.51,25.61,25.4,28.4,17.39,3.26,35.51,4.81,55.09,4.65,19.45-.16,40.34-2,63.34-5.53,11.49-1.77,19.76-6.66,24.58-14.54,4.47-7.31,6.05-15.51,7.18-22.61,2.13-13.37,2.78-26.85,3.31-40.32.31-7.74,14.79-6.5,14.91-11.54.2-8.74.57-23.46-.02-33.46h.02Zm-245.14,92.81c-1.15,10.17-4.8,14.44-13.95,16.32-34.29,7.03-71.97,7.65-118.58,1.93-7.64-.94-12.69-3.38-15.46-7.48-3.32-4.92-4.77-11.38-5.87-17.05-4.82-24.85-5.72-50.17-2.67-75.27.93-7.62,2.81-9.73,5.96-10.95,3.02-1.17,6.52-1.6,10.78-2.04,19.08-1.97,37.09-3.02,54.24-3.16,22.32-.18,43.16,1.2,62.9,4.13,5.37.8,10.99,1.77,15.44,4.12,2.56,1.35,4.29,2.99,5.45,5.16,1.9,3.56,2.31,8.51,2.78,14.23v.16c1.94,23.23,1.6,46.74-1.01,69.9h0Zm212.71-9.78c-.91,5.73-2.14,12.26-5.22,17.3-2.53,4.14-7.27,6.69-14.48,7.8-44.5,6.84-80.6,7.14-113.62.96-8.78-1.64-12.37-5.85-13.75-16.09-3.11-23.12-4.06-46.65-2.82-69.94v-.16c.32-5.78.58-10.76,2.34-14.44h0c1.06-2.22,2.67-3.9,5.07-5.3,4.16-2.43,9.49-3.53,14.59-4.45,20.03-3.62,41.3-5.52,64.25-5.7,15.19-.12,31.13.51,47.94,1.88,4.06.33,7.4.67,10.29,1.75,2.97,1.11,4.91,3.26,6.01,10.93,3.59,25.06,3.39,50.44-.59,75.44v.02Z"/>
              <g>
                <path class="cls-19" d="m520.98,79.39c-.79-.58-1.78-.83-2.74-1.05-12.33-2.84-24.82-4.95-37.41-6.54-6.9-.87-14.24-1.36-21.06-1.75-6.83-.39-14.25-.73-20.74-.78-20.04-.14-40.13.65-60,3.35-10.94,1.49-22.42,2.18-32.55,7.01-5.24,2.5-8.59,5.71-11.6,10.64-3.19,5.23-3.8,10.33-5.17,16.1,1.27-5.34,2.61-12.24,6.43-16.42,3.61-3.95,9.03-6.78,14.18-7.99,54.15-12.72,111.09-13.24,165.46-1.52,5.77,1.24,7.82,7.19,8.04,12.78-.12-3.1-.4-6.2-.83-9.27-.23-1.61-.57-3.35-1.8-4.4-.07-.06-.14-.12-.21-.17h0Z"/>
                <path class="cls-19" d="m496.49,107.67c-.75-6.67-2.28-13.19-3.76-19.72-.09-.38-.64-.21-.58.17.52,3,1.05,5.99,1.23,9.03.18,2.98.58,5.97.93,8.94.68,5.82,1.15,11.67,1.39,17.52.43,10.4.27,20.84-.62,31.21-.8,9.25-1.27,18.84-4.2,27.74,4.37-13.09,6.22-25.11,6.83-38.85.53-12.02.13-24.08-1.21-36.03h-.01Z"/>
                <path class="cls-19" d="m284.17,144.04c.27-4.2-.19-8.51-.15-12.77.04-5.07-.19-10.14-.7-15.18-.7-6.9-1.22-14.87-4.25-21.21-2.8-5.84-13.21-9.21-19.33-9.04-.09-.32.36-.48.69-.48,2.33-.02,4.66-.03,7-.05,2.6-.02,8.02,2.18,10.02,3.82,3.69,3.02,5.02,8.59,5.83,13.03,4.37,24.19,3.38,49.18-1.07,73.35.66-10.44,1.3-21.04,1.97-31.47h0Z"/>
                <path class="cls-19" d="m475.73,198.76c-.88.16-1.78.1-2.67.23-.61.09-1.22.17-1.84.25-1.46.19-2.93.34-4.39.53-2.92.39-5.82.86-8.75,1.23-5.71.72-11.42,1.35-17.16,1.79-5.81.45-11.64.75-17.47.92-5.75.18-11.52-.02-17.26.27-3.28.16-6.5.05-9.78-.17-3.25-.22-6.51-.28-9.76-.51-.12,0-.15.21-.03.22,2.79.36,5.59.82,8.4,1.02,2.95.21,5.91.29,8.85.64,2.97.36,5.87.66,8.87.72,2.95.06,5.91.08,8.87.05,11.66-.1,23.33-.99,34.88-2.62,3.17-.45,6.33-.96,9.48-1.52,1.68-.3,3.33-.71,5-1.1.75-.18,1.51-.35,2.26-.54.91-.22,1.75-.62,2.67-.82.41-.09.22-.69-.17-.62v.03Z"/>
                <path class="cls-19" d="m246.04,202.66c-9.86,1.38-19.75,2.02-29.71,2.08-4.94.03-9.87.28-14.81.26-5.02-.03-10.03-.09-15.05-.31-5.61-.24-11.27-.98-16.88-.58-.76.05-.95,1.15-.17,1.37,4.77,1.35,9.8,1.56,14.73,1.84,5.08.29,10.19.51,15.28.48,5.02-.03,10.04-.18,15.05-.46,5.01-.28,10.04-1,15.01-1.67,5.55-.75,11.11-1.61,16.63-2.53.27-.04.2-.52-.07-.48h0Z"/>
                <path class="cls-19" d="m273.9,79.66c-5.51-2.28-11.54-3.12-17.38-4.17-5.86-1.05-11.75-1.88-17.67-2.54-11.95-1.34-23.94-2.25-35.96-2.33-11.95-.07-23.98.01-35.9.84-11.8.81-23.59,1.91-35.33,3.41-6.28.8-12.49,1.88-18.61,3.52-2.97.8-5.9,1.78-8.65,3.17-2.81,1.41-5.66,2.63-8.36,4.27-.17.1-.02.33.15.26,2.63-1.15,5.35-2.36,8.14-3.08,2.7-.69,5.42-1.31,8.13-1.97,5.41-1.33,10.92-2.16,16.43-2.91,11.58-1.57,23.25-2.62,34.9-3.46,11.8-.85,23.59-1.72,35.43-1.73,11.76,0,23.59.21,35.3,1.26,6.62.6,13.22,1.44,19.79,2.46,6.51,1.01,12.96,2.79,19.54,3.3.18.01.18-.24.04-.3h.01Z"/>
              </g>
            </g>
          </g>
        </g>
      </g>
    </g>
  </g>
</svg>